<svg width="104" height="15" xmlns="http://www.w3.org/2000/svg" xmlns:xlink="http://www.w3.org/1999/xlink"><defs><path id="a" d="M0 .56h6.7v6.726H0V.56z"/><path id="c" d="M.715.56H7.44v6.726H.715V.56z"/><path id="e" d="M.445.56H7.16v6.726H.445V.56z"/></defs><g fill="none" fill-rule="evenodd"><g transform="translate(1 .44)"><mask id="b" fill="#fff"><use xlink:href="#a"/></mask><path d="M3.337.56h.042c.318.365.677.688 1.016 1.038L6.7 3.902v.042c-1.116 1.11-2.226 2.23-3.342 3.342C2.237 6.17 1.12 5.049 0 3.933c.057-.11.166-.182.25-.271C1.277 2.624 2.32 1.602 3.337.56" fill="#000" mask="url(#b)"/></g><g transform="translate(7 .44)"><mask id="d" fill="#fff"><use xlink:href="#c"/></mask><path d="M4.062.56h.042a.751.751 0 0 0 .104.13C5.288 1.759 6.35 2.844 7.44 3.907c-.025.063-.083.104-.13.152C6.23 5.132 5.157 6.21 4.078 7.286 2.952 6.175 1.847 5.044.715 3.938 1.81 2.797 2.962 1.697 4.062.56" fill="#000" mask="url(#d)"/></g><g transform="translate(14 .44)"><mask id="f" fill="#fff"><use xlink:href="#e"/></mask><path d="M3.787.56h.042c.208.25.453.464.677.699l2.53 2.528c.041.047.108.089.124.157-1.13 1.1-2.226 2.24-3.363 3.342L.591 4.079c-.052-.057-.12-.1-.146-.172.57-.553 1.121-1.121 1.684-1.68.553-.557 1.116-1.1 1.658-1.667" fill="#000" mask="url(#f)"/></g><path d="M7.762 11.036c1.1-1.1 2.205-2.2 3.305-3.305l.047.02c1.106 1.11 2.21 2.221 3.326 3.321-.036.084-.115.13-.172.199-.802.796-1.606 1.605-2.408 2.403-.261.25-.512.532-.777.766-.381-.343-.73-.73-1.1-1.085-.751-.75-1.496-1.502-2.252-2.247.01-.02.02-.052.03-.072M28.494 1.601h9.93c.006.795.006 1.59 0 2.38h-3.576v9.394c-.005.155.01.31-.021.465h-2.761c.01-3.288.005-6.572.005-9.86h-3.577V1.601zM46.71 1.601c.929 0 1.858 0 2.787.005-.005 4.078.01 8.156-.01 12.234h-2.772c-.016-1.084-.005-2.168-.01-3.252.005-2.994 0-5.988.005-8.987M95.855 1.601c.929 0 1.857 0 2.787.005v9.777c1.615.01 3.236.005 4.852.005v2.452H95.86c-.016-4.078 0-8.156-.005-12.239M66.51 9.767a3.339 3.339 0 0 1-1.45 1.26 4.392 4.392 0 0 1-1.72.377c-.619.005-1.238 0-1.857.005-.032-.687-.006-1.373-.016-2.06 0-1.79 0-3.577.005-5.368h1.915c.96.021 1.936.351 2.633 1.033.624.604.975 1.455 1.032 2.317.057.841-.099 1.713-.542 2.436m3.144-4.062a5.241 5.241 0 0 0-1.575-2.488c-.996-.883-2.297-1.363-3.603-1.533-.737-.108-1.487-.077-2.23-.083h-3.298a1.23 1.23 0 0 0-.191.016c.016 4.042 0 8.084.011 12.125-.006.026-.011.072-.016.098h4.77c.427-.078.867-.072 1.29-.165 1.445-.263 2.834-.981 3.778-2.122.697-.826 1.125-1.863 1.265-2.932.124-.975.072-1.977-.201-2.916M80.121 9.23c-.016-.107.052-.2.083-.3.563-1.47 1.141-2.941 1.698-4.412a.123.123 0 0 1 .041-.01c.583 1.548 1.177 3.092 1.766 4.64 0 .02.005.062.005.083a195.605 195.605 0 0 0-3.593 0m7.144 1.729c-1.166-2.834-2.328-5.673-3.504-8.501a13.12 13.12 0 0 0-.352-.847c-.96-.015-1.92-.015-2.88 0-1.64 3.949-3.283 7.897-4.925 11.84-.05.13-.113.254-.138.388h2.968c.293-.815.608-1.621.903-2.436 1.682-.026 3.37-.005 5.058-.011.087-.025.114.067.134.129.284.774.573 1.544.852 2.318h3.061c-.372-.97-.785-1.921-1.177-2.88" fill="#000"/></g></svg>