<svg width="75" height="24" viewBox="0 0 75 24" xmlns="http://www.w3.org/2000/svg">
  <path d="M30.75 11.22c-1.89-.45-2.225-.766-2.225-1.43 0-.627.59-1.05 1.47-1.05.85 0 1.694.32 2.58.98a.124.124 0 0 0 .174-.027l.92-1.3a.124.124 0 0 0-.023-.167c-1.053-.846-2.24-1.256-3.625-1.256-2.04 0-3.463 1.223-3.463 2.973 0 1.877 1.227 2.542 3.35 3.055 1.806.416 2.11.765 2.11 1.388 0 .69-.615 1.12-1.607 1.12-1.102 0-2-.372-3.007-1.242a.124.124 0 0 0-.176.014l-1.033 1.23a.122.122 0 0 0 .012.17 6.162 6.162 0 0 0 4.16 1.597c2.197 0 3.617-1.2 3.617-3.057.004-1.57-.935-2.437-3.234-2.996l-.004-.002zm9.8 2.104c0 1.326-.816 2.25-1.985 2.25-1.156 0-2.028-.966-2.028-2.25 0-1.283.872-2.25 2.028-2.25 1.15 0 1.986.946 1.986 2.25zm-1.593-3.966c-.953 0-1.734.375-2.377 1.144v-.865a.124.124 0 0 0-.124-.124h-1.69a.123.123 0 0 0-.124.124v9.61c0 .068.055.124.124.124h1.69a.124.124 0 0 0 .124-.123v-3.034c.644.723 1.425 1.077 2.376 1.077 1.77 0 3.56-1.362 3.56-3.966.003-2.604-1.788-3.966-3.558-3.966zm8.15 6.23c-1.212 0-2.126-.973-2.126-2.265 0-1.296.884-2.237 2.1-2.237 1.22 0 2.14.974 2.14 2.266 0 1.296-.89 2.236-2.113 2.236zm0-6.23c-2.28 0-4.063 1.754-4.063 3.995 0 2.215 1.772 3.95 4.035 3.95 2.286 0 4.076-1.747 4.076-3.98 0-2.222-1.778-3.965-4.05-3.965zm8.914.155h-1.86V7.61a.124.124 0 0 0-.123-.124h-1.69a.124.124 0 0 0-.123.124v1.902h-.813a.123.123 0 0 0-.122.124v1.452c0 .07.055.124.123.124h.814v3.76c0 1.52.756 2.29 2.247 2.29.607 0 1.11-.126 1.585-.395a.123.123 0 0 0 .062-.108v-1.384a.124.124 0 0 0-.18-.11 2.13 2.13 0 0 1-.992.24c-.542 0-.784-.248-.784-.8v-3.493h1.86a.123.123 0 0 0 .125-.124V9.636a.12.12 0 0 0-.122-.124h-.002zm6.483.007v-.233c0-.687.263-.994.854-.994.353 0 .636.07.952.176a.123.123 0 0 0 .162-.12V6.927a.123.123 0 0 0-.087-.118 4.64 4.64 0 0 0-1.405-.202c-1.562 0-2.387.88-2.387 2.542v.358h-.812a.124.124 0 0 0-.123.123v1.46c0 .068.056.123.124.123h.813v5.8c0 .067.055.123.123.123h1.69a.124.124 0 0 0 .124-.124v-5.798h1.58l2.417 5.797c-.275.61-.545.73-.913.73-.298 0-.612-.088-.933-.263a.126.126 0 0 0-.097-.01.125.125 0 0 0-.073.067l-.573 1.257a.123.123 0 0 0 .053.16 3.562 3.562 0 0 0 1.805.463c1.25 0 1.938-.58 2.547-2.145l2.932-7.578a.124.124 0 0 0-.115-.17H69.4c-.052 0-.1.034-.116.084l-1.803 5.15L65.506 9.6a.124.124 0 0 0-.115-.08H62.5h.002zm-3.758-.007h-1.69a.124.124 0 0 0-.125.124v7.375c0 .068.056.124.124.124h1.69a.124.124 0 0 0 .125-.124V9.637a.124.124 0 0 0-.125-.124zm-.836-3.358a1.212 1.212 0 1 0-.004 2.424 1.212 1.212 0 0 0 .004-2.425zm14.878 4.09h-.31v.396h.31c.154 0 .247-.074.247-.196 0-.13-.093-.198-.247-.198zm.2.565l.337.47h-.284l-.302-.43h-.26v.43h-.237v-1.248h.558c.29 0 .48.15.48.398.002.205-.117.33-.288.38zm-.263-1.193c-.61 0-1.07.484-1.07 1.077s.457 1.07 1.064 1.07c.61 0 1.07-.483 1.07-1.076s-.46-1.07-1.065-1.07zm-.007 2.267c-.67 0-1.19-.537-1.19-1.19 0-.652.528-1.196 1.197-1.196s1.19.537 1.19 1.19c0 .652-.528 1.196-1.197 1.196zM18.402 10.82C14.877 8.725 9.064 8.532 5.7 9.553a1.023 1.023 0 1 1-.594-1.957C8.97 6.425 15.39 6.65 19.446 9.06a1.023 1.023 0 0 1-1.043 1.76zm-.115 3.1a.853.853 0 0 1-1.172.28c-2.94-1.806-7.42-2.33-10.896-1.274a.854.854 0 0 1-.497-1.632c3.97-1.205 8.908-.62 12.283 1.453.4.247.528.772.28 1.172zm-1.338 2.976a.68.68 0 0 1-.938.227c-2.568-1.57-5.8-1.924-9.606-1.054a.68.68 0 1 1-.303-1.33c4.165-.952 7.738-.542 10.62 1.22a.68.68 0 0 1 .226.936zm-5.016-15.77C5.896 1.126 1 6.02 1 12.06c0 6.04 4.895 10.935 10.934 10.935 6.04 0 10.935-4.896 10.935-10.935 0-6.038-4.896-10.934-10.936-10.934z" fill="currentColor" fill-rule="evenodd"/>
</svg>