<svg height="20" viewBox="0 0 80 20" width="80" xmlns="http://www.w3.org/2000/svg"><g fill-rule="evenodd"><path d="m31.382 1.261h3.875c3.9 0 4.268 1.365 4.268 6.421v5.168c0 4.454-.895 5.795-4.698 5.795h-3.445v-17.385zm2.348 15.36h1.214c1.782 0 2.074-.938 2.074-3.924v-5.97c0-2.577-.22-3.444-2.266-3.444h-1.022v13.339zm6.734-15.36h6.578v2.066h-4.229v5.451h3.915v2.037h-3.915v5.764h4.229v2.066h-6.578zm7.518 0h6.577v2.066h-4.229v5.451h3.915v2.037h-3.915v5.764h4.228v2.066h-6.577zm16.129 0h6.578v2.066h-4.229v5.451h3.916v2.037h-3.916v5.764h4.23v2.066h-6.58zm-8.613 15.347 5.412-13.311h-5.412v-2.037h7.673v2.036l-5.318 13.311h5.318v2.037l-7.673-.001zm16.131-15.347h3.758c3.516 0 3.762.896 3.762 4.7 0 2.334-.22 3.476-2.195 4.078 1.637.168 2.198 1.022 2.198 2.659v3.78c0 .627.004 1.443.151 2.166h-2.349c-.242-.434-.155-.861-.155-1.56v-3.924c0-1.637-.311-2.033-1.9-2.033h-.92v7.518l-2.35-.001v-17.384zm2.35 7.673h.728c1.902 0 2.192-.235 2.192-2.834 0-2.577-.23-2.805-1.722-2.805h-1.199v5.639z"/><path d="m1 18.645h5.168v-1.567h-5.168zm0-2.036h5.168v-1.566h-5.168zm0-2.036h5.168v-1.566h-5.168z"/><path d="m1 12.537h5.168v-1.565h-5.168zm0-2.036h5.168v-1.566h-5.168z"/><path d="m6.794 18.645h5.169v-1.567h-5.169zm0-2.036h5.169v-1.566h-5.169zm0-2.036h5.169v-1.566h-5.169z"/><path d="m12.59 18.645h5.167v-1.567h-5.167zm-.001-2.036h5.168v-1.566h-5.167zm0-2.036h5.168v-1.566h-5.167z"/><path d="m12.589 12.537h5.168v-1.566h-5.167zm0-2.036h5.168v-1.566h-5.167zm0-2.036h5.168v-1.565h-5.167zm0-2.035h5.168v-1.567h-5.167z"/><path d="m18.384 18.645h5.167v-1.567h-5.167zm0-2.036h5.168v-1.566h-5.168zm0-2.036h5.168v-1.566h-5.168z"/><path d="m18.384 12.537h5.168v-1.566h-5.168zm0-2.036h5.168v-1.566h-5.168z"/><path d="m24.178 18.645h5.168v-1.567h-5.168zm0-2.036h5.169v-1.566h-5.169zm0-2.037h5.169v-1.566h-5.169z"/><path d="m24.178 12.537h5.169v-1.566h-5.169zm0-2.036h5.169v-1.566h-5.169zm0-2.036h5.169v-1.566h-5.169zm0-2.036h5.169v-1.566h-5.169zm0-2.036h5.169v-1.566h-5.169z"/></g></svg>