<svg height="20" viewBox="0 0 78 20" width="78" xmlns="http://www.w3.org/2000/svg"><path d="m12.935 10.536c.011 1.127.403 2.075 1.175 2.842.35.348.743.619 1.176.81l-.14.422c-.048.139-.1.273-.158.405a8.17 8.17 0 0 1 -.43.918c-.159.288-.32.558-.483.81-.234.347-.448.647-.64.899-.194.252-.373.45-.536.594-.468.443-.971.677-1.51.701-.362 0-.83-.12-1.403-.36-.516-.228-1.013-.341-1.492-.341-.515 0-1.03.114-1.545.34-.55.24-.994.367-1.333.38-.528.024-1.042-.217-1.545-.72-.35-.324-.761-.84-1.229-1.548-.526-.779-.96-1.684-1.299-2.716a10.124 10.124 0 0 1 -.543-3.239c0-1.199.245-2.23.737-3.094.386-.695.9-1.244 1.544-1.647a3.999 3.999 0 0 1 2.089-.62c.444 0 .983.132 1.614.396.633.264 1.06.396 1.282.396.105 0 .58-.155 1.422-.468.783-.288 1.427-.407 1.93-.36 1.416.133 2.486.726 3.212 1.781-1.287.816-1.92 1.955-1.895 3.419zm-2.212-6.657c.62-.78.93-1.62.93-2.52v-.179c0-.06-.006-.12-.017-.18-.433.024-.892.162-1.378.413a3.82 3.82 0 0 0 -1.203.954c-.631.757-.947 1.566-.947 2.43v.17c0 .054.005.111.017.171.972.096 1.837-.324 2.598-1.26m14.937 9.865h-.084l-3.564-8.145h-2.8v13.142h2.44v-8.511h.113l2.979 6.758h1.71l2.97-6.758h.114v8.51h2.467v-13.14h-2.78zm34.855 4.997h2.741v-13.142h-2.741zm11.022-11.053c1.626 0 2.486 1.252 2.486 2.6h2.63v-.28c0-2.541-1.94-4.66-5.135-4.66-3.422 0-5.465 2.254-5.465 6.095v1.483c0 3.84 2.024 6.065 5.456 6.065 3.28 0 5.143-2.148 5.143-4.535v-.289h-2.629c0 1.358-.84 2.485-2.466 2.485-1.665 0-2.724-1.185-2.724-3.717v-1.482c0-2.523 1.069-3.765 2.704-3.765m-29.046 6.21c0 1.762-1.03 2.734-2.543 2.734-1.522 0-2.552-.963-2.552-2.734v-8.299h-2.724v8.684c0 2.802 1.986 4.708 5.276 4.708 3.28 0 5.275-1.906 5.275-4.708v-8.684h-2.732zm11.803-2.811-1.957-.443c-1.153-.241-1.758-.751-1.758-1.512 0-1.01.823-1.646 2.147-1.646 1.493 0 2.24.856 2.307 1.781h2.552c-.029-2.32-1.966-3.938-4.85-3.938-2.732 0-4.888 1.435-4.888 4.015 0 2.234 1.513 3.273 3.328 3.668l1.938.453c1.305.298 1.966.732 1.966 1.627 0 1.02-.813 1.714-2.335 1.714-1.636 0-2.496-.867-2.571-1.84h-2.629c.039 1.859 1.268 4.025 5.068 4.025 3.196 0 5.172-1.588 5.172-4.17 0-2.387-1.599-3.321-3.49-3.734" fill="#231f1f" fill-rule="evenodd"/></svg>
