<svg version="1" xmlns="http://www.w3.org/2000/svg" width="1580" height="1580" viewBox="0 0 1185.000000 1185.000000"><path d="M654 39c-1.4.4-4.7 1.7-7.3 2.9C644 43 641 44 640.1 44c-1.8 0-5.5 3.3-4.6 4.1.2.3-.4.5-1.3.6-3.8.3-9.5 2.2-11.2 3.8-1 .9-2.3 1.4-2.9 1.1-1.1-.7-2.2.7-3.6 4.9-.8 2.5-1.5 2.9-3.7 2.7-2.8-.3-5.5 2.8-4.2 4.9.3.6-.2 1.9-1.2 3-1.9 2.1-7.5 2.6-11.8.9-1.4-.5-10.5-1.2-20.3-1.5-26.9-.8-40.2-2.4-46.3-5.6-1.9-1-6.2-2.3-9.5-2.9-3.3-.6-9.4-1.8-13.5-2.6-6-1.1-9.8-1.2-18.9-.4-6.5.5-11.8 1.4-12.2 2.1-.4.6-1.1.9-1.6.6-.5-.3-2.6-.2-4.6.2-2 .5-7.1.6-11.4.2-7.6-.7-16.4.7-18.7 3-1.3 1.2-5.6 1.2-5.6 0 0-2.1-9.3-2.9-11.7-1-.7.7-1.4.6-1.8-.2-.5-.7-1.5-.3-3.2 1.5-1.3 1.4-3.2 2.6-4.3 2.6-1 0-2.2.4-2.5 1-.3.5-2.1 1-3.9 1-3.5 0-5.6 1.5-5.6 4-.1 1.6-2.6 4.9-5.2 6.5-6.4 4.1-11.8 8.1-11.8 8.8 0 .5-1 .5-2.1.2-1.9-.6-2.1-.4-1.6 1.5.3 1.2.3 2 .1 1.7-.3-.3-1.7.6-3.1 1.9-1.4 1.3-2.9 2.4-3.4 2.4-.4 0-4 3.1-7.9 7-3.9 3.8-7.5 7-8 7-1.3 0-7.9 7.2-8.6 9.2-.3 1-1.2 1.8-2 1.8s-1.4.5-1.4 1c0 .6-.6 1-1.3.8-1.5-.4-5.3 3.3-6.2 6.1-.3 1.2-1.3 2.1-2.1 2.1s-1.4.7-1.4 1.5c0 .9-.7 1.8-1.6 2.2-.9.3-1.3 1.2-.9 2.1.3.9.3 1.3-.1.9s-1.7.5-3 1.8c-1.3 1.4-2.5 2.5-2.8 2.5-.8 0-5.6 5-5.6 5.8 0 .6-4.2 6.1-9.1 12-.6.7-.8 1.9-.5 2.7.2.7-.2 1.9-1 2.5-2 1.8-1.7 3.3.6 2.7 1.9-.5 1.9-.4.2 2.5-.9 1.7-2.3 4.1-3 5.4-1.7 3.2-4.9 4-7.3 1.8-1.8-1.6-1.9-1.6-1.9.9 0 1.9-.4 2.5-1.5 2.1-.8-.4-1.7.1-2.1 1-.3.9-1.4 1.6-2.3 1.6-1.3 0-1.3.2-.2.9.9.6 1 1.1.2 1.5-.6.4-1.1 1.8-1.1 3.2 0 2.1-.3 2.4-2.1 1.9-1.9-.6-2.1-.4-1.6 1.4.3 1.2.1 1.9-.4 1.5-.5-.3-.9.2-.9 1 0 .9-1.8 3.5-4 5.7-2.2 2.3-4 4.9-4 5.8 0 .9-.9 2.4-2 3.4-1.1.9-2 2.8-2 4.2 0 1.6-1.4 3.9-4.1 6.5-2.3 2.2-3.6 4-3 4 .6 0 1.1.5 1.1 1.1 0 .6-.8.8-1.9.4-1.4-.4-2 .1-2.6 2.2-.5 1.5-.7 3.2-.6 3.7.1.4-.6 1.4-1.5 2-1 .8-1.7 3-1.9 5.9-.2 2.6-1 5.8-1.9 7.2-.9 1.3-1.6 2.8-1.6 3.3 0 .4-.9 2.7-2.1 5.1-1.1 2.3-1.9 4.7-1.6 5.4.4 1.4-2.9 4.7-4.9 4.7-.9 0-1.4.7-1.3 1.7.2 1-.4 3.2-1.4 4.9-.9 1.7-1.3 3.4-1 3.7 1.1 1.2-2 3.8-3.9 3.4-1-.3-1.8-.1-1.8.4s.6.9 1.3.9c.6.1.2.9-1.1 2-1.2 1-2.1 2.3-2 2.9.3 1.2-5.3 8.1-13 15.8-2.8 3-5.2 5.6-5.2 6 0 .3-2.5 3.1-5.5 6.2s-9.1 9.3-13.5 13.8-8 9-8 9.9c0 .9-1.9 3.5-4.3 5.8-2.3 2.3-5.1 5.9-6.2 8-1.1 2.2-2.7 4.7-3.5 5.6-.8.9-2.4 3.2-3.5 5.1-1.1 1.8-3.3 5.4-4.8 7.9s-3.2 5.6-3.8 6.9c-.5 1.3-2 3.2-3.3 4.2-1.3 1-2.7 3.1-3.1 4.6-.3 1.6-2.2 6-4.1 10-1.9 3.9-3.4 7.8-3.4 8.7 0 .8-1 3.2-2.1 5.3-1.2 2.1-2.3 4.9-2.4 6.3-.3 2.7-1.1 5.2-2.7 8.6-.5 1.1-1.1 4-1.3 6.3-.1 2.4-.8 4.7-1.5 5.1-.7.4-.9 1.6-.6 2.8.4 1.2.1 2.6-.9 3.5-.9 1-1.5 3.4-1.5 6.1 0 4.7-.3 5.5-5.1 13.6-3.1 5.1-4.6 13.5-2.3 12.6.8-.3 1.4-.2 1.4.3s-1 1.1-2.2 1.5c-1.7.4-2 .8-1.1 1.7 1.2 1.2.7 3.9-.8 3.9-.5 0-1-.8-1-1.8-.1-.9-.6.5-1.1 3.3-.5 2.7-1.3 5.4-1.7 6-.4.5-.7 2.7-.6 4.7.1 2.1-.2 3.8-.6 3.8-.4 0-1.1 2.4-1.4 5.4-.5 4.1-1.1 5.3-2.1 4.9-1.7-.6-1.7-.2-.4 3.1.5 1.4.6 2.6.1 2.6s-1.1 1.1-1.3 2.5c-.6 2.9 0 3.2 1.7.8 3-4.1 4.7 4.3 1.9 9.8-.7 1.5-1 2.9-.7 3.3.4.3-.4 2.6-1.6 5.1-1.3 2.6-2.3 6.5-2.3 9.4-.1 2.9-.7 5.2-1.3 5.5-.7.2-1 1.5-.8 2.9.4 1.9-.1 2.9-2 4.2-1.9 1.2-2.5 2.5-2.5 5.1 0 1.9-.5 4-1 4.7-.6.7-1.4 4.4-1.7 8.2-1.3 13.5-1.5 15.1-2.4 21-.5 3.3-.5 6.4-.1 6.8.4.5.2 3-.5 5.7-1 3.7-1 5.8-.1 9.1.8 3 .8 4.3 0 4.6-.6.2-.9 2.3-.8 4.8.2 2.9-.2 5-1.2 5.9-.7.8-1.4 2.8-1.4 4.4 0 1.7-.6 3.3-1.2 3.6-.9.3-.6 1.1 1.1 2.5 2.2 2 2.2 2.4 1.3 7.8-.8 4.7-.8 6.2.5 8.1 1.3 2.1 1.3 2.7-.1 5.7-.9 1.8-1.6 3.8-1.6 4.4 0 .6-.5 1.1-1.1 1.1-.6 0-.8-.9-.4-2 .5-1.5.3-1.8-.8-1.4-2.1.8-3-1.1-1.2-2.6 1.2-1 1.3-1.6.4-2.6-1.2-1.5-3-1.9-2.7-.7.1.5-.5 2.2-1.4 3.9-.9 1.7-1.5 4-1.2 5.1.3 1.1-.1 2.5-1 3.2-2.1 1.7-2.1 7.1-.1 7.1.9 0 1.2.6.9 1.5-.4.8-1.2 1.5-2 1.5s-1.4.7-1.4 1.5-.4 1.5-.9 1.5-1.1.9-1.4 2c-.3 1.3 0 2 .8 2s1.5-.8 1.7-1.8c.3-1.5.4-1.5 1-.1.4.9 0 2.9-.8 4.5-.8 1.5-1.3 3.3-1 4 .3.7 0 1.5-.7 1.7-.9.3-.9.8 0 1.8 1.6 1.7 1.6 2.7.1 2.5-.7 0-1.3.1-1.3.4 0 .3-.8 1.8-1.7 3.2-1 1.5-1.5 3.3-1.2 4.1.3.8-.2 1.7-1 2-2 .8-4.9 6.4-3.6 7.2 1.2.7-5.8 8-8.7 8.9-1.5.5-2 1.2-1.6 2.3.5 1.2.3 1.4-.7.8-1-.6-1.2-.3-.8 1.3.4 1.4-.4 3.1-2.8 5.6-1.9 2-3.4 4.2-3.4 4.9 0 .8-1.2 1.9-2.6 2.6-1.9.8-2.5 1.7-2.1 3.2.3 1.2 0 2.2-.8 2.5-.7.3-1.7 2.4-2 4.5-.4 2.2-1.3 4.3-2 4.5-.7.3-1.6 1.3-1.9 2.2C48.3 765.7 39.2 776 37 776c-.5 0-1.2 1.1-1.6 2.4-.3 1.4-1.2 2.7-2 3-.8.3-1.4 1.2-1.4 2.1 0 1.3-1.7 2-4.1 1.7-.4-.1-.9 1.2-1.3 2.8-.3 2-1.2 3-2.3 3-1 0-2.4.9-3.1 2.1-.9 1.4-2 1.9-3.3 1.6-1-.3-1.9-.1-1.9.3 0 .5-1 1.2-2.2 1.6-1.2.3-3.7 1.3-5.7 2.2-4 1.8-4.5 1.9-6.6 2.1C.2 801 0 803.6 0 818v17l2.8-.6c1.5-.3 3.5-.8 4.4-1 1-.3 1.9.3 2.3 1.6.8 2.5-.2 4-1.4 2.1-.6-.9-1-.7-1.4.8-.3 1.2-1.9 2.6-3.6 3.2L0 842.2V1185h230c183.3 0 230-.3 230-1.3 0-.6-1.3-2.1-2.9-3.2-1.6-1-2.8-2.2-2.5-2.6.2-.4-2.3-3.3-5.7-6.5-3.3-3.3-6.7-7.2-7.5-8.7-.8-1.5-1.9-2.5-2.4-2.2-.6.4-1 .2-1-.4 0-1.8-4.9-6.3-6-5.6-.6.4-1.8-1-2.8-3.4-1-2.4-2.4-4.1-3.3-4.1-2.4 0-2.9-3.3-1.2-6.8 1.3-2.7 1.8-2.9 3.4-1.9 1.2.8 2.7.8 4.6.1 2.3-.7 2.9-1.6 3.1-4.5.3-3.3.5-3.6 3-3.1 1.5.2 3.2.9 3.7 1.6 1.6 1.8 7.8 1.4 10-.7 2-1.8 2-1.8 2.3.7.2 1.6 1 2.6 2 2.6s1.3.3.7.8c-1.7 1.2-1.7 4.9 0 5.6.9.3 1.4.2 1-.3-.3-.5-.1-2.1.5-3.5.8-2.2.6-2.8-1-3.8-2.3-1.5-2.6-2.8-.6-2.8.8 0 1.6-.7 1.9-1.4.4-1 .1-1.3-.7-1-.8.3-1.6-.4-2-1.8-1-3.8-.7-4 1.9-1.2 1.4 1.5 2.5 3.3 2.5 4 0 .8.5 1.4 1 1.4.6 0 1-.5 1-1 0-.6.5-1 1.1-1 .6 0 .9.9.6 2-.6 2.4 1.2 3.8 2.4 1.9.7-1.1.9-1.1.9.2 0 .9.8 2.6 1.9 3.7 1.8 2.2 1.8 2.2 3.6.2 1-1.1 2.2-2 2.7-2 1.1 0-.1 4.4-1.3 4.8-1.5.6.1 2.2 2.1 2.2 1.3 0 1.7.5 1.4 1.5-.8 2 1.5 1.9 3.7-.1 1.4-1.2 1.8-1.3 2.5-.2.4.7.4 1 0 .7-1.1-1-5.4 3.3-4.9 4.8.7 1.8 2.3 1.6 2.3-.2 0-.8.3-1.4.8-1.4 2 .3 3.2-.3 3.2-1.7 0-.8.4-1.3.9-1 .5.4 1.1 0 1.4-.6.2-.7.8-.9 1.3-.5.4.4-.5 1.8-2 3.1-2.4 1.9-2.7 2.6-1.8 4.2.9 1.5 1.1 1.6 1.2.3 0-.9 1-2.1 2.3-2.6 2-1 2.3-.8 2.3 1-.1 2.7 2.1 3.3 2.9.8.7-2.4 2.5-2.8 2.5-.6 0 .8.7 1.5 1.5 1.5s1.5.7 1.5 1.5c0 2 2 1.9 3.6-.3 1.3-1.6 1.3-1.6 1.4.3 0 1.6.2 1.7.9.6.6-.9 1.6-1.1 2.7-.7 1.8.7 1.8.8.2 2-1 .7-1.8 2.1-1.8 3 0 2.3 3.1 2 3.7-.5.4-1.6 1.2-1.9 3.7-1.7 1.7.2 2.9.7 2.7 1.3-.1.5-.8.9-1.3.7-1.8-.5-4.6.8-5.2 2.4-.3.8-.2 1.2.4.9.6-.3 1 .4 1 1.7 0 1.7.3 1.9.9.9.5-.7 2.3-1.5 4-1.7 2.8-.3 3.1-.1 3.2 2.4.1 1.5.1 3 0 3.4-.3 1.9 1.7.6 2.3-1.5l.6-2.2 1.5 2.2c1.9 2.7 5.5 2 5.5-1 0-1.6.3-1.8 1.2-.9.8.8.8 1.5-.3 2.8-1.1 1.3-1.1 1.8-.1 2.1.6.3.9.9.6 1.5-.4.6.1.8 1.2.5 1.1-.3 3.6-.9 5.7-1.3 2.9-.5 3.5-.9 2.5-1.6-1-.7-.8-.8.5-.4 1 .3 2.3.6 2.8.6.6 0 .5.9-.1 2.1-1.7 3.1-.5 3.4 2.1.6 4.8-4.9 12.8-5.5 12.9-.9.1 1.8 2.2 5.2 3.3 5.2.4 0 .4-1.4 0-3-.3-1.9-.1-3 .6-3 .6 0 1.2 1.1 1.2 2.5.2 3.9.3 4.3 1.5 5.5.8.8 1.5.8 2.5-.2.8-.7 4.3-1.5 7.9-1.6 6.4-.4 8.7-1.1 6.3-1.9-2.2-.8-1.4-2.5.7-1.8 1.5.5 1.8.3 1.4-.9-.8-2-.4-2 5.7 0 2.8.9 5.3 2.3 5.6 3 1 2.6 4.1 1.6 4.5-1.4.2-1.9.8-2.7 2.1-2.6 1 .1 2.6-1 3.5-2.5.9-1.4 2.4-3.1 3.2-3.8.8-.6 1.1-1.5.7-1.9-.4-.5-1.8.4-3.1 1.9l-2.3 2.7-2.7-2.4c-2.7-2.2-2.7-2.3-.7-2.9 1.2-.3 2.1-1.3 2.1-2.5 0-1.1.9-2.2 2-2.5 1.1-.3 2 0 2 .6 0 2.3 2-1.8 2-4.1 0-2 .4-2.2 2.3-1.6 1.2.4 3.6.6 5.3.5 2.5-.1 3.2.2 3 1.6-.1 1.2.7 1.9 2.3 2.1 1.9.3 2.2 0 1.7-1.3-.5-1.3-.1-1.5 1.7-1.1 1.2.3 1.6.3 1 0-2.3-1-1.3-2.5 1.2-1.8 1.8.4 2.5.2 2.5-.9 0-1.9 3.6-2.8 6.7-1.6 4 1.5 5.6 1.1 5-1.1-.3-1.1-.2-2 .2-2 .3 0 .5-1.7.3-3.8-.4-3.7 1.9-7.4 3.5-5.8.4.4.1 1.1-.6 1.5-1.1.7-1.1.9 0 1.3 1.2.4 1.2.8.1 2-1.5 1.9-.2 3.1 2.2 2.2 1.8-.7 3.1-4 2.7-7.1-.1-1.4.5-2.3 1.8-2.8 1.1-.3 2.8-1.9 3.7-3.5 1.3-2.1 2.6-2.9 5.4-3.2 3.9-.3 4.5.7 2.1 3.6-.7.8-1 1.9-.8 2.3.8 1.3-2.1 4.6-3.6 4-.7-.3-2.4.1-3.6.8-2.7 1.4-1.5 2.7 2.7 3.1 3.1.4 3.1.4 3.4 4.5.2 2.7 0 3.3-1.4 3.1-1.2-.2-1.5.3-1.1 1.8.6 2.3 0 2.5-2.9.9-1.7-.9-1.9-.8-1.4.9.4 1.1.2 2.4-.5 2.7-1.6 1.1-8.9 1.3-9.5.3-.3-.4.4-.8 1.6-.8 1.2 0 1.9-.4 1.6-.9-.4-.5-1.4-.8-2.4-.6-.9.1-2.3-.2-2.9-.8-.9-.6-1.3-.6-1.3.2 0 .6-.7 1.1-1.5 1.1-1.7 0-2 1.6-.4 2.5 2.1 1.3 2.8 5.2 1.6 9-.9 3-1.5 3.6-3.3 3.2-1.6-.3-2.1 0-1.7 1 .3.9 1.4 1.3 2.5 1 1.2-.4 1.8-.1 1.5.6-.2.7-1.2 1.2-2.3 1.3-1 .1-2.7.5-3.8.9-1.2.5-2.1.3-2.7-.6-.6-.9-.8-.3-.5 1.8.2 2.3-.1 3.3-1 3.3-1.7 0-1.9-4.3-.3-7.2 1-1.8.8-1.9-1.3-1.3-2.3.8-2.3.7-.5-1.3 1.4-1.5 1.6-2.5.9-3.8-.7-1.3-.6-2.2.4-3.2 1.9-1.8 1.8-5.2-.1-5.2-1.8 0-2 1.7-.3 2.2.9.3.9.6 0 1.2-.7.4-1.2.2-1.2-.3 0-2.2-2-1-2.1 1.1v2.3l-1.1-2.3c-.6-1.2-1.7-2.2-2.3-2.2-.7 0-2 1-2.9 2.2-1.5 2.3-1.6 2.3-3.1.4-1.5-2-1.5-2-3 0-1.7 2.3-1.7 2.5-.5 4.4.8 1.2 1 1.1 1-.8 0-1.3.6-2.2 1.5-2.2 1.1 0 1.3.8.9 3-.5 2.4-.3 3 1.1 3 1.2 0 1.6-.6 1.2-1.9-.7-2.8.7-4.5 2.8-3.4 1.2.7 1.4 1.2.6 1.8-.9.5-.9 1 0 2.1.8 1 .8 1.4 0 1.4-.6 0-1.1 1.1-1.1 2.5 0 2.5 2.3 3.5 3.5 1.5 1.3-2.1 2.6-.8 2.3 2.5-.2 3.3-2.8 5.3-2.8 2.1 0-.7-1.2-1.6-2.6-1.9-1.9-.3-2.4-.1-2 1 .3.8.6 2.4.6 3.6 0 1.6.3 1.8.9.9.6-1 1-.8 1.4.8.6 2.3 2.7 1.9 2.7-.6 0-1.2.3-1.2 2-.2 1.1.7 2 2 2 2.8 0 1.1-.2 1.2-.8.2-.6-.9-1.4-.6-3.2 1l-2.5 2.3 2.9.3c1.6.2 3.2-.2 3.6-.8.7-1.1 3-2.6 6.8-4.6 1.3-.7 4.2 1.2 4.2 2.8 0 .5-.6.8-1.2.7-.7-.1-2.6-.1-4.3.1-2.6.1-2.7.3-1 1 1.1.5 16.8.9 34.8.9l32.8.1 2.3-2.5c1.3-1.4 2.8-2.5 3.5-2.5 1.4 0 1.4.6.1 3.1-1.1 1.9 1.9 1.9 237 1.9 158.5 0 237.9-.3 237.5-1-.3-.6-1.7-1-3-1s-2.7-.5-3.1-1.1c-.3-.6-1.7-.9-3-.6-1.4.2-2.7 0-3-.4-.6-1-7.2-3.9-8.2-3.7-.4.1-3-.2-5.9-.6-6.7-1-9.9-4.1-8.2-7.9.8-1.8 2.1-2.7 4.3-2.9 3.6-.3 3.8-2 .4-2.9-3.4-.8-5.8.1-5.8 2.2 0 1.1-.7 1.9-1.5 1.9s-1.5-.9-1.5-1.9c0-1.1-.2-2.5-.5-3.3-.9-2.3 5-4.1 11.8-3.5 7.4.7 9.6 1.4 12 4.1 1 1.2 3.2 2.1 4.9 2.2 1.8.1 3.7.9 4.5 2 .7 1.1 2.8 3.4 4.5 5.2 1.8 1.9 3.3 4.1 3.3 5 0 .8.6 1.7 1.3 1.9 1.6.6 1.6-6.7 0-10.3-1-2.2-1-2.8 0-3.2 1.8-.6.4-2.2-1.8-2.2-1.7 0-7.4-2.7-10.5-4.9-1.2-.9-9-3.7-13-4.6-1.6-.4-7.3-1.1-12.5-1.6s-10.2-1-11-1c-.8-.1-2.2 0-3 .2-1.2.3-1.5-.8-1.5-5.9 0-3.4.4-6.2.9-6.2s.3-.7-.4-1.5-1.6-1.2-2.1-1c-.4.3-1.1 0-1.6-.7-1.8-2.9-4.2-4.1-5.7-2.9-1.2 1-1.7.8-2.5-.8-.6-1.1-1.1-2.5-1.1-3.1 0-.6-.9-2.3-1.9-3.8-1.1-1.5-2.2-4.2-2.6-6-.6-2.7-.4-3.2 1.3-3.2 1.1 0 2.5-.7 3.2-1.5.7-.8 1.9-1.5 2.6-1.5.8 0 1.4-.4 1.4-1 0-1.6-4.6-2.3-7-1-1.7.9-2.6.8-4.6-.5-1.3-.8-2.4-2.1-2.4-2.9 0-2.4-3.1-7.6-5.3-8.7-2.5-1.3-5.7-4.9-5.7-6.4 0-.6.4-.5.8.2s1.3.9 2.1.4c2-1.3.4-3-2.1-2.3-1.4.3-1.9.1-1.4-.6.3-.6-.1-1.7-.9-2.5-.8-.9-1.5-2.3-1.5-3.2 0-.8-1.1-2.1-2.5-2.7-2.6-1.2-3.3-3.2-1.4-4.4 2.3-1.4 10.3-1.3 11.9.1.8.7 1.8 1.4 2.2 1.5 2.5.3 7 2.3 16.8 7.5 6 3.2 7 4.4 6 6.9-.4 1.2-.7 4.4-.6 7.2 0 2.7-.4 6.5-1.1 8.4-.8 2.4-.8 3.9-.1 4.7 1.3 1.7 1.8 1.6 6.4-.3l3.9-1.7-3.5-1.2c-3.2-1.1-3.5-1.5-3.8-5.8-.2-2.5.3-5.7 1-6.9.6-1.3 1.2-3 1.3-3.8 0-.9 1.1-1.6 2.8-1.8 3.1-.4 3.5-1.9 1-3.7-1.3-1-1.8-3.2-2.1-8.9-.3-5.4-.8-7.6-1.7-7.6-1 0-1.2 1.3-.8 5.4.6 5.9-1 8.5-2.7 4.2-.5-1.4-1.4-2.6-2-2.6-.6 0-.9-.4-.5-.9.3-.5-.8-.3-2.5.5-3.2 1.6-5.7 1.2-10-1.5-1.4-.9-3.4-2.2-4.5-2.8-1.1-.6-1.9-1.6-1.7-2.3.4-1.7-2.1-4.5-3.9-4.5-1.7 0-8.9-8.6-8.9-10.6 0-.6-.6-.9-1.2-.7-2 .7-3.8-1.8-3.8-5 0-1.8-1.3-4.5-3.5-7.3-3.7-4.6-9.5-16-9.5-18.6 0-1.1-.7-1.4-2.3-1.1-2 .4-2.3 0-2.4-3.6 0-2.3-.3-5.2-.4-6.6-.3-2.1 0-2.6 2.4-2.8 2.6-.3 2.7-.1 2.1 2.3-.6 2.4-.4 2.6 1.5 2 1.7-.5 2.3-.1 3.2 2.1.5 1.6.8 3.8.5 5-.4 1.3-.2 2.6.4 2.9.5.3 1 1.5 1 2.6 0 1 .5 1.9 1.1 1.9.6 0 .9.9.6 2-.5 1.9 1.4 4.5 2.6 3.4 1.4-1.4 4.7 1 6.5 4.9 1.7 3.5 2.1 3.9 2.8 2.3.4-1 .2-2.1-.3-2.5-1.2-.7-2.3-6.1-1.3-6.1.4 0 2.1 1.5 3.8 3.2 1.7 1.8 7.4 7.6 12.7 12.8 5.2 5.2 9.5 9.9 9.5 10.5 0 .6.9 3 2 5.3 1.1 2.2 2 5.3 2 6.7 0 2 .4 2.6 1.8 2.3.9-.2 1.7-1 1.7-1.8s.8-1.8 1.8-2.2c1.2-.5 1.6-1.4 1.2-3.1-.4-1.3-.7-3-.8-3.8-.2-.8-2.3-3.4-4.9-5.8-2.5-2.5-4.4-5-4.1-5.6.2-.7-1-2.4-2.6-3.8-1.7-1.4-3.1-2.9-3.1-3.4 0-.4-1.9-2.4-4.2-4.2-2.4-1.9-7.7-7.3-11.8-11.9-4.1-4.7-9.2-10.2-11.2-12.4-2.1-2.1-3.8-4.3-3.8-4.8s-4-5-9-10.1c-4.9-5-9-9.4-9-9.7 0-1.7-4.8-7.2-6.2-7.2-1.8 0-2.2-1.4-1.8-7.5 0-1.8-.9-4.5-2.3-6.6-1.3-1.9-4.1-7.1-6.2-11.4-2.1-4.4-4.6-9.2-5.6-10.6-2.3-3.2-5.3-15.5-4.2-17.2.4-.7.6-2.2.4-3.5-.1-1.2.2-2.2.7-2.2.5 0 1-2.5 1.1-5.6.1-3.6-.2-5.3-.9-4.9-.5.3-1 1.8-1 3.3 0 4.5-2.6 11.7-4.3 12-1.9.4-2.5-2.5-3.1-13.8-.3-4.1-.5-7.5-.6-7.5-.1 0-.2-2.5-.4-5.5s-.9-10.6-1.6-16.9c-1.2-11.7-.3-24.9 2.1-27.7.5-.6 1.2-2.6 1.4-4.4.4-3.7 3-11.8 5.3-17 .9-1.9 1.5-3.9 1.4-4.3-.2-.8 1.7-5.6 4.6-11.6.9-1.9 1.8-4.5 1.9-5.8.1-1.2 2-7.6 4.3-14 2.3-6.5 4.4-12.7 4.6-13.8.3-1.1.9-3.6 1.4-5.5 2.8-10.8 4.9-22.6 5.5-30.5.4-5 1.3-13 2.1-17.9 1.1-6.4 1.4-12.9 1-23-1.1-26.2-1.6-36.1-2.2-39.1-.7-3.1-4.2-28.6-4.8-34.5-.2-1.9-.7-5-1.1-6.8-.4-1.9-.9-4.3-1-5.5-1.3-7.5-3.7-18.5-4.5-20.2-1-2.2-3.4-14-5.1-25-.6-3.9-1.4-7.5-1.8-8-.4-.6-1.3-5.1-2-10-.7-5-2-12.8-2.9-17.5-1.5-8.4-1.6-9.6-1.3-17.5.3-6.5.2-8.6-1-12.7-.5-2.1-1.2-5.6-1.4-7.6-.4-3.7-1.7-11.2-3.7-21.2-1.2-6.4-3.6-15.5-4.9-18.9-.5-1.2-1.2-5-1.6-8.2-.3-3.2-1-5.9-1.4-5.9-.5 0-.9-1.3-.9-2.8 0-1.6-.7-4.3-1.6-6.1-1.4-2.8-2-3.1-4.4-2.6-2.6.6-3 .3-3.9-3.2-.6-2.1-1.1-4.3-1.1-5 0-.6-.7-1.9-1.6-2.7-.8-.9-1.7-3-1.9-4.8-.3-1.7-.8-3.4-1.2-3.7-.5-.3-.9-3.3-1.1-6.6-.1-3.3-.8-6.4-1.5-7-1.1-.9-1.5-2.5-1.8-8.3-.1-1.2-.7-2.2-1.4-2.2-.8 0-1.1-1.5-.8-4.8.3-5.1-.8-8.6-6.5-20.1-2-4.1-3.8-8.4-3.9-9.6-.3-4.2-4.4-15.3-5.9-15.9-.8-.3-1.4-1.6-1.4-3s-.4-2.7-.9-3c-.5-.3-.7-1.4-.4-2.4.2-1-.3-2.4-1.1-3.1-.9-.8-1.6-2.2-1.6-3.1 0-2.7-5.4-13.8-7.9-16.3-.6-.6-1.1-1.9-1.1-2.9s-.4-1.8-1-1.8c-.5 0-1-.9-1-2.1 0-1.2-2-6.4-4.5-11.6-2.5-5.2-4.5-10.1-4.5-10.9 0-1.7-6.9-15.2-8.2-16-.4-.3-.8-1.3-.8-2.4 0-1-.7-2.1-1.6-2.4-1-.4-1.3-1.3-.9-2.5s0-2.3-.9-2.8-1.6-2.5-1.7-4.8c-.3-4.2-2.7-12-5.3-17-.9-1.7-1.6-3.6-1.6-4.3 0-2.2-3.7-8.6-6.4-11.1-1.4-1.4-2.6-3.1-2.6-3.8 0-2.3-4.9-8-10.3-12-9.9-7.4-14.2-10.3-15.4-10.3-.6 0-3.9-2.5-7.1-5.5-3.3-3-6.3-5.5-6.7-5.5-1.8 0-17.1-17.8-24.1-28-2-3-4.3-5.9-5.1-6.3-.7-.4-1.9-2-2.7-3.5-.8-1.5-3.1-4.3-5.1-6.2-2-1.9-7.4-7.1-11.9-11.5-4.6-4.4-10.4-9.9-12.9-12.3-2.6-2.3-4.7-4.4-4.7-4.6 0-1.2-10.2-15.6-11-15.6-.5 0-1.3-1.1-1.6-2.6-.7-2.9-13.9-14.4-16.5-14.4-1 0-2.1-.4-2.4-1-.3-.5-3.5-2.6-7.1-4.6-5.6-3.1-8-3.8-15.7-4.6-7-.7-10.6-1.6-14.8-3.8-3.1-1.6-7.8-3.5-10.5-4.1-2.7-.7-6.2-2-7.9-3-1.6-.9-4.8-2-7-2.4-2.2-.4-4.6-1.1-5.2-1.7-1.3-1-3.1-1.1-25.1-1-12 .1-16.2-.8-16.2-3.3 0-.8-.4-2.3-1-3.3-.5-.9-1.4-3-2-4.5-1.4-3.9-7.7-6.4-16-6.5-3.6 0-7.6.3-9 .8zM331.7 141.6c-.9.9-2.8-.6-2.1-1.8.4-.6 1-.6 1.7.1.6.6.8 1.3.4 1.7zm273 36.4c.6 2.3 2.3 2.7 2.3.5 0-.8.7-1.5 1.5-1.5s1.5.4 1.5.9c0 .6.8.9 1.8.9.9-.1 2.9.2 4.5.5 1.6.5 2.7.3 2.7-.3 0-.5.7-1 1.6-1 1.2 0 1.5.6 1 2.5-.4 1.4-.2 2.5.4 2.5.5 0 1-.4 1-1 0-.5 1.2-1.6 2.8-2.3 2.2-1.1 3.1-1.2 5.2-.1 1.4.8 3.4 1.1 4.5.8 1.1-.4 1.7-.3 1.3.1-1 1 3.5 4.5 5.9 4.6 1.6 0 1.6.1-.2.9-1.8.7-1.8.9 1 2 3.5 1.4 7.9 1.6 11.5.5l2.5-.8-2 2c-1.2 1.1-2.7 2.2-3.5 2.5-.8.3.7.5 3.4.4 3.1-.1 5 .4 5.3 1.2.4.9-.1 1-2.1.2-1.7-.6-2.6-.6-2.6 0s.9 1 2 1c1.3 0 2.4 1 3 2.5.5 1.4 1.6 2.5 2.5 2.5.8 0 2.1-1.1 2.7-2.5 1.2-2.7 4.5-3.4 6.6-1.3.9.9 1.2.9 1.2 0 0-.7.5-1.2 1-1.2 1.7 0 5.5 4.4 5.1 6-.1.8.6.3 1.7-1 1.7-2.2 2.8-2.5 7.7-2.4 3.7 0 6 .5 6.6 1.5.8 1.2 1 1.2 1.8-.1.5-.8.7-1.8.5-2.2-1.3-2.1 1.5-.5 3.6 2.2 1.4 1.6 3.1 2.9 3.9 3 .7 0 1.1.6.7 1.5-.3 1 .1 1.5 1.2 1.6.9.1 2.2.2 2.7.4.6.1 1.8.3 2.8.3 1.3.2 1.6.8 1.1 2.7-.4 1.6-.2 2.5.6 2.5.7 0 1-.7.6-1.5-.8-2.2.2-1.9 4.5 1.6 4.1 3.2 4.6 3.1 2.8-.3-.9-1.6-.8-1.9.3-1.6.7.3 1.5 1.8 1.8 3.4l.6 2.9.8-2.5c.4-1.5.9-2 1.3-1.3.2.7 1.3 1.3 2.4 1.3 1.5 0 1.9.7 1.9 3.6 0 2.2-.4 3.3-1.1 2.9-.6-.4-.8-1.3-.5-2.1.4-1-.3-1.4-2.4-1.4s-3 .5-3 1.6.6 1.3 1.9.9c1.6-.5 1.8-.2 1.4 1.5-.7 2.8 1.2 2.5 4.3-.5 2.8-2.8 3.9-3.2 3.1-1-.4.8-.2 1.7.3 2 .6.4 1 0 1.1-.7 0-1 .2-1 .6-.1.2.7.9 1.3 1.4 1.3 1.7 0 6.8 4.3 6.3 5.2-.3.4.2 1.1 1.1 1.4 1.2.5 1.3 1 .4 2-.8 1-.5 1.5 1.5 2 1.4.3 3.2.4 4 .1 1-.4 1.2 0 .9 1.4-.6 2.3 2.5 2.7 3.3.4.7-1.7 3.4-2.1 3.4-.5 0 .6-.8 1.4-1.7 1.7-1 .4-2.3 1.4-3 2.2-.6.9-1.3 1.4-1.5 1.1-.2-.3-.8-1.4-1.4-2.5-.6-1.1-2.1-1.9-3.2-1.9-2.7 0-3 1.8-.5 2.3 1 .2 2.4 1.2 3.1 2.3.9 1.3 2 1.7 3.5 1.3 1.2-.4 1.7-.3 1.1.2-.7.5-.2 2.1 1.9 4.8 1.9 2.6 2.7 3.2 2.2 1.7-.5-1.8-.3-2.2 1.6-2.2 1.8 0 2 .3 1.1 1.2-1.3 1.3.2 3.8 2.3 3.8.7 0 1.8 1.4 2.4 3.2.6 1.7 1.8 3.9 2.7 4.9 1.3 1.5 1.3 1.7-.1 2.2-.8.4-1.5 1.6-1.5 2.7 0 2.2 1.5 2.7 2.3.7.3-.6.6.5.6 2.6.1 3.2.4 3.7 1.7 2.9 1.2-.6 2.5.1 5.3 2.7 2 2 3.6 4.1 3.3 4.7-.2.7 1.3 1.5 3.2 1.8 2.1.4 3.6 1.3 3.6 2.1s.8 1.8 1.7 2.3c.9.6 1.8 2.4 1.9 4 .3 3.9 1.1 5.2 2.9 4.5 2.2-.8 4.4 1.4 5.1 5.3.3 1.9 1.4 3.9 2.3 4.5 1.2.7 1.3 1.2.4 1.5-2 .9-1.5 2.3.5 1.9 1.6-.3 1.8.2 1.4 2.3-.3 1.5-.9 3.2-1.4 3.9-.6.7-.5 2 .2 3.3.6 1.2.9 2.6.6 3.3-.2.7-.5.4-.5-.6-.1-2.2-2-2.1-5.1.3-2.1 1.6-2.2 2-.9 2.5 2 .8 1.8 2.9-.6 7.8-1.3 2.5-1.6 4.1-.9 4.5 1.9 1.3 2.3 4 .9 5.9-.9 1-1.4 1.3-1.5.5 0-.6-.6-1.2-1.4-1.2-.8 0-1.2.8-.9 2.3.3 1.4-.2 2.9-1.1 3.6-1.8 1.5-2.1 4.8-.6 5.3.6.2 1.2 1.3 1.3 2.6 0 1.2.5 2.2.9 2.2.5 0 .1 1.1-.8 2.5-1.6 2.4-1.5 2.5.7 3.4 2.1.9 1.9 1-1.8 1-2.5.1-4.3-.4-4.6-1.2-.8-2.4-3.7 1.3-3.1 3.9.5 1.9.1 2.6-2.2 3.5-2.6.9-2.7 1.2-1.2 2.3 1.6 1.1 1.6 1.5.2 3.4-1 1.4-2.6 2.2-4.5 2.2-3.3 0-3.5.6-1.4 3.7 1.3 1.8 1.3 2.2-.1 3.4-1.4 1.2-1.4 1.4.3 2.6 1 .8 1.8 2.6 1.8 4.1 0 1.5.5 2.7 1 2.8 1.5.1 6.5 2.3 6.5 2.8 0 .2-.9.2-2-.1-1.1-.3-2 0-2 .6 0 2 2.9 2.4 5.5.7 1.3-.9 3.2-1.6 4.2-1.6 1.4 0 1.5.2.4.9-.7.5-1.1 1.5-.9 2.2.3.8.2 2.4-.3 3.6-.5 1.4-.4 2.3.5 2.6 1.4.6 4 6.7 2.8 6.7-.4 0-.7 2.8-.7 6.3.1 3.4-.3 6.8-.8 7.5-.7.9-.5 1.1.7.6 1-.4 1.8 0 2.3 1.2.4 1 .2 1.9-.5 2.2-.7.2-1.2 1.6-1.2 3 0 1.5-.5 3.4-1 4.2-.8 1.3-1.2 1.3-2.7-.3-1.7-1.7-1.7-1.8 0-1.1 1.2.4 1.7.1 1.7-1 0-1.9-1.3-2-4.2-.5-1.6.9-2.3.8-2.9-.2-1.3-2-3 .9-2.3 3.6.4 1.4.3 1.6-.4.7-.8-1.1-1.3-1.2-3-.1-1.7 1-2.3 1-3.6 0-.9-.8-1.6-1.9-1.6-2.6 0-.7-.9-1.5-1.9-1.8-2.6-.6-7.2.3-6.5 1.4.3.5 0 .9-.7.9-.6 0-.9-.8-.6-2 .4-1.7 0-2-2.8-2-1.9 0-3.7.5-4 1-1.3 2-10.1 5.4-14 5.3-2.2-.1-5.3-.2-6.9-.2-1.5 0-3.5-.6-4.4-1.3-.9-.8-4.2-1.3-7.9-1.3-5.7 0-6.3.2-5.9 1.8.4 1.6.1 1.8-1.7 1.2-3.3-1.1-18.1-3.3-18.9-2.9-.3.2-.8-.2-1.1-.8-.3-1-.9-1-2.9.1-2.4 1.2-3.8 1.2-11.2-.1-1.3-.2-2.4.6-3.2 2.1-1.5 2.8-4.4 4.7-5.3 3.5-1.2-1.7-8.2-1-9.2.8-.6 1-1.6 1.8-2.3 1.8-1.7 0-8.1 6.8-7.2 7.7.3.4-1.2 1.3-3.6 2-2.9.8-4.4.9-4.9.2-.4-.7-2.1.2-4.3 2.1-2 1.8-3.4 3.6-3.1 4 .3.5-.2 1.5-1 2.3-1.9 1.9-2 5.7-.2 5.7.8 0 1.9 1.1 2.5 2.5 1.6 3.4 1.5 4.5-.2 4.5-1.9 0-2.7 2.5-1.3 3.9.9 1 .7 1.6-.8 2.7-1.8 1.3-2 1.3-2.3 0-.8-3.7-3.6.5-3.2 4.6.1 1.3-.6 1.8-2.4 1.8-1.6 0-2.6.6-2.6 1.4 0 .8-.7 1.6-1.5 2-2.2.8-1.8 4.3.4 4.9 1.1.3 2.2.2 2.5-.1 1-.9.7-3.4-.3-2.7-.5.3-1.2.1-1.5-.4-.4-.5-.2-1.2.4-1.6 1.4-.9 4.9 5.3 4.3 7.6-.3 1-1 1.6-1.6 1.2-.6-.4-2.2-.8-3.6-.9-1.8-.2-2.1 0-1.2.9 1.5 1.5 1.4 2.7-.3 2.7-2.1 0-.7 4.2 1.6 4.7 4.7 1.3-.5 2.2-7.6 1.4-.4-.1.2-1 1.5-2.1l2.4-2-3 .4c-1.6.2-2.5.2-1.9-.1 1.9-.7 4-11.8 2.5-12.8-.5-.3-.7.4-.4 1.5.4 1.5 0 2-1.4 2-1.5 0-1.9.7-1.9 3.5.1 1.9-.3 3.5-.9 3.4-.5 0-.8-.8-.7-1.7.2-.9-.3-2.1-1.1-2.7-.9-.6-1.7-2.7-1.9-4.6-.2-2.5-.7-3.3-2-3.1-1.2.2-1.5-.3-1.1-2 .4-1.3 1.1-2.7 1.7-3.1.7-.6.4-.7-.6-.3-1.5.5-1.8-.1-1.8-4 0-3.7-.4-4.7-2-5.1-1.4-.4-2-1.4-2-3.4 0-1.6-.4-2.9-.8-2.9-.5 0-.8-2.4-.7-5.3.1-4.5-.3-5.6-2.7-8.1-2.7-2.7-2.8-2.9-1.2-4.7 1.4-1.5 1.4-2.1.4-3.4-.7-.9-2.1-1.3-3.1-1-1.2.4-1.9.1-2-.7-.2-1.8-.1-2.1.6-4 .5-1.3-.2-1.7-3.4-2.3-2.1-.3-4.2-1.3-4.5-2.2-.4-1-1.5-1.4-3.5-1.1-2.3.3-2.8.1-2.3-1.1.3-.9.2-1.3-.3-.9-.4.4-1.4 0-2.1-1-.9-1.3-.9-1.9-.1-2.4s.6-.8-.6-.8c-1 0-1.5-.5-1.2-1 .4-.6.2-1.7-.5-2.4-.8-1.1-.5-3.3 1.2-9 2.1-7.2 2-10.2-.3-7.9-.8.8-2 .8-4.2.1-2.4-.9-3.2-.8-4.1.5-.6.8-1.8 2.5-2.6 3.6-.8 1.2-1.7 2.1-2.1 2.1-1 0-2.7-4.5-3.4-9.4-.8-4.9-3-6.2-5.5-3.1-1.8 2.1-5.6 1.5-5.2-.8.2-1.1-.4-1.7-1.8-1.7-1.1 0-2-.5-2-1 0-.6-.7-1-1.5-1s-1.5.9-1.5 2-.4 2-1 2c-.5 0-1 .7-1 1.5s-.5 1.5-1 1.5c-.6 0-.8-1.1-.4-2.5.4-1.5.2-2.5-.5-2.5-.6 0-.8.7-.5 1.5.4.8.3 1.5 0 1.5-1.1 0-5.5-5.4-5.6-6.6 0-1.8-5-4.6-6.7-4-1.7.7-4.6-1.2-3.8-2.4.3-.5.1-1.1-.5-1.5-.5-.3-1 .1-1 .9 0 .9-.9 1.6-2 1.6-1.3 0-2 .7-2 2 0 1.1-.4 2-1 2-.5 0-1-1.8-1-4 0-3.9-.1-4-2.7-3.4-2 .5-2.5.3-1.8-.4 1.3-1.4 6.7-2.4 6-1.1-.4.5.1.9.9.9.9 0 1.6-.7 1.6-1.5s-.7-1.5-1.5-1.5-1.5-.5-1.5-1c0-.6-.9-1-2-1s-2 .6-2 1.3c0 .8-1.4 1.1-4.6.8-4.8-.3-4.9-1.9-.1-2.3 1.5-.1 2.7-.8 2.7-1.6 0-.7-.5-1-1.1-.7-1.4.9-6.1-.3-5.5-1.4.3-.5-.5-1.1-1.9-1.3-2.9-.6-3.3.6-.7 2.1 1.3.7 1.4 1.3.6 2.1-1.5 1.5-5.6-4-5.8-7.6 0-1.3-.4-2.4-.9-2.4-.4 0-2.1-1.2-3.7-2.7-2.7-2.4-2.9-2.8-1.5-4.3.8-.9 1.5-2.7 1.5-3.9v-2.2l2.2 2c1.1 1.1 2.6 1.7 3.2 1.3.7-.4.4-.8-.7-1-.9-.2-1.5-.8-1.1-1.3.3-.5 1-.7 1.5-.4.5.4 1.9.3 3 0 1.3-.4 1.7-1 1.1-1.4-.6-.4-1.2-2.3-1.4-4.4-.1-2.4-.6-3.6-1.4-3.3-.7.3-2-.1-3.1-.9-1.7-1.3-1.7-1.4 0-2 2-.8 2.3-3.5.5-5.3-.9-.9-.9-1.2 0-1.2.7 0 1.2.4 1.2 1 0 .5 1.2 1 2.6 1 2 0 2.5-.4 2.2-2.3-.2-1.2-1.1-3.1-2-4.1-2-2.2-2.2-3.2-.9-4 .4-.3.5-2.4.1-4.7-.6-3-.4-4.2.6-4.6 1.9-.7 1.8-2.9-.1-3.7-.8-.3-1.5-1.2-1.5-2.1 0-2 1-1.9 2.6.2 1.2 1.6 1.2 1.6.7-.5-.3-1.2-1-2.2-1.7-2.2-.6 0-1.7-.9-2.4-2-1.1-1.8-.9-2.1 1.3-3 1.4-.5 2.5-1.4 2.5-1.9 0-.6-.7-.7-1.7-.4-1.1.4-1.4.3-.9-.5.8-1.4-.6-4.5-2-4.2-.5.1-1-.3-1.2-.9-.2-.6.3-1.1 1.2-1.1 1 0 1.3-.6 1-1.5-.4-.8-1.2-1.5-2-1.5s-1.4-.7-1.4-1.5.4-1.5 1-1.5c.5 0 .9-1 .9-2.3-.1-1.2.2-3 .6-4 .8-1.9-.5-2.3-2.2-.6-1.4 1.4-3.8-2.5-2.7-4.3.4-.6-.4-1.9-1.7-2.9-1.3-1-1.8-1.9-1.1-1.9 1.4 0 1.7-2.7.2-3.2-1.8-.6 1.5-5.3 3.8-5.3 1.2 0 2.1-.5 2.1-1 0-.6-1.1-.9-2.4-.8l-2.4.2 1.9-3.4c1.6-2.9 2.8-7.9 3.2-13.3.1-.7.7-1.1 1.5-.8.7.3 1.2.2 1.2-.2-.3-1.9.3-2.3 1.7-1.1 1.4 1.1 1.8 1 3-.6 1.1-1.5 1.7-1.7 2.2-.7.7.9 1.4.9 3.5-.1 3.4-1.5 3.5-3.6.2-2.9-2 .3-2.4.1-1.9-1.2.3-.9 1.2-1.6 1.9-1.6.8 0 1.5-1 1.7-2.3.2-1.7 1.1-2.3 3.5-2.5 2.1-.2 3-.8 2.7-1.6-.5-1.2.6-1.6 5.2-1.8 2.7 0 4.8-3.8 3.9-6.9-.4-1.7-.3-2 .3-1 .7.9 1.2 1 1.6.2.4-.6 1.6-1.1 2.7-1.1 1 0 1.9-.5 1.9-1.1 0-.5.4-.7 1-.4.6.3.9-.4.8-1.9-.1-1.3-.5-2.3-.9-2-.9.5-2.3-1.5-1.6-2.2.9-.9 4.7 1.6 4.7 3 0 .8.7 1.9 1.5 2.6 1.2 1 1.5 1 1.5-.3 0-.9-.5-2.8-1.2-4.2-1-2.2-.9-2.8.3-3.5.8-.5 2.2-.7 3.2-.4.9.3 1.7.1 1.7-.5s-.6-1.1-1.2-1.1c-.9 0-.9-.3-.2-.8.6-.4 1.4-1.6 1.9-2.7.8-1.8.9-1.8 1.3.7.4 3.5 1.7 3.6 2 .2.4-4.5 5.2-7.2 5.2-2.8 0 1.9 1.6 1.8 2.4-.1.3-.8 1.5-1.5 2.6-1.5s2.8-.9 3.7-1.9c.9-1.1 2.2-1.7 2.9-1.4.8.3 1.4 0 1.4-.7 0-.6.5-.8 1.1-.5.6.4 1.7-.1 2.4-1.1 1.4-1.8 1.4-1.8 1.5.1l.1 2 1.1-2c1.2-2 1.4-2.5 1.6-5.8.1-1 .7-1.5 1.2-1.2.6.3 1 .2 1-.4 0-.6 1.1-1.3 2.5-1.7 1.4-.3 3-1.4 3.5-2.3.6-1 1.2-1.2 1.7-.5 1.2 1.5 10.3 1.4 10.3-.2 0-.7-.8-1.5-1.7-1.7-1.2-.3-1.2-.3.2-.2 1.1.1 2.7.5 3.5.7.8.3 1.2.3.8.1-.4-.3 0-1.2.9-2.1 1.2-1.3 1.7-1.4 2.1-.4.4 1.4 4.2-2.8 4.2-4.7 0-1.9 2.2-1.2 2.7.9zm59.4 17.7c-.8 1.5-1 1.5-1.1.2 0-1.7 1-3.2 1.8-2.5.2.3-.1 1.3-.7 2.3zm-134.9 23.8c0 .5-.5 1.1-1.1 1.3-.6.2-1.1-.4-1.1-1.3s.5-1.5 1.1-1.3c.6.2 1.1.8 1.1 1.3zM754 227c0 .5-.4 1-1 1-.5 0-1-.5-1-1 0-.6.5-1 1-1 .6 0 1 .4 1 1zm-268.7 52.5c-.3.9.1 1.5 1.1 1.5.9 0 1.6.5 1.6 1.1 0 .6-.7.8-1.6.5-.9-.3-1.8-.6-2-.6-.2 0-.4-1.2-.4-2.6 0-1.4.4-2.3 1-1.9.5.3.7 1.2.3 2zm4 5.2c-.7.2-1.9.2-2.5 0-.7-.3-.2-.5 1.2-.5s1.9.2 1.3.5zm2.1 3.8c-.7 1.6-2.4 2.1-2.4.6 0-.8.7-1.3 2.7-2 .1-.1 0 .6-.3 1.4zM493 323c0 .5-.2 1-.4 1-.3 0-.8-.5-1.1-1-.3-.6-.1-1 .4-1 .6 0 1.1.4 1.1 1zm-1.6 2.6c.9 2.4 0 2.9-1.9 1.1-1.9-1.9-1.9-2.7-.1-2.7.8 0 1.7.7 2 1.6zm5.6 1.5c0 .5-1 .9-2.1.9-1.8 0-1.9-.2-.9-1.5 1.2-1.5 3-1.2 3 .6zm303 .9c0 .5-.8 1-1.7 1-1.5 0-1.6-.2-.3-1 1.9-1.2 2-1.2 2 0zm-1 12.7c0 .5-.5 1.5-1 2.3-.8 1.2-1 1.1-1-.8 0-1.2.5-2.2 1-2.2.6 0 1 .3 1 .7zm-3 2.3c0 .5-.5 1-1.1 1-.5 0-.7-.5-.4-1 .3-.6.8-1 1.1-1 .2 0 .4.4.4 1zm-312.6 9.1c-3.1 1.2-3.9 1-1.9-.5 1.1-.8 2.4-1.2 2.9-.8.5.3.1.9-1 1.3zm9 .8c.4.5-.3.7-1.4.4-2.3-.6-2.6-1.3-.6-1.3.8 0 1.7.4 2 .9zm307 2.7c.9 2.4.7 2.8-.9 1.4-1.7-1.4-2-3-.6-3 .5 0 1.2.7 1.5 1.6zm0 4.2c.2.4-.4.8-1.4.8-1 0-1.6-.4-1.4-.8.3-.4.9-.8 1.4-.8.5 0 1.1.4 1.4.8zm-602.9 12.9c-.4 2-.8 6-1.1 8.9-.2 2.8-1.1 7.3-1.9 9.8-.9 2.6-1.7 6.5-1.8 8.6-.1 2.2-.5 4-.9 4s-.8.8-.8 1.8c0 .9-.9 2.3-2 3-1.1.7-2 2.1-2 3.2s-.6 2.9-1.2 4c-1 1.6-1 2.4 0 4 1.7 2.8 1.5 4.9-.3 2.6-.8-1.1-1.6-1.8-1.8-1.5-1.5 1.8-2.8 7.6-3.1 13.9-.3 7.5-.3 7.5-3.2 7.5-2.9 0-3.5.9-4.9 7.7-.4 2-.9 2.5-2.5 2.1-2.2-.6-2-3.2.6-8.6.7-1.5 1.1-3.4.8-4.1-.6-1.6.6-8.4 3.1-17.1.9-3.3 1.8-6.9 1.9-8 .4-4.2 3.7-14.6 6-19 .9-1.7 1.6-4 1.6-5.3 0-1.2.5-2.2 1-2.2.6 0 1-1 1-2.3 0-1.2.6-3.1 1.4-4.2.7-1.1 1.6-3.2 2-4.7.7-3 5.3-7.8 7.5-7.8 1 0 1.2.9.6 3.7zm589.3-1.5c-.3.7-1.3 1.5-2.4 1.7-1.6.3-1.7.1-.5-1.3 1.6-1.9 3.4-2.1 2.9-.4zm-600.9 1.2c-.2.2-1.5.7-2.9 1l-2.5.7 2.5-1.5c2.1-1.2 4.2-1.4 2.9-.2zm811.6 8.5c.3.5.1 1.2-.5 1.6-.5.3-1-.1-1-.9 0-1.8.6-2.1 1.5-.7zM180 382c0 .5-.4 1-1 1-.5 0-1-.5-1-1 0-.6.5-1 1-1 .6 0 1 .4 1 1zm607 6.1c0 .5-.7.9-1.5.9-1.5 0-2-1.2-.9-2.3.8-.8 2.4.1 2.4 1.4zm211.5.9c.3.5.2 1-.4 1-.5 0-1.3-.5-1.6-1-.3-.6-.2-1 .4-1 .5 0 1.3.4 1.6 1zm-826.6 4.2c-.2 2.4-.7 5.9-1.3 7.8-.6 1.9-1.1 4.4-1.1 5.5.1 1.1-.4 2.7-1.1 3.5-.7.8-2 6.9-2.9 13.5-.9 6.6-2.1 12.8-2.6 13.7-.5 1-.6 2.4-.3 3.3.4.9 0 1.5-1 1.5-1.1 0-1.5 1-1.5 4.2 0 2.4-.5 5.9-1 7.8-.6 1.9-1.1 5.3-1.1 7.6 0 2.2-.3 4.4-.7 4.8-.5.4-.9 3.3-1 6.4-.1 5.6-1.9 25.9-2.7 31.7-.4 3.2-2.1 11.9-3.7 19.6-.6 2.6-1.2 8.3-1.3 12.9-.2 5.3-.8 8.5-1.6 9-.9.6-1.3 3.3-1.2 8.8.1 7.1-.1 8.1-1.9 8.5-1.1.3-1.9 1.4-1.9 2.6 0 1.2-.4 2.1-.8 2.1-.5 0-1.7 3.7-2.6 8.2-1 4.6-2.4 9.6-3.2 11.1-.8 1.6-1.2 3.3-.8 3.8.3.5.1.9-.5.9s-2 3.3-3.2 7.2c-1.2 4-2.8 7.7-3.6 8.1-.7.5-1.1 1.2-.8 1.8.4.5-.5 1.3-1.8 1.8s-2.7 1.7-3 2.5c-.7 1.9.4 2.1 2.1.4.8-.8 1.5-.8 2.7.2 1.1.9 1.3 1.6.5 2.4-.5.5-1 2.3-1 3.8s-.3 2.8-.7 2.8c-1.4 0-4.2 6-3.7 7.5.4 1 0 1.5-1.3 1.5-2.2 0-4.3 1.8-3.9 3.4.2.6.1.8-.1.3-.8-1.3-2.3-.8-2.3.8 0 .8.4 1.5.9 1.5s1.1.9 1.4 2c.3 1.1.2 2-.3 2-1.3 0-1.9 4.1-1 6.6.9 2.2.7 2.4-2 2.4-3.9 0-4.2-.9-2.8-7.1 1.4-6.4 1.3-15.2-.1-15.7-.6-.2-1.1-.8-1.1-1.4 0-.7.5-.6 1.4.1 2.3 1.9 3-1.8 1.2-5.9-1.4-3.4 1.2-35.3 4.2-51.2.5-2.7 1.6-5.6 2.5-6.6 1.2-1.3 1.5-2.8 1.1-5-.4-1.9 0-4.2.9-6.1.8-1.7 1.4-4.7 1.2-6.8-.3-2.4.2-4.4 1.2-5.5.8-.9 1.3-2.4 1-3.2-.3-.8.3-2.4 1.3-3.7 1.3-1.4 1.8-3 1.4-4.5-.4-1.4-.2-3 .4-3.7.6-.6 1-2.9 1-5s.5-4.3 1.1-5.1c.9-1 2.4-8.8 3.5-17.6.1-.9.5-2.1 1-2.8.4-.7.2-1.9-.5-2.8-.9-1.1-.9-2 0-4 .6-1.4.8-3 .5-3.5-.3-.6.3-1.3 1.5-1.6 2.2-.6 2.4-1.1 2.1-5.5-.1-1.5 1-5.1 2.5-7.9 1.4-2.9 2.3-5.9 2-6.7-.3-.8 0-2.1.6-2.8.6-.8.8-2.5.5-3.9-.4-1.4-.2-2.5.4-2.5.5 0 1-1.4 1-3 0-2.3.5-3 1.9-3 2.3 0 3.7-4.6 2-6.6-.7-.9-.8-1.4-.1-1.4.5 0 .8-.9.5-2-.3-1.1-.9-2-1.4-2-1.4 0-1-2.7.4-3.3.7-.3 2-3.1 2.7-6.3.8-3.3 1.6-6.1 1.9-6.4.3-.3 1.4-2.2 2.3-4.3 1-2 2.3-3.7 2.9-3.7.8 0 .8-.4 0-1.4-1.4-1.7.1-5.1 3.2-7.4 1.2-.9 1.6-2.1 1.1-3.4-.5-1.7-.3-1.9 1.5-1.3 1.8.5 2.1.2 2.1-1.9 0-1.4.5-2.6 1.2-2.6.6 0 .9-.3.5-.6-.9-1 1.6-3.3 3.6-3.4 1.5 0 1.7.7 1.6 4.2zm826.8 1c-.3.8-.6.5-.6-.6-.1-1.1.2-1.7.5-1.3.3.3.4 1.2.1 1.9zM794 400c0 .5-.4 1-1 1-.5 0-1-.5-1-1 0-.6.5-1 1-1 .6 0 1 .4 1 1zm2.4 5.1c-.8 1.3-2.4.1-2.4-1.8 0-1.3.3-1.3 1.5-.3.8.7 1.2 1.6.9 2.1zm-38 27c-.3.5-1.4.9-2.5.9-1.6 0-1.8-.2-.7-1.4 1.4-1.4 4.2-1 3.2.5zM148 442.6c0 .8-.4 1.2-1 .9-.5-.3-1-1-1-1.6 0-.5.5-.9 1-.9.6 0 1 .7 1 1.6zm330.3 7.8c.4 1 .1 1.3-.9.9-1.5-.6-1.9-2.3-.5-2.3.5 0 1.1.7 1.4 1.4zm9.9 1.2c2.1.4 3.5 1 3.2 1.5-.8 1.3-3.7 1.1-7.5-.6-3.8-1.6-2.1-1.9 4.3-.9zm-4.1 15.1c1.6 1 2.9 2 2.9 2.3-.1 1.3-4 5-5.4 5-.8 0-1.8.5-2.1 1-.5.8-1.1.7-2.1-.1-1.6-1.3-2-7.4-.3-6.4.6.4 1.3-.2 1.6-1.4.7-2.5 1.6-2.6 5.4-.4zm-313.2 3c0 1-.4 2.7-.8 3.7-1.1 2.8-2.5.2-1.7-3 .7-2.8 2.6-3.3 2.5-.7zm600.6 1.3c.3.5-.1 1-1 1s-1.3-.5-1-1c.3-.6.8-1 1-1 .2 0 .7.4 1 1zm-604.5.5c0 .2-.9.9-2 1.5-1.6.9-1.8.8-1.4-.5.5-1.3 3.4-2.2 3.4-1zm344.7 2.5c1.4 0 13.4 13.1 12.8 14-.3.5-2 .7-3.7.5-1.8-.1-4 .1-4.8.5-2.2 1.1-11.6 2.1-13.4 1.4-1.8-.7-2.2-7.4-.6-9 .6-.6 1.1-2.9 1.3-5.2.1-2.8.6-4.1 1.4-3.7.7.2 1.5 0 1.9-.6.4-.7 1.2-.5 2.3.5 1 .9 2.2 1.6 2.8 1.6zm254.1-.8c-.8 1.2-2 2.4-2.6 2.6-1.9.6-1.4-2.6.6-3.7 2.8-1.7 3.5-1.3 2 1.1zM745 489.7c0 .8.9 1.7 2 2 3.5.9 2.1 2-2.6 2.1-5.8.2-8-1.6-5.7-4.5 1.8-2.3 6.3-2 6.3.4zm-306.7.1c-1.4.2-2 .8-1.7 1.7.5 1.2.1 1.2-2 .2-2.2-1-2.4-1.4-1.1-2.3.8-.6 2.7-.9 4.3-.5 2.4.5 2.5.6.5.9zm311.7.2c0 .5-.4 1-.9 1-.6 0-1.3-.5-1.6-1-.3-.6.1-1 .9-1 .9 0 1.6.4 1.6 1zm-363.5 2c.3.5.2 1-.4 1-.5 0-1.3-.5-1.6-1-.3-.6-.2-1 .4-1 .5 0 1.3.4 1.6 1zm72 1.3c4.4.9 8.7 1.3 11.5.8 2.8-.4 5.9-.2 8.3.6 2.1.7 5.8 1.1 8.2.9 2.5-.3 4.5 0 4.5.5s-.7.9-1.5.9-1.5.4-1.5 1c0 1 .8 1.1 9 1.4 2.5.1 5.5.5 6.7.9 1.6.6 2.4.3 3.2-1 .6-1 1.1-1.3 1.1-.6 0 .9 2.5 1.1 9.4.9 5.2-.2 9.9-.7 10.5-1 .6-.4 1.1-.3 1.1.2s.9 1.2 1.9 1.5c1.7.4 1.8.2.8-1.4-.9-1.4-.9-2.1 0-3 .9-.9 1.3-.6 1.9 1.5.7 2.7 1.4 3.2 2.9 1.7 1.7-1.5 5.5-2.3 5.5-1.2 0 .6-.6 1.1-1.4 1.1-.7 0-2.2 1.2-3.2 2.7-1 1.4-2.6 3.4-3.5 4.3-.8.9-1.8 2.3-2.1 3.2-.4.8-1.6 1.4-3 1.3-1.2-.1-3.1.6-4.1 1.6-1 1-3.2 2.6-5 3.5-4.6 2.3-6.7 4.4-6.7 6.6 0 1.5-.5 1.8-2.2 1.3-2.5-.8-2.6-.8-4.7-.6-.9.1-1.1.7-.6 1.8.4 1 .7 2.8.6 4 0 1.3.4 2.3.9 2.3 1.5 0 1.2 3-.2 3-.8 0-.5.7.6 1.5 1.6 1.2 1.7 1.5.4 1.5-.8 0-2.2.7-2.9 1.6-1.1 1.4-1 1.8.5 3 1.1.7 2.3 1.1 2.9.7.6-.4.8.5.4 2.6-.6 2.8-.4 3.2 1.2 2.6 1.3-.4 2 0 2.4 1.7l.6 2.2 1.9-2.2c1.7-1.9 2.2-2 4.5-.9 2.6 1.2 3.7 3.2 3 5.5-.3.6-.8 1-1.3.7-1-.6-2.1.8-6.1 8.4-1.9 3.5-5.1 7.8-7.1 9.6-2.1 1.7-3.8 3.9-3.8 4.7 0 2.4-2.9 7.5-4.6 8.2-1.2.5-1.5 1.5-1 3.9.3 2 0 3.9-.9 5.1-.8 1.1-1.5 3.7-1.5 5.8 0 2.1-.4 3.8-.9 3.8s-.8 1.1-.7 2.4c0 1.3.4 2.2.9 1.9.4-.2.7 0 .7.6 0 .5-.5 1.1-1.1 1.3-.5.2-1.3 2.2-1.6 4.6-.6 4.1-1.7 5.4-2.6 2.9-.3-.9-.8-.9-1.8.2-1.1 1-1.1 1.5-.1 1.8.6.3 1.2.9 1.2 1.4 0 .4-.7.6-1.5.3-.8-.4-1.7.1-2.1 1-.3.9-1 1.4-1.4 1.1-.5-.3-1.5.2-2.3 1-.9.8-2.2 1.5-3 1.5-.8 0-1.7.9-2 1.9-.2 1.1-1.5 2.1-2.8 2.3-1.5.2-2.4 1-2.4 2s-.9 2.8-2 4c-1.1 1.3-1.9 2.6-1.7 3 .1.5-.5.8-1.4.8-1.1 0-1.4.6-.9 2 .4 1.3.1 2.2-.9 2.6-.9.3-1.6 1.2-1.6 2s-.8 1.4-1.8 1.4-2.9 1-4.2 2.2c-1.4 1.3-2.8 2.3-3.1 2.3-2 0-2 1.7-.1 3.1 2.1 1.4 3.3 4.2 1.3 3-.5-.3-1.4.1-2.1.9-.7.8-1.7 1.2-2.3.8-.6-.4-.8 0-.4 1s-.3 2.2-2.1 3.3c-3.7 2.4-5.6 4.4-4.9 5.1.4.3.2 1.4-.4 2.5-1.2 2.3.4 7.3 2.7 8.2 1.7.6 1.9 3.6.3 3.6-.8 0-.8.4 0 1.4.9 1 .8 1.6-.4 2.6-.8.7-1.5.9-1.5.4s-.5-.2-1 .6c-1.5 2.2-1.2 5 .5 5 .9 0 1.2.6.9 1.5-.4.8-1.2 1.5-1.9 1.5-1.3 0-1.7.8-2.9 6.2-.5 2-1 2.5-2.6 2.1-3.2-.8-2.7 3.5.5 4.7 1.4.5 2.9.9 3.3.8 2.2-.4 4.2 1.7 4.2 4.4 0 2.3.4 2.9 1.5 2.4 1.1-.4 1.5.2 1.5 2.4 0 1.6.5 3.2 1 3.5.6.3 1 1.9 1 3.6 0 1.6-.4 2.9-1 2.9-.5 0-1 .7-1 1.5s.7 1.5 1.5 1.5 1.5.7 1.5 1.5-.6 1.5-1.2 1.5c-.9 0-.8.4.2 1 1.2.8 1.3 1.3.3 2.9-1 1.5-1 2 0 2.4.9.3.9.8-.2 2-.7.9-1.7 1.5-2.1 1.2-.5-.3-1.1-.1-1.5.5-.9 1.5-2.5 1.2-2.5-.5 0-.9-.6-1.2-1.6-.8-.9.3-1.9.1-2.3-.5-.3-.5-2.3-1.3-4.4-1.7-3-.6-3.7-.4-3.7.8 0 1.1-1.2 1.7-3.6 1.9-3.2.3-3.7.7-4 3-.1 1.7.2 2.8.9 2.8s.6.4-.3 1c-2.9 1.9-17 .9-17-1.2 0-.6-1.1-3.3-2.5-6.1-1.8-3.5-2.3-5.3-1.5-6.1 1.6-1.6 1.2-4.6-.6-4.6-1.3 0-1.4-.3-.5-1.3 1.3-1.7-1.9-9.1-4.5-10.1-.9-.3-1.4-1.3-1.1-2 .3-.8-.1-2-.9-2.7-1-.9-1.4-3-1.3-7.7.2-6 0-6.7-2.5-8.9-1.9-1.6-2.2-2.3-1.2-2.3.9 0 1.6-.8 1.6-1.9 0-1 .7-2.2 1.6-2.5 1.2-.5 1.5-1.6 1.2-4.1-.2-1.9 0-3.6.6-3.8.5-.2-.1-1.4-1.4-2.7-1.4-1.4-1.9-2.5-1.2-2.8.6-.2.8-1 .5-1.9-.4-1.1-.2-1.4.5-.9 1.7 1 3.6-3.2 2.2-4.9-.7-.8-.7-1.6-.1-1.9.5-.3.7-2.4.4-4.6-.4-2.6-.2-4 .6-4 .6 0 1.1-.7 1.1-1.6 0-.8.5-1.2 1-.9.6.3 1-.1 1-.9 0-.9-.8-1.6-1.9-1.6-1.1 0-2.3-.5-2.6-1-.3-.6-.1-1 .6-1 1 0 1-.3.1-1.2-1.9-1.9-1.4-2.5 2.3-3.2 2.4-.5 3.2-1.1 2.9-2.1-.4-.8.1-1.8 1-2.1 2.6-1 1.8-3.2-1.4-3.9-1.6-.4-3.2-1.1-3.5-1.6-.4-.5-1.9-.9-3.5-.9-3 0-4.8-1.4-3.1-2.4.5-.4 1.3-.1 1.7.5.8 1.3 4.1-2 6.3-6.3 1.7-3.3.7-5-1.3-2.2-1.2 1.6-1.7 1.7-2.8.6-1.1-1.1-1-1.5.5-2.3.9-.6 1.7-1.9 1.7-2.9s.7-2.3 1.7-2.8c2.1-1.2 1.1-4-1.9-5.2-1.6-.6-1.8-.9-.7-.9 1.9-.1 3.3-2.7 3-5.3-.1-1.2.4-1.5 1.7-1.1 1.2.3 2.2-.2 2.5-1.1.4-1 .1-1.6-.8-1.6-1 0-1.5-1-1.5-3 0-3.2.1-3.3 2.4-2.4.9.3 1.3 1 1 1.5-.3.5-1 .7-1.5.4-.5-.4-.9.1-.9 1 0 2.6 3.4 1.3 3.8-1.3.3-1.7-.2-2.5-1.6-2.9-1.4-.3-2.1-1.5-2.4-3.9-.2-1.9 0-3.4.4-3.4 1.7 0 .7-3.2-1.2-3.7-1.1-.3-2-.9-2-1.4 0-1.2 3.3-1.1 4.8.1.9.7.9.7.2-.2-.5-.7-1-1.8-1-2.6 0-1.2.3-1.2 1.5-.2 1.3 1 1.5.9 1.6-1.1 0-1.3.3-1.8.6-1.1.2.7 1.4 1.7 2.5 2.3 1.9 1 2 .9 1.5-1-.8-3.3 2.1-8.3 4.4-7.6 2.2.7 2.2.5 1-2.8-.9-2.2-.7-2.6 1.4-3.1 1.5-.4 2.5-1.5 2.7-2.9.3-2.5 2.1-2.1 2.5.5.2 1-.3 1.8-1.1 1.8-.7 0-1.8.6-2.4 1.3-.9 1-.4 1.3 1.9 1.5 2 .2 2.9-.2 2.9-1.3 0-.8.4-1.5.9-1.5s.7-1.8.4-4c-.4-3.1-.2-4.1 1.1-4.6 1-.4 1.6-1.8 1.6-3.5 0-3 2.3-4.1 3.3-1.7.3.7.6.3.6-1 .1-3.7 3.3-5.7 9.9-6.4.6-.1 1.2-1 1.2-2.1s.3-1.7.7-1.4c.3.4 1.2.2 1.9-.4.8-.7 1.4-.7 1.9.1.3.5 1.1 1 1.6 1 .6 0 .8-.4.5-.9-.4-.5-.3-1.6 0-2.5.5-1.3.9-1.4 2-.5 1.2 1 2.1.5 4.4-2.1 1.7-1.9 3-2.9 3-2.4 0 .6-.5 1.5-1.2 2.2-.9.9-.6 1.2 1.6 1.2 1.5 0 2.5.4 2.1 1-.3.5-.1 1 .4 1 .6 0 1.1-.6 1.2-1.3 0-.6.3-2.4.5-4 .4-2.5.2-2.7-2.8-2.8l-3.3-.1 3.4-.8c1.8-.4 4-1.5 4.9-2.4 1.4-1.4 1.4-1.6-.1-2.1-.9-.3-2.5-.8-3.4-1.2-1-.3-3.8-.8-6.3-1-2.8-.2-5-1-5.8-2.1-1.1-1.3-1.3-1.4-1.2-.2.1.8.2 1.9.1 2.5-.1 1.1-6 1.4-7.6.3-1.6-1-6.9-1.3-8.4-.4-.7.5-1.6.5-2 0-.8-1.2-9.1-1.7-10.5-.6-2.2 1.7-5.5 2-6.7.5-.9-1-1.4-1.1-1.9-.2-.6.8-1.8.9-4.3.3-3.1-.8-3.4-1.1-2.6-3.2.8-2 1.3-2.2 4.6-1.6 2.1.4 4.2 1.3 4.6 2 1.1 1.9 2.7 1.8 2.7-.1 0-.9-1.1-2-2.4-2.4-1.3-.5-2.6-1.7-3-2.6-.5-1.3-.9-1.5-2-.6-.7.6-2.1.9-3 .5-1.1-.4-1.6-.1-1.6 1 0 .9-.5 1.6-1 1.6-.6 0-.9.3-.8.7.3.9-.5 1.3-2.6 1.3-.8 0-1.8-.9-2.1-2-.3-1.1-1.2-2-2-2-1.4 0-2.5-2.1-2.5-4.8 0-1.2-1-1.8-3.7-2-3.5-.2-3.6-.1-1.8 1.3 1.1.8 2.6 1.5 3.3 1.5 1.7 0 1.5 3-.3 5-1.2 1.3-1.3 2.3-.6 4.4 1.2 3.1.9 3.2-1.5.8-1-.9-2.1-1.8-2.6-1.8-.4-.1-1.3-.2-1.9-.3-.5 0-.8-.5-.4-1.1.3-.5 1.2-.7 2-.3.9.3 1.5-.1 1.5-1.1 0-.9.4-1.6.8-1.6s.8-.9.9-2c.1-1.1-.4-2-1.3-2-.8 0-1.4.9-1.4 2 0 2.3-2.2 2.6-4 .6-.6-.8-2.3-1.6-3.8-1.8-2.5-.3-2.5-.4-.8-2.1 1.5-1.5 1.5-1.7.2-1.7-.9 0-1.6-.6-1.6-1.4 0-.7-.6-1.9-1.3-2.5-1.7-1.3-1-7.3 1-8.4 1.1-.7 1.2-1.2.2-2.4-1.1-1.2-1-1.4.2-1.2.7.2 2.9-.5 4.7-1.4 1.7-1 3.2-1.3 3.2-.7 0 .5.3.9.8.9 1.9-.3 2.3.2 1.2 1.6-1 1.2-1.6 1.2-2.6.4-1.5-1.3-4.4-.5-4.4 1.1 0 .6 1 .8 2.5.4s2.5-.2 2.5.5c0 .6.3 1 .8.9 1.6-.3 4.2 1.5 3.5 2.5-.4.6 0 .8 1 .4.8-.3 2.1.1 2.7.9 1.6 1.8 4.9 1.8 5.6-.1 1-2.4 3.4-1.8 3.4.9 0 2.1.6 2.5 5 3.1 2.8.4 5 1.1 5 1.7 0 .5.4.7.8.4 1.3-.8 10.3 1.5 9.6 2.5-.9 1.5.6 4.9 2.2 4.9.8 0 1.4-.3 1.4-.8 0-.4 2.1-.7 4.8-.7 3.5 0 4.7.4 4.7 1.5 0 .8.9 1.5 2 1.6 1.1 0 2.7.3 3.5.7.8.4 4.4.8 8 1 3.6.1 7 .6 7.7 1 .7.4 2.4.5 3.9.1 1.9-.5 2.5-.4 2 .5-.4.6-.4 1.1.1 1.2.4 0 1.6.2 2.6.4 1.4.3 1.8-.1 1.4-1.5-.3-1.3.1-2.1 1.4-2.5 1.1-.4 1.7-1.1 1.3-1.6-.3-.6-1.2-.8-2-.5-.8.3-1.1 0-.7-1 .3-.8-.1-1.4-1.1-1.4-.9 0-1.6-.5-1.6-1 0-.6-.9-1-1.9-1-1.1 0-2.3-.5-2.7-1.1-.4-.8-.9-.7-1.5.2-.7 1.1-1.4 1.1-4.5 0-2.1-.8-4.7-2.2-5.8-3.2-1.3-1.2-2.7-1.7-4-1.3-1.2.4-1.8.3-1.4-.1.4-.4.3-1.6-.3-2.6-.8-1.5-.6-1.8.8-1.3 1.1.3.8 0-.5-.8-2.7-1.6-1.8-3.2.9-1.7 1.3.6 1.9.6 1.9-.1 0-.5 1.6-1 3.5-1s3.5-.4 3.5-.8c0-1-8.7-4.2-11.2-4.2-2.1 0-2.4-3-.5-4.9 1.4-1.4 5.8-1.1 16.2 1.2zm294.5.1c0 .3-.4.8-1 1.1-.5.3-1 .1-1-.4 0-.6.5-1.1 1-1.1.6 0 1 .2 1 .4zm3.5 2.6c.3.5.1 1-.4 1-.6 0-1.1-.5-1.1-1 0-.6.2-1 .4-1 .3 0 .8.4 1.1 1zM613 497c0 .5-.4 1-1 1-.5 0-1-.5-1-1 0-.6.5-1 1-1 .6 0 1 .4 1 1zm65.6 1.6c2.9.8 2.9 7.2-.1 8-1.2.3-2.9 1.6-3.9 3-2.8 3.7-4.2 2.9-5.3-3.1-.8-4.5-.7-5.7.6-7 1.6-1.5 5-1.9 8.7-.9zm-64.6 3.5c0 1.2-1.7 1.1-2.5-.1-.3-.6-1.5-1-2.6-1s-1.8-.4-1.4-.9c.7-1.2 6.5.7 6.5 2zm16-.5c0 .2-.7.4-1.5.4s-1.5-.4-1.5-1c0-.5.7-.7 1.5-.4.8.4 1.5.8 1.5 1zm-190 .4c0 .5-.4 1-1 1-.5 0-1-.5-1-1 0-.6.5-1 1-1 .6 0 1 .4 1 1zm-31.5 1c.3.5.1 1-.4 1-.6 0-1.1-.5-1.1-1 0-.6.2-1 .4-1 .3 0 .8.4 1.1 1zm307.9 4.2c-.5 1.8-.8 6.4-.9 10.3v7l-3.1-.2c-3.2-.3-5.8-1.4-10.6-4.6-2.3-1.6-2.6-2.3-2.1-5.5.8-5 4.6-8.1 10-8.2 2.3 0 4.5-.5 4.8-1 1.4-2.3 2.6-.9 1.9 2.2zm-97-.5c.3 1 .9 2.4 1.2 3.2.5.9.3 1.1-.6.6-1-.6-1.2-.2-.7 1.4.4 1.7.2 2.1-1.1 1.9-2.1-.4-2.9-8.8-.8-8.8.8 0 1.6.8 2 1.7zm124.6 2.8c2.1 2.2 2.2 2.8 1 5-.8 1.5-2.1 2.4-3.4 2.3-1.2 0-2.8.1-3.6.3-1.1.3-1.6-.5-1.8-2.9-.2-2.3.1-3.2 1.2-3.2.8 0 1.8-.9 2.1-2 .8-2.6 1.7-2.5 4.5.5zm-621.3 1.7c-.3.7-.5.2-.5-1.2s.2-1.9.5-1.3c.2.7.2 1.9 0 2.5zm502.9-.7c.9.8 1.1 1.5.6 1.5-.5 0-1.5-.7-2.2-1.5-.7-.8-.9-1.5-.6-1.5.4 0 1.4.7 2.2 1.5zm51.4 9.6c0 .6.8.9 1.8.7 2.4-.7 7.7 2.3 7.7 4.2 0 .8.9 1.5 1.9 1.5 1.1 0 2.1.6 2.4 1.4.4 1.1.6 1.1 1.4 0 .7-1 .8-.8.3.8-.8 2.8 4.3 7.6 9.9 9.4 2.3.7 4.8 1.9 5.7 2.6.8.7 2 1.3 2.6 1.3.6 0 2.4.7 3.9 1.5 4.4 2.3 5.9 2 4-.7-.9-1.2-1.6-3.1-1.6-4.1 0-1.6.5-1.8 2.9-1.4 1.6.4 3.1.2 3.3-.4.2-.5 3.2-1.4 6.6-1.9 3.5-.5 7-1.4 7.8-2 2.2-1.9 4.4-.4 4.4 2.9 0 3.8 1.6 4.8 3.1 1.9.7-1.3 1.2-2.4 1.1-2.6-.8-1.1.1-2.2 1.8-2.2 1.2 0 2.2.9 2.6 2.4.8 3.3 8.6 6 13.5 4.6 4.6-1.4 12.6-1.3 13.1.1.3.9.9.9 2.4.1 2.2-1.2 6.7-.5 5.9.8-.9 1.5 2.5 1.9 3.9.5 2-2.1 2.9-1.9 2.3.5-.3 1.1-.1 2 .4 2s.9.7.9 1.5c0 .9-.9 1.5-2.3 1.5-1.2 0-2.8.9-3.5 2-1 1.7-1.5 1.8-3.1.8-1-.6-2.6-.8-3.7-.3-2 .8-1.7.9 2.9 1.9 1.8.4 2.7 1.3 2.7 2.6 0 1.1.7 2 1.6 2 .8 0 1.3-.4 1-.9-.3-.5-.3-2.4.1-4.1.5-3 .7-3.1 1.9-1.6.7 1 1 2.8.8 4.2-.3 1.9 0 2.4 1.6 2.4 2.3 0 2.7-1.8.5-2.6-.8-.4-1.2-1-.9-1.6.3-.5 1.2-.7 2-.4.8.3 1.4.1 1.4-.4 0-.6 1.2-1 2.6-1 1.7 0 2.8-.6 3.1-1.9.4-1.5 1.3-1.8 4.7-1.6 2.4.2 4.8 0 5.5-.5 1.3-.8 4.8.1 11.1 2.7 3.1 1.3 3.5 1.3 4.6-.2.9-1.1 2.4-1.6 4.8-1.4 1.9.2 3.8 0 4.1-.3.4-.4 3.9-.4 7.9-.1 8.2.7 12 2.8 12.4 6.8.1 1.4.7 3.5 1.3 4.6.6 1.1.8 2.6.6 3.4-.3.7.1 2.2.8 3.3 2.1 2.9-.1 7.3-3.3 6.7-1.3-.2-3-.9-3.7-1.5-1.7-1.4-3.8-.3-2.8 1.3.4.7.8 1.5.9 1.9.1.5.3 1.1.4 1.5.1.5.2 1.5.1 2.3-.1.8 1.1 2.9 2.7 4.6 2.4 2.6 2.7 3.5 1.9 6.3-.5 2.1-.4 3.7.3 4.6.7.9.6 2-.5 4.1-1.8 3.5-1.9 5.4-.2 5.4.8 0 1.2 1.6 1.2 4.5 0 3-.4 4.5-1.3 4.5-.7 0-1.1.4-.8.9.3.5.1 2.3-.5 4-.9 2.4-.8 3.5.2 4.8 1.1 1.3 1.1 1.7.1 2-.6.3-1 .9-.6 1.4.3.5.1.9-.5.9-.5 0-1.3-.9-1.6-2-.3-1.1-1.3-2-2.1-2s-1.4-1-1.4-2.5c0-2.4-1.2-3-4.7-2.6-.7.1-1.3-.8-1.3-2 0-1.5-.4-1.9-1.5-1.5-.9.3-1.8-.1-2-.9-1.6-4.9-1.6-5-2.4-3.7-1 1.7-6.1.5-6.1-1.4 0-.8-.4-1.4-1-1.4-.5 0-.7-.6-.4-1.4.6-1.6-3.1-4.1-4.6-3.1-1.4.9-6.8-2.5-7.3-4.7-.4-1.3-1.5-1.8-4.4-1.8-3.5-.1-10.6-2.9-7.4-3 .8 0 0-1.1-1.9-2.5-1.8-1.3-3.7-2.2-4.2-1.9-.5.4-2.5-.2-4.4-1.2-2.5-1.3-3.7-1.5-4.5-.7-.8.8-2 .2-4.4-2.1-2.9-2.9-3.9-3.3-8.7-3.2-4.9.1-5.4-.1-6.5-2.7-.9-2-1-3.5-.3-4.7 1.4-2.6 1.2-4-.5-4-.8 0-1.5-.9-1.5-2s.7-2 1.5-2 1.5.4 1.5.9 1.5.5 3.6.1c2-.5 4.8-.6 6.2-.3 7.1 1.3 16.1 1.8 17 .8.5-.5-1.9-4.9-3.2-5.7-.8-.5-.7-.8.2-.8.6 0 1.2-.5 1.2-1 0-.6-.7-1-1.5-1s-1.5.8-1.5 1.7c0 1.4-.2 1.5-.9.4-.5-.8-1.8-1.2-3-.8-1.2.3-2.1.1-2.1-.4s-1.3-.6-3-.3c-2.6.6-3 .4-3.1-1.7-.1-1.7-.3-1.9-.6-.7-.5 2-4 2.4-17 1.9-8.1-.3-9.5.9-3.8 3.3 2.7 1.2 3.5 2.1 3.5 4.1 0 1.5-.9 3.4-2 4.3-2 1.7-2 1.7.6 4.7 2.3 2.7 2.5 2.8 2.1.7-.3-1.2-.1-2.2.4-2.2 1.1 0 1.2 3.1.1 4.5-.8 1.2-4.2 1.3-4.2.2 0-.4-.8-1.5-1.7-2.6-1.8-1.8-1.8-1.7-3.5.3-1.2 1.5-1.4 2.4-.6 3.3 1.4 1.8 0 1.6-1.8-.1-.8-.8-1.1-2.2-.8-3.1.4-1-.2-2.9-1.5-4.6-1.4-1.9-1.7-2.9-.9-2.9.7 0 2.1 1.1 3.1 2.4 1.8 2.3 2 2.3 3.8.8 4.1-3.5 1.4-5.8-6.2-5.4-3.3.2-5.9.6-5.9.9 0 .2.7 1.1 1.5 2 .8.8 1.2 1.9.9 2.5-.4.6-.2.8.3.5 1.9-1.2 3.6 1.9 2.4 4.2-1.3 2.4-1.4 4.4-.2 3.7.4-.3 1.7.4 2.7 1.5 1 1.1 2.4 1.7 3.2 1.4.9-.3 1.2 0 .9.8-.2.7.4 2.3 1.4 3.6 1.6 2 2 2.1 2.5.7.8-2.2 1.7-2 4.9 1 2 1.8 3.1 2.2 3.8 1.5 1.3-1.3 5-1.4 6.2-.2.6.5 2.1 1.1 3.5 1.3 1.7.2 2.6 1 2.8 2.4.3 2 1.4 2.7 4.7 3.2.6.1 1-.9.9-2.1-.1-1.3.5-2.4 1.2-2.4s1.2.5 1.1 1.1c-.1.6 1.1 1.1 2.7 1.1 1.5.1 3.3.8 4 1.6.6.9 2.2 2 3.6 2.4l2.5.8-2.2 1c-2.9 1.3-4.1 4.1-1.3 3.2 2.5-.8 2.6.3.3 2.1-1.7 1.2-1.7 1.3-.1 1.4.9 0 2.1.8 2.7 1.7.5 1 1.3 1.4 1.7 1 .5-.5.2-1.2-.6-1.7-2.2-1.4 0-2.9 3.2-2.3 1.5.3 2.5.9 2.2 1.4-1 1.7.9.9 2.2-.9 1.2-1.5 1.3-1.4 1.4 1.5 0 1.7.7 3.8 1.5 4.7.8.8 1.5 2.2 1.5 3 0 .9.4 1.6.9 1.6s1.7.3 2.7.7c1.2.4 1.5.3 1-.5-1.1-1.8.2-1.4 2.5.7 2.1 2 1.7 4.6-.5 3.8-1-.4-1 .3-.2 2.9.7 2.2 1.7 3.4 2.9 3.4 1 0 1.5.5 1.2 1-.4.6-.1 1.7.5 2.5.9 1.1 1 1.8.1 2.9-.9 1.1-.5 1.5 2.1 2 2.3.5 2.9.9 2 1.5-1 .6-.7 1 1.2 1.5 3.6.9 3.3 2.6-.4 2.6-3.4 0-4 1.5-1 2.3 2 .5 2.9 3.7 1 3.7-.5 0-1 .7-1 1.5s-.5 1.5-1.1 1.5c-.5 0-.7-.5-.4-1 1.7-2.7-5.8.6-7.7 3.4-.5.7-.8.7-.8-.2 0-.6-.5-1.2-1.1-1.2-.6 0-.8.9-.3 2.2.4 1.3.7 3.1.6 4 0 1 .6 1.8 1.4 1.8.9 0 1.4 1 1.3 2.7 0 1.6-.3 2.3-.5 1.7-.3-.7-1.4-1-2.4-.7-1.5.4-1.8 1.1-1.3 3.7.3 1.7 1.1 3.8 1.8 4.6 1.5 1.9 2.6 6 1.5 6-.4 0-1.1-1.1-1.4-2.4-.7-2.7-3.3-4.1-5.1-2.6-.6.5-1.5.7-1.8.3-1-.9-.8.9.1 2.5.5.7 1.6 1 2.5.6 1.2-.4 1.7-.1 1.7 1.4 0 1.1.8 2.2 2 2.5 1.2.3 2 1.3 1.9 2.4-.1 1.6-.2 1.6-.6 0-.5-2-2.9-2.3-3.6-.5-.3.8-.6.6-.6-.5-.1-2.1-.8-2.1-4.3-.3-2.3 1.2-2.9 1.2-3.9-.1-.7-.8-1.3-3-1.3-4.9-.1-4.3-1.6-4.5-1.7-.2 0 1.8-.2 4.1-.4 5.1-.2.9 0 1.5.4 1.3.4-.3 2 .6 3.7 1.9 2.9 2.3 2.9 2.4.9 3.9-1.9 1.4-1.9 1.5-.2 1.6 2.3 0 1.7 2.4-.8 2.8-1 .2-1.5 0-1.1-.6.4-.6-.2-1.1-1.1-1.1-1 .1-2.9-.2-4.3-.6-2.1-.6-2-.4.8 1.4 3.3 2.1 4 3.5 2.2 4.6-.6.3-.7-.1-.4-.9.4-1.1 0-1.6-1.5-1.6-1.2 0-2.1.6-2.1 1.3 0 .7-.9 1.8-2 2.5s-2 1.8-2 2.6-.8 1.2-2.3.9c-3.3-.7-9.8 2.3-10.4 4.7-.5 1.8-1.7 2.4-4.9 2.3-1.3 0-1.3 1.5-.1 3.4.6.9.2 1.3-1.1 1.3-1.5 0-1.9-.5-1.5-2 .5-1.9.2-2-3.2-1.7-3.6.4-4.4.1-7.9-3-.8-.7-1.7-.9-2.1-.5-.5.4-.5.2-.2-.4.4-.7 0-1.7-.7-2.3-1.7-1.4-2.5-.4-1.9 2.4.2 1.1.4 5.6.4 10 0 4.3.5 8.5 1.1 9.2.7.9.7 1.7-.2 2.8-1.9 2.3.5 4.7 3.9 3.8 3-.8 4.6-2.2 4.6-4.3 0-.8.6-1.4 1.3-1.2.9.1 1-.6.6-2.4-.5-2-.2-2.6 1.6-3.1 1.7-.4 2-1.1 1.6-2.9-.4-1.6-.2-2.4.6-2.4.7 0 2.4-.3 3.7-.7 2.2-.5 2.3-.4 1.8 1.9-.5 2-.3 2.7 1.2 3.1 2 .5 3.6 6.7 1.7 6.7-1.2 0-.9 8.8.4 10.5.8 1.1.5 14.3-.3 15.1-.3.3-.8-.5-1.3-1.8l-.7-2.3-.8 2.3c-1 2.7-.2 5.2 1.7 5.2 1.8 0 1.7 1-.1 3.3-.7 1.1-1.1 2.5-.8 3.3.4 1 0 1.2-1.1.8-.9-.3-1.6-.1-1.6.5s.4 1.1.9 1.1.8 1.2.6 2.7c-.2 1.6-.4 3.3-.4 4-.1.7-1 2-2 3-1.1 1-2.2 3-2.6 4.5-.4 1.6-1.3 2.8-2.1 2.8-1.3 0-1.8 1.1-1.5 3.6.1.6-2.4 3.2-5.4 5.9-3 2.7-5.5 5.5-5.5 6.2 0 .7-.7 1.3-1.5 1.3s-1.5.7-1.5 1.5-.6 1.5-1.2 1.5c-.7 0-2.8 1.7-4.8 3.8-1.9 2.1-4.3 4.1-5.2 4.5-1 .3-1.8 1.3-1.8 2.1 0 2.1-4.1 2.7-6.7 1.1-2.9-2-3.2-1.9-2.6.5.7 2.5-.9 2.6-3.1.1-1.8-2-1.4-6.1.5-6.1.5 0 .6-1.2.2-2.8-.3-1.5-.6-3.6-.5-4.6.1-2.3-1.6-5.7-3.7-7.3-1.3-1-1.9-.8-3.2.8-1.5 2-1.5 2-4-.4-3.8-3.7-9.6-6.4-6.9-3.2.9 1 .9 1.5.1 1.5-.6 0-1.1.7-1.1 1.6 0 .8-.5 1.2-1 .9-.6-.3-1.4.5-1.9 1.8-1.5 3.8-2.9 4.1-5.8 1.3-1.4-1.4-2.2-2.6-1.6-2.6.5 0 1-1 1-2.2.1-1.3-.1-1.8-.5-1.3-.4.6-1.3 1-1.9 1.1-4.1.3-4.6.5-3.9 1.1.4.5 1.2.8 1.7.8 2 0 1.3 2-.8 2.3-1.3.2-2.3.8-2.3 1.3s-.4.9-1 .9c-.5 0-1-.6-1-1.4 0-.7-.9-1.6-2.1-1.9-1.7-.5-1.8-.3-.8 1 1 1.1 1 1.9.1 3.3-.9 1.6-.9 1.8.2 1.4.7-.3 1.6.2 1.9 1.1.5 1.2.1 1.4-1.8.9-2.8-.7-3.5 1-.9 2 .9.4 1.4.9 1.1 1.3-.4.3-1.8-.2-3.2-1.1-1.4-.9-3.4-1.4-4.4-1.1-1.2.3-2.1 0-2.5-1.1-.5-1.3 0-1.5 3.3-.9 3.8.6 3.9.5 3.4-1.6-.4-1.3-.8-1.8-1.1-1.1-.5 1.7-6.1 1.5-6.8-.3-.4-.8-1-1.5-1.4-1.5-.9 0-.6 5.2.4 6.9 1.2 1.8 0 2.4-2.3 1.1-2.4-1.2-2.5-1.8-1.2-5.3.6-1.4.7-2.7.4-3-.9-.9-3.5 2.2-2.8 3.3.3.5.2 1-.3 1-1.5 0-2.4-3.1-1.3-4.4.5-.6 1.3-2.9 1.7-5.1.4-2.2 1.1-4.3 1.7-4.6.5-.4 1-2.8 1.1-5.4l.1-4.7 3.9-.4c4.3-.4 7.3 1.5 5.3 3.5-.8.8-.6 1.1 1 1.1 1.2 0 2.5-.5 2.8-1 .3-.6.1-1-.4-1-.6 0-1.1-.5-1.1-1.2 0-.6.7-.4 1.8.5 2.4 2.2 3.2 2.1 3.2-.3 0-1.4.7-2 2.1-2 1.1 0 1.7-.4 1.4-1-.3-.6.1-.7.9-.4.9.3 1.6.1 1.6-.5s-.7-1.1-1.5-1.1-1.5-.7-1.5-1.5-.4-1.5-.8-1.5c-1.9 0-.6-3.9 1.6-4.5 1.2-.3 2-1 1.7-1.4-.3-.5.5-.6 1.7-.3 1.9.5 2 .7.6 1-1 .2-1.8 1-1.8 1.7 0 .9.6 1.2 1.8.8 3.4-1.2 4.3-2.6 3.7-5.5l-.7-2.9 4.6.5c3.2.3 5.1 0 6.1-1 .7-.8 1.8-1.4 2.4-1.4.6 0 1.1-.7 1.1-1.6 0-1.1.8-1.5 2.8-1.3 3.8.4 5.2-.7 5.2-4.2 0-1.9.5-2.9 1.5-2.9.8 0 1.5-.5 1.5-1 0-.6.9-1.9 2.1-3.1 1.2-1.2 2.2-3.3 2.4-4.7.3-2.7-1-10.4-2.2-13.2-2-4.5-1.2-5.7 7.4-10.1 4.2-2.1 5-4.6 1.2-3.6-1.3.3-2 0-2.1-1.1 0-1-.2-2.2-.3-2.7-.2-.6-.3-1.7-.4-2.5-.1-.8-.5-2.1-1-2.9-.8-1.3-1.2-1.3-2.7 0-1 .8-1.5.9-1.1.2.4-.6.3-1.4-.3-1.8-.5-.3-1-1.1-1-1.7 0-.7.5-.7 1.4.1 2 1.7 2.8-1 1.2-4-.8-1.5-2-2.3-3.3-2.2-1.7.2-2.2-.5-2.8-3.4-.4-2.1-1.5-4.3-2.5-5-1.5-1.1-1.7-1.9-1-3.8.7-1.8.6-2.3-.4-1.9-.7.3-2.1-.3-3.1-1.3-1-.9-2.5-1.8-3.3-1.9-.8-.2-1.8-.8-2.2-1.4-.5-.8-1-.9-1.4-.2-.3.6-1.6.8-2.9.4-2-.5-2.1-.4-.8 1.1.9 1.2 1 1.7.2 1.7-.6 0-1.4-.7-1.7-1.5-.4-.8-1-1.3-1.4-1-.4.3-1-.2-1.4-1-.3-.8 0-1.5.7-1.6.7 0 .2-.4-1-.9-1.3-.5-2.3-1.4-2.3-2 0-.5-.6-1-1.3-1-.9 0-1.2-1-.9-3.2.4-2.5.2-3-1-2.5-1.1.4-1.9-.6-2.8-3.6-.7-2.6-2.8-5.6-5.2-7.9-3-2.8-3.9-4.2-3.3-5.5.4-1 .7-2.7.7-3.7-.1-1.1.8-2.7 1.9-3.7 1.1-1 2.3-3.3 2.5-5.1.3-1.8 1.2-3.8 2-4.4 1-.8 1.4-3.4 1.5-8.5.1-6.9-.6-9.8-3.9-15.9-2.9-5.2-4.2-8.4-4.2-10 0-2.1-7.2-9.8-8.6-9.3-.6.2-1.8-.5-2.8-1.6-1.1-1.2-2.5-1.7-3.9-1.3-2.1.5-2.1.5-.4-2.1 2.1-3.3 2.1-3.9-.1-3.5-1.8.3-6.5-3.6-5.5-4.6.4-.3 0-.6-.8-.6-2.5 0-3.9-2.1-2.8-4.2.5-1 1.4-1.6 2-1.3.5.4.9.2.9-.3 0-.7 1.3-.6 3.4 0 2.9.9 3.6.8 5.5-1.1 2.4-2.4 4.6-2.4 4.6 0 0 .9-.8 1.3-2.2 1.1-1.6-.2-2.3.2-2.3 1.4 0 1.6 1.1 1.6 5.2-.1 1.3-.5 2 0 2.8 2 .7 1.8 1.5 2.5 2.8 2.1.9-.2 2.7-.7 4-1.1 1.2-.3 2.2-1.1 2.2-1.7 0-.6 1.2-.8 3.1-.4 2.2.4 2.9.2 2.5-.7-.3-.6-.9-2-1.2-3-.5-1.4-1.3-1.7-3.5-1.2-1.8.4-2.9.2-2.9-.4 0-.6.5-1.1 1-1.1.7 0 .7-.6.2-1.8-.5-.9-.7-2.3-.4-3.1.3-.8 0-1.1-.6-.7-2.2 1.3-5-1.2-4.7-4.1.5-3.5-1.3-8.3-3.1-8.3-1.4 0-1.9-3.1-.7-4.3.3-.4 1.3-.1 2.1.6 1.3 1 1.4.9.3-1.1-.6-1.2-1.7-2.2-2.2-2.2-.6 0-.9-.6-.6-1.4.4-.9-1.1-2.2-4.4-3.7-3.9-1.9-5.1-3.1-5.9-5.9-1.4-4.8-1.3-5 1.5-5 1.4 0 2.5.5 2.5 1.1zM384.5 522c.3.5-.1 1-.9 1-.9 0-1.6-.5-1.6-1 0-.6.4-1 .9-1 .6 0 1.3.4 1.6 1zm132.5 1.4c0 1.1-1.9 1.5-2.5.6-.3-.5.1-1 .9-1 .9 0 1.6.2 1.6.4zM389 528c0 .5-.4 1-1 1-.5 0-1-.5-1-1 0-.6.5-1 1-1 .6 0 1 .4 1 1zm13 .4c0 1.1-1.9 1.5-2.5.6-.3-.5.1-1 .9-1 .9 0 1.6.2 1.6.4zM166.5 530c.3.5.1 1-.4 1-.6 0-1.1-.5-1.1-1 0-.6.2-1 .4-1 .3 0 .8.4 1.1 1zm679.6 3.5c1.9.6 2.6 2.4 1.2 2.6-2 .4-9.5.5-8.5.1.7-.2 1.2-1 1.2-1.8s.7-1.4 1.5-1.4 1.6-.8 1.6-1.8c.1-1.6.2-1.6.6 0 .2.9 1.3 2 2.4 2.3zm-9.8.9c.4 1 .1 1.3-.9.9-.7-.3-1.4-.9-1.4-1.4 0-1.4 1.7-1 2.3.5zM428 561c-1.1 2-3 2.8-3 1.2 0-1.1 2.2-3.2 3.2-3.2.5 0 .4.9-.2 2zm250-1.6c0 .3-.4.8-1 1.1-.5.3-1 .1-1-.4 0-.6.5-1.1 1-1.1.6 0 1 .2 1 .4zm-68 3c0 .2-1.3.3-3 .2-3.1-.1-4-1.1-1.7-1.9 1.1-.4 4.7.9 4.7 1.7zm65-.4c0 .5-.4 1-.9 1-.6 0-1.3-.5-1.6-1-.3-.6.1-1 .9-1 .9 0 1.6.4 1.6 1zm-67 2.2c1.7 1 2.2 1 2.8.1.7-1 1.2-1 2.8.2 1 .8 2.7 1.5 3.7 1.5.9 0 1.7.5 1.7 1 0 .6 1 .8 2.4.4 2.2-.5 2.4-.3 1.9 1.6-.5 1.9-.3 2.1 1.6 1.5 2.1-.6 3 .8 1.1 2-.6.4-.8 1.1-.4 1.6.3.5.9.7 1.3.5.4-.3.7 4 .7 9.5 0 8-.2 9.9-1.3 9.5-.8-.3-1.6.1-1.9.9-.4.8-1.2 1.5-2 1.5s-1.4.9-1.4 2-.3 1.9-.7 1.8c-.8-.3-5.6 2.5-10 5.8-2.2 1.6-2.3 1.6-2.3-1.2 0-2.1-.3-2.5-.9-1.5-.8 1.2-1.3 1.2-2.4.3-.8-.7-2.2-1-3.1-.6-1.1.4-1.6.1-1.6-1 0-1.9-2-2.2-2-.4-.1.7-.7.1-1.5-1.4s-3.1-3.2-5.1-4c-2.6-.9-3.4-1.7-3.1-3 .3-1 .1-1.8-.4-1.8s-.9-.6-.9-1.3c0-.7-.9-1.8-2-2.5-2.3-1.4-2.5-4.3-.9-10.8.8-3.2 1.6-4.4 2.6-4 .7.3 1.6-.1 2-1 .9-2.5 5.3-6.5 6.4-5.9.5.4.9.2.9-.4 0-.5 2.1-1.2 4.8-1.4 2.6-.2 4.8-.4 5-.5.1-.1 1.1.4 2.2 1zm156.7 2c-.3.8-.6.5-.6-.6-.1-1.1.2-1.7.5-1.3.3.3.4 1.2.1 1.9zm-73.4 1.5c-.7.2-1.9.2-2.5 0-.7-.3-.2-.5 1.2-.5s1.9.2 1.3.5zM149 572c0 .5-.2 1-.4 1-.3 0-.8-.5-1.1-1-.3-.6-.1-1 .4-1 .6 0 1.1.4 1.1 1zm-1 4c0 .5-.2 1-.4 1-.3 0-.8-.5-1.1-1-.3-.6-.1-1 .4-1 .6 0 1.1.4 1.1 1zm-6 13.9c0 .5-.7 1.1-1.4 1.4-1 .4-1.3.1-.9-.9.6-1.5 2.3-1.9 2.3-.5zm3.5.1c.3.5.1 1-.4 1-.6 0-1.1-.5-1.1-1 0-.6.2-1 .4-1 .3 0 .8.4 1.1 1zm-2.3 5.6c-.1 1.6-.5 3.6-.9 4.4-.3.8-.5 2.3-.4 3.2.3 2.1-1.4 2.4-2.2.5-.8-2.1 1.5-11.8 2.7-11.4.6.2 1 1.7.8 3.3zm259.1 6.7c-.3.6-1.7-.3-3-1.9-3.3-4.1-2.9-5.3.7-1.9 1.6 1.5 2.6 3.3 2.3 3.8zM141 608.4c0 .3-.4.8-1 1.1-.5.3-1 .1-1-.4 0-.6.5-1.1 1-1.1.6 0 1 .2 1 .4zm-3.3 5.8c-.3.8-.6.5-.6-.6-.1-1.1.2-1.7.5-1.3.3.3.4 1.2.1 1.9zm-1.2 9c.6 2.8.3 4.2-2 9.3-1 2.2-1.8 4.3-1.7 4.7.4 1.5-3.1 13.4-4.3 14.8-.7.8-1.5 3.1-1.8 5-1.3 7.9-2 10.2-3.3 10.7-.8.3-1.4 1.7-1.4 3.2 0 1.4-1.1 4.2-2.3 6.1-1.3 1.9-2.2 4.1-2 4.7.5 1.5.2 1.6-2.1.7-1.7-.7-2.1-3.4-.8-5 .5-.5 1.4-4.1 2.1-7.9 1.6-8.5 3.2-13.5 4.4-13.5.5 0 .7-.9.4-2-.4-1.7 0-2 2.4-2 3 0 4.1-2.3 1.7-3.3-1-.4-.9-.8.2-1.6.9-.6 1-1.1.3-1.1-1.5 0-1-9.8.7-13.1.7-1.3 2.5-3.6 4.1-5.1 1.6-1.5 2.9-3.6 2.9-4.7 0-2.8 1.8-2.7 2.5.1zm260.3 10.7c.4 2.8-1.3 2-2.1-.9-.3-1.4-.1-2 .6-1.7.7.2 1.4 1.4 1.5 2.6zm1.5 11.5c1.7 1.3 2.3 3.6 1 3.6-1.1 0-4-2-2.9-2 .5 0 .3-.7-.4-1.5-1.5-1.8-.1-1.9 2.3-.1zm176.2 7.6c2.2 2.5 4.8 2.6 7.1.2 1.7-1.6 1.7-1.6 1.2.5-.4 1.5 0 2.3 1.3 2.6 1.1.3 1.9 1.3 1.9 2.2 0 1.2-.5 1.5-2.2.9-2.3-.7-2.3-.6-.4 1.5 1.8 2 1.8 2.1.1 2.1-2.2 0-1.4 1 1.2 1.4 1 .2 1.7 1.1 1.7 2-.3 2.6 1.4 1.8 3.2-1.5.9-1.8 1.9-2.8 2.3-2.3.3.5 1.5 1.4 2.6 2 2.6 1.4 3.2 6.6 1 8.8-2.3 2.3-6.5 3.1-8.7 1.7-1.5-.9-2.7-.9-5.4.1-1.9.6-3.4 1.5-3.4 1.9 0 .4-1.2.1-2.7-.6-1.6-.8-3.1-1.1-3.6-.6-1 1-6.7-1.8-6.7-3.2 0-.5-.4-.6-.9-.2-.5.3-2.1 0-3.5-.6-2-.9-2.9-.9-4.2.2-1.4 1.1-1.8 1.1-2.8-.2-.6-.9-1.6-1.4-2.2-1.2-1.5.5-3.7-2.3-2.9-3.7.3-.6 1.1-.8 1.6-.5.5.4.9.2.9-.4 0-.5-.6-1.1-1.2-1.4-.7-.2 0-.4 1.5-.4 1.9 0 2.7.4 2.3 1.3-.3.7.1 1.7.7 2.3.9.7 1.3.4 1.2-1.2 0-1.2.5-2.3 1-2.5.6-.1 1 .2 1 .8 0 .5.5.9 1 .7.6-.1.9-.7.9-1.4-.1-.7.7-1.1 1.9-1 1.1.1 2.2-.4 2.4-1.1.3-.6-.3-1.2-1.2-1.2-1.1 0-.5-1.2 2.1-4s4.3-3.9 5.6-3.4c1.3.4 1.6.1 1.2-1-.9-2.2.9-2 3.1.4zm49.2 2.2c-.3 1.1.1 3.7.8 5.6.8 1.9 1.3 3.8 1 4.3-.7 1.1 3.5 3.3 6 3.2 1.6-.1 1.6-.1.3.3-2.4.7-2.3 2.1.1 2.9 1.1.3 2.2 1.3 2.5 2.1.3.8 1 1.3 1.5.9.5-.3 1.2.4 1.6 1.5.3 1.1 1 2 1.5 2s.8 1.2.7 2.7c-.2 2.4-.7 2.8-3.7 3-5 .4-10.7-.7-9.1-1.7.8-.4-.4-1-3.3-1.4-4.1-.7-4.7-1.1-5.3-3.7-.6-3-2.6-3.1-2.1-.1.3 2 0 2-7.4.3-6.3-1.3-7.1-2-5.8-4.1.7-1.1 1.1-1.1 2.4-.1.9.7 1.3 1.7 1 2.2-.3.5 1.3.8 3.5.6 2.5-.1 4.1-.7 4.1-1.5 0-.6.9-1.2 2-1.2s2-.6 2-1.4c0-.8.7-1.6 1.5-2 2.2-.8 1.8-4.3-.5-4.9-1.3-.3-2 0-2 1 0 2.1-1.7.7-2.3-1.9-.2-1.3-.8-3.1-1.2-4.1-.5-1.2-.3-1.7.9-1.7.9 0 1.6-.5 1.6-1.1 0-.8.5-.8 1.5.1 1.3 1 1.5.9 1.5-1.1 0-1.8.3-2 1.2-1.1 1.7 1.7 2.9 1.5 2.2-.3-.4-.8-.1-1.5.6-1.5.8 0 1 .8.7 2.2zM564 655c0 .5-1 1-2.2.9-2.2 0-2.2-.1-.3-.9 1.1-.5 2.1-.9 2.3-.9.1-.1.2.3.2.9zm260 .5c0 .8-.2 1.5-.4 1.5s-.6-.7-1-1.5c-.3-.8-.1-1.5.4-1.5.6 0 1 .7 1 1.5zm-197 2c0 .8-.4 1.5-1 1.5-.5 0-1-.7-1-1.5s.5-1.5 1-1.5c.6 0 1 .7 1 1.5zm4.1 7.8c-.1 1.2-1.5.9-1.9-.4-.3-.6.1-1 .8-.8.6.3 1.1.8 1.1 1.2zM105 666.5c0 .8-.2 1.5-.4 1.5s-.6-.7-1-1.5c-.3-.8-.1-1.5.4-1.5.6 0 1 .7 1 1.5zm-10 .5c0 .5-.4 1-1 1-.5 0-1-.5-1-1 0-.6.5-1 1-1 .6 0 1 .4 1 1zm727.8 1.7c-.4 2.4-2.4 2.7-2.4.3 0-1.1.6-2 1.4-2 .7 0 1.2.8 1 1.7zm-719.3 8.1c-.3.3-1.2-.3-1.9-1.4-1.1-1.4-1.2-2.4-.3-3.9 1-1.9 1.1-1.8 1.9 1.4.5 1.8.7 3.6.3 3.9zm-4.5-3.9c0 .4-.6.8-1.4.8-.8 0-1.2-.6-.9-1.4.5-1.3 2.3-.9 2.3.6zm501.3.1c.3 1.1.2 2-.3 2-.4 0-1-.9-1.3-2-.3-1.1-.2-2 .3-2 .4 0 1 .9 1.3 2zm43.3 1.6c1.7-.5 2.4-.2 2.4.8 0 .8.7 2.2 1.6 3 1.4 1.5 1.3 1.6-1 1.6-1.6 0-2.6-.6-2.6-1.5 0-.8-.7-1.5-1.6-1.5-2.7 0-4.3-2.4-3.1-4.6 1.1-1.8 1.2-1.8 1.5.4.3 2 .8 2.3 2.8 1.8zm3.2 7.2c-1 .2-1.8.8-1.8 1.4 0 .6.9.8 2 .5 2.6-.7 3.3.6 1.5 2.9-1.5 1.9-1.5 1.9-3-.1-.8-1.1-1.9-2.6-2.5-3.3-1.7-1.9-.4-3 2.7-2.4 1.9.4 2.3.7 1.1 1zm166.2 1.9c0 2-.3 2.4-1.1 1.6-.7-.7-.9-1.9-.6-2.7 1-2.4 1.7-1.9 1.7 1.1zm-231.5.3c.3.5.1 1-.4 1-.6 0-1.1-.5-1.1-1 0-.6.2-1 .4-1 .3 0 .8.4 1.1 1zm24 8c.4.6-.7 1-2.7.9-3.1-.1-3.2-.1-.8-.9 1.4-.4 2.6-.8 2.7-.9.1-.1.5.3.8.9zm-498.3 9.2c-1.5 1.5-2.6.4-1.8-1.8.5-1.3.9-1.5 1.8-.6s.9 1.5 0 2.4zm686.8 1.4c0 .8-.4 1.2-1 .9-.5-.3-1-1-1-1.6 0-.5.5-.9 1-.9.6 0 1 .7 1 1.6zm-2.7 1.1c.3.5.1 1.7-.4 2.8-.6 1.7-.8 1.7-.8.2-.1-.9-.6-1.7-1.2-1.7-.5 0-.7-.5-.4-1 .7-1.2 2.2-1.3 2.8-.3zm3.2 4.3c.3.5.1 1-.4 1-.6 0-1.1-.5-1.1-1 0-.6.2-1 .4-1 .3 0 .8.4 1.1 1zm-10.5 3c0 .5-.4 1-1 1-.5 0-1-.5-1-1 0-.6.5-1 1-1 .6 0 1 .4 1 1zm-684 3.1c0 .6-.4.7-1 .4-.5-.3-1-1.1-1-1.6 0-.6.5-.7 1-.4.6.3 1 1.1 1 1.6zm-4 3.3c0 .3-.4.8-1 1.1-.5.3-1 .1-1-.4 0-.6.5-1.1 1-1.1.6 0 1 .2 1 .4zm735.5 2.6c.3.5.2 1-.4 1-.5 0-1.3-.5-1.6-1-.3-.6-.2-1 .4-1 .5 0 1.3.4 1.6 1zm-3 3.1c-.7 1.9-.4 2.1 2 1.5 1.6-.4 2.4-.3 2.1.3-1 1.5 1.3 2.4 2.9 1.1 1.1-.9 1.5-.9 1.5-.1 0 .6-.5 1.1-1.1 1.1-.5 0-.7.4-.4 1 .3.6-.1.7-1 .4-1.3-.5-1.5-.2-.9 2.2.9 3.4.9 3.3 0 11.1-.5 4.5-.3 6.3.5 6.3s.7.7-.3 2.2c-1 1.6-1.3 4.5-1.1 9.8.3 6.4 0 7.9-1.6 9.7-1.3 1.4-1.9 3.5-1.9 6.9-.1 7.6-2.7 12.7-4.7 9.4-.7-1.2-2.5-.4-2.5 1.1 0 .5.7.9 1.5.9s1.5.4 1.5 1c0 .5-.4 1-1 1-.5 0-1 1.1-1 2.5s-.4 2.5-1 2.5c-.5 0-1-.8-1-1.8-.1-1.6-.1-1.6-1 0-.6.9-.9 2.6-.8 3.8.2 1.7-.6 2.7-2.9 3.9-2.4 1.2-3.3 2.3-3.4 4.3-.1 1.6-.3 3.2-.4 3.8-.1.5-.3 1.4-.4 2 0 .5-1 1-2.1 1s-2 .4-2 1c0 .5-.8 1-1.7 1.1-1.1 0-1.3.3-.5.6 1.7.7 1.5 2.3-.4 2.3-.8 0-1.2.5-.9 1.1.7 1.1-1.4 3.5-5 5.8-1.5 1-1.6 1.1-.2.7 2.1-.7 2.4 1.9.3 3.1-.8.4-1.5 1.7-1.8 2.8-.2 1.2-1.1 2-2.3 2-1.1 0-2.6.4-3.2.8-.7.5-1.7.5-2.3.2-.9-.6-1.5 1.6-1.1 3.9.1.4-.4 1.4-1 2.2-.9 1.1-.7 1.4 1 1.4 1.1 0 2.1.5 2.1 1.1 0 .7-1.1.9-2.9.6-1.9-.4-3.1-.2-3.5.6-.3.9-.7.8-1.5-.3-1-1.4-1.2-1.3-1.5.9-.2 1.8-1.6 2.4-1.6.8 0-2.5-2.4-2.1-3.5.5-.6 1.4-2.2 2.6-4 2.9-1.6.4-2.6.7-2.1.8.5 0 .1 1-.9 2.1-1.7 1.9-1.8 1.9-3.5-.3-1.8-2.2-1.8-2.1-1.3 2.6.5 4.2.3 4.9-1.4 5.3-1.4.4-1.9 1.2-1.6 2.5.4 1.6 0 1.9-2.5 1.9-1.7 0-3.6.2-4.4.5-.7.3-1.7-.5-2.3-1.7-.8-1.8-1.7-2.2-4-2-2.3.3-2.7.1-1.8-.9.7-.7.9-2.4.6-4.2-.5-2.3-.3-2.8.6-2.2 1 .6 1.1.3.2-1.3-.6-1.1-1.1-2.5-1.1-3.1 0-1.5 2.7-1.4 3.3.1.4 1 .7 1 1.8 0s1-1.2-.4-1.2c-.9 0-1.7-.5-1.7-1 0-.6.9-1 2-1 1 0 2.5-.6 3.1-1.3.7-.7 2.5-1.1 4.1-.9 1.6.3 2.8 0 2.8-.7 0-.6-.6-1.1-1.2-1.2-1 0-1-.2-.1-.6.8-.3 1.1-1.4.7-2.9-.6-2.5 2.1-6.9 3.6-5.9.4.3 1-.5 1.4-1.7.3-1.4 0-2.6-.9-3.1-1.7-.9-2-3.7-.5-3.7.5 0 .6.8.3 1.7-.6 1.6-.5 1.6 1 .5.8-.8 1.3-2 1-2.8-.3-.8.8-2.4 2.5-3.9 2.1-1.8 2.9-3.1 2.5-4.6-.4-1.5 0-2.2 1.5-2.6 1.2-.3 2.4-1.5 2.8-2.7.9-2.7 4.5-6.6 6.2-6.6.7 0 1.2-.6 1.1-1.3-.3-1.7 1.9-6.7 2.9-6.7.4 0 1.6-1.4 2.5-3 1-1.7 2.5-3 3.3-3 .9 0 1.4-.7 1.2-1.8-.1-.9 1-4.1 2.5-6.9 1.5-2.9 2.7-6.2 2.7-7.3 0-1.1.7-2.3 1.5-2.6.8-.4 1.5-1.5 1.5-2.6s1.6-3.9 3.5-6.2c1.9-2.4 3.5-5.3 3.5-6.5 0-2 1-3.6 5.7-8.4 1.5-1.6 2-3 1.6-5-.4-1.8 0-3.4 1.2-4.7.9-1 1.4-2.3 1.1-2.8-.8-1.3 3-4.6 4.3-3.8.6.4 1.9-1.4 3.1-3.9 2.1-4.6 3.7-6.1 2.5-2.4zm-245.2 3.5c.9 4.9-1.5 8.8-3 4.8-.5-1.3-.7-1.3-1.4-.2-1.5 2.3-1 2.8 2.5 2.8 2.6 0 3.6-.5 4.1-1.9.4-1.2 1.2-1.8 2.1-1.4.7.3 1.4 0 1.4-.6s-.4-1.1-1-1.1c-.5 0-1-.7-1-1.5s.2-1.5.5-1.5c1 0 4 3.5 4 4.7 0 .7.3 1.3.8 1.3h2.3c1.3 0 1.4-.3.5-1.3-1.3-1.6-.5-2.7 2.1-2.7 1.5 0 1.7.4.9 1.8-1.4 2.7.5 4.5 3.3 3 1.5-.8 2.1-.8 2.4.1.2.6 1.5 2.5 2.9 4.1 2.2 2.7 2.3 3 .6 3-1.7.1-1.7.1 0 1.1 1.6 1 1.6 1.2-.5 2.9-1.3 1.1-1.7 1.9-1 2 .6 0 1.2-.5 1.2-1.1 0-2.1 4.5-.4 4.8 1.8l.3 2.2 3.5-2.1c1.8-1.1 3.2-2.4 2.9-2.8-.3-.4.2-1.4 1.1-2.1.8-.7 1.4-.8 1.3-.3-.4 2.3.3 3.4 2 3.4 1.1 0 2.3.4 2.6 1 .3.5 0 .7-.8.4-.8-.3-1.8 0-2.2.6-.6.9-.9.9-1.5 0-1.1-1.8-4.1-.4-3.4 1.5.3.8 1 1.2 1.5.9.5-.3.9.2.9 1 0 1.2.5 1.3 2.3.7 1.2-.5 3.2-.5 4.5 0 1.5.6 2.1.5 1.7-.1-.3-.6.3-1 1.4-1 1.1 0 2.6-.7 3.5-1.5 1.9-2 4-1.9 3.2 0-.3 1-.1 1.5.7 1.4.6-.1 2 .1 3.1.6 1.2.5 2.1.3 2.7-.6.5-.8.9-1 .9-.4.1 2.7 1.7 3.6 4.3 2.4 2.4-1.1 2.9-.9 5.3 1.6 1.6 1.7 2.2 3.1 1.5 3.3-1.7.6-1.3 2.2.5 2.2 1 0 .5.9-1.6 2.6-2.9 2.5-3.2 2.5-4.9 1-2-1.8-5.1-2.1-5.1-.5 0 .8-.5.7-1.5-.1-1.3-1.1-2-.8-4.5 2-1.6 1.8-2.7 3.6-2.5 4 .3.4-.5 1.1-1.8 1.4-2.1.6-2.1.7-.4 2 1.1.8 1.4 1.7.8 2-.5.4-1.3.2-1.6-.4-.5-.9-4.1-.5-5.3.5-.1.1.5 1.6 1.3 3.3 1 2 2.1 2.9 3 2.5 2-.7 1.9 1.7-.1 4.6-1.4 1.9-1.4 2.5-.3 3.2 1.2.8 1.2 1 0 1.8-1.6 1.1.1 2.3 2.2 1.5.8-.3 1.7.2 2.1 1.1.4 1 .2 1.4-.5.9-.7-.4-1-.1-.7.7.3.8 1 1.3 1.5 1.2.6-.1 2.8-.3 5.1-.4 3.8-.3 4-.4 3.5-3-.5-2.9 1.1-6.9 2.8-6.9.6 0 .9.6.6 1.3-.3.8-.1 2 .4 2.8.6 1 .9.7.9-1.4 0-1.5.2-2.7.4-2.7s1.1-.3 2-.6c.9-.3 1.6-.1 1.6.5s-.6 1.1-1.2 1.1c-.7 0-1.4 1.1-1.4 2.5-.2 2.1.1 2.4 1.2 1.4 1.1-.9 1.8-.9 2.6-.1.7.7 2 1.2 3 1.2s1.8.4 1.8 1c0 .5.5 1 1.1 1 .6 0 .8-.7.5-1.6-.4-1.1-.1-1.4 1.2-1 .9.3 3.1.7 4.9.8 1.7.1 3 .6 2.7 1-.3.4-1.2.4-2 .1-1.4-.5-1.5-.3-.5 1.5 1.4 2.6 1.4 4.5.1 3.7-.5-.3-1 .1-1 1s.3 1.4.8 1.2c.4-.3 1.5.6 2.5 1.9 1.5 2.1 1.6 2.4.2 2.4-1.8 0-2 2.1-.3 3.8.7.7.8 1.2.4 1.2-.5 0-.3.7.4 1.5.9 1 .9 1.5.1 1.5-.6 0-1.1 1.2-1.1 2.6 0 1.9.4 2.5 1.5 2 1.3-.4 1.3-.2.5 1.4-.9 1.7-6.4 4-9.7 4-.7 0-1.7.9-2.3 2-.6 1.2-.7 2-.1 2 .5 0 1.2-.5 1.4-1 .3-.6.4-.5.3.2-.2.7-1.1 1.2-2.2 1.1-1-.1-2.6.3-3.6.8-1.4.7-1.8.6-1.8-.6 0-.8.5-1.5 1.1-1.5.7 0 .9-1 .7-2.5-.4-1.8-.1-2.5 1.1-2.5.9 0 2.2-1.3 2.8-3 .9-2.5.9-3-.3-3h-1.9c-.3 0-.5.3-.6.7-.1 1.2-4.1 5.3-5.1 5.3-.5 0-.8-1.1-.6-2.3.1-1.4-.6-3.2-1.7-4.3-1.9-1.9-1.9-1.9-1.1.1.5 1.1.8 2.9.8 4-.1 1.1.8 3 2 4.2l2.1 2.3H650c-1.2 0-2.8-.7-3.4-1.6-1.1-1.4-1.4-1.3-3.6.5-1.4 1.1-2 2-1.4 2.1.5 0 1.6-.6 2.3-1.3 1-1 1.1-.8.5.8-.4 1.1-1 2.2-1.3 2.5-.3.3-1.1 1.5-1.8 2.6-1.3 2.4-.1 4.4 2.5 4.4 1.2 0 1.2.3.2 1.5-1.6 2-2.2 8.5-1 10 .7.8.2 2.4-1.5 4.9-2.9 4.3-3 4.7-1 4 .9-.4 1.5 0 1.5.9 0 1.9-1.6 3.1-2.5 1.8-1.2-2-3.7.1-3.1 2.5.4 1.3.3 2.4-.1 2.4-1.4 0-3.4 5.7-2.7 7.5.5 1.3.4 1.6-.4 1.1-.7-.4-1.2-.3-1.2.3 0 .5.5 1.1 1.2 1.3.7.3-.1 2.1-2 4.8-1.8 2.3-3.2 5.1-3.2 6.2 0 1-.5 1.8-1.1 1.8-1.3 0-7.9 6.9-7.9 8.3 0 .5-.8 1.6-1.7 2.4-1.6 1.3-1.6 1.4.7.8 2.2-.5 2.3-.5.7.6-1.4.8-2.2.8-3 0-1.7-1.7-6.7-1.4-6.7.4 0 .8.7 1.5 1.5 1.5s1.5.4 1.5 1c0 .5-1.1 1-2.4 1-2 0-2.3.4-1.9 2.1.5 1.9.3 2-1.8 1.4-1.3-.4-2.7-1.2-3.1-1.8-.4-.7-1.2-.6-2.3.3-1.3 1.1-2.1 1.1-3.5.2-1.6-1-1.8-.9-1.4.3.4.8.2 1.5-.4 1.5-.5 0-1.2-1.4-1.6-3-.6-3.1-4.3-5.5-6.9-4.4-.7.2-2.4-.7-3.6-2-1.3-1.4-2.8-2.3-3.2-2-.5.3-.9 0-.9-.5 0-.6-.6-1.1-1.4-1.1-.8 0-1.6-.5-1.8-1.2-.2-.6-1.5-1.2-2.9-1.4-1.3-.1-3.5-.5-4.9-.9-2-.5-2.2-.5-1 .5 1.2 1 1.1 1.1-.8.7-1.5-.4-2.7.2-3.7 1.6-.8 1.2-2.7 2.2-4.2 2.3-1.6.1-3.3.3-4 .3-.7.1-1 .7-.7 1.5.3.7-.2 1.6-1 1.9-.9.4-1.3 1.3-1 2.2.3.8.2 1.5-.2 1.5-1 0-5.4-6.5-5.4-7.9 0-.9-.9-1.3-6.1-2.7-1.2-.3-2 .5-2.7 2.6-1.2 3.2-4.1 4-6.1 1.6-.9-1-.8-1.6.4-2.6.8-.7 1.5-.9 1.5-.4 0 .4.5.3 1.1-.3.8-.8.5-1.7-1.1-3.3-1.9-1.9-2.1-2-1.6-.3.4 1.2-.1 2.3-1.5 3.1-1.2.8-2.2 1.2-2.3 1 0-.2-1-1.3-2-2.5-1.8-2.1-1.8-2.3.2-4.8l2.1-2.7-3.9-4c-2.9-3.1-4.4-3.9-6.3-3.6-2 .4-2.4.1-2.4-2.3 0-1.8.6-2.9 1.9-3.2 2.2-.6 2.4-3.7.3-3.7-.8 0-1.5.5-1.5 1.2 0 .6-.6.3-1.4-.8-.8-1-1.2-2.1-1-2.4.3-.2 1 .2 1.5 1 .8 1.2 1 1 .6-.8-.6-2.4.3-2.8 2.1-1 .7.7 1.3.9 1.3.5.1-.4.2-1 .3-1.5 2.1-9 1.6-11.4-1.5-8.6-1.7 1.5-1.9 1.5-1.9.1 0-.9.5-1.9 1-2.2 1.6-1 1.2-2.3-.9-3-3.1-.9-1.4-4 3.5-6.2 4.5-2.1 5.6-1.7 2.9 1.1-1.9 1.8-1.9 5.2-.1 6.3.7.4 1.6 1.5 1.9 2.3.4 1 .6.7.6-.8.1-1.2.6-2.2 1.2-2.2 2.2 0 4.2-3.2 4.7-7.6.4-3.7.2-4.4-1.2-4.4-1.3 0-1.6.5-1.1 2 1.1 3.5-.4 8-2.5 7.7-2.6-.4-3.7-1.6-2.3-2.5.6-.4 1.2-3.2 1.4-6.2.1-3 .5-6 .8-6.5.3-.6.7-1.9.8-3 .2-1.1 1-2.5 1.9-3.2.9-.6 1.3-1.6.9-2.2-.3-.6-.3-1.1.2-1.1.4 0 1.3-1.1 1.9-2.4.9-2 .8-2.8-.5-4.1-1.5-1.6-1.4-1.7.6-1 1.8.5 2.2.3 1.7-.9-.4-1.1 0-1.6 1.1-1.6.9 0 1.4-.4 1.1-.9-.4-.5 0-1.2.6-1.4.9-.4.8-.6-.3-.6-2.7-.2-1.2-5.5 2.1-7.4 1.5-1 3.5-1.7 4.3-1.7 1.6 0 2.7-3.8 1.8-6.1-.7-1.7-3.1-2.3-3.1-.8 0 .7-.9 0-2.1-1.5-1.8-2.3-1.9-3.1-1-5.8 1.4-4 1.4-4-.9-2.6-1 .7-2.3.8-2.7.4-.4-.5-.3-1.1.4-1.3 1.4-.5.6-6.4-1-7.4-.5-.4 1.1-2.7 3.5-5.2 3.3-3.3 4.5-5.3 4.6-7.6 0-1.7-.4-3.1-.9-3.1s-.9-1.7-.9-3.8v-3.8l4 .4c2.3.2 4 .9 4 1.7 0 1.4 5.6 1.8 8.1.5 1.2-.7 2.1-.5 2.9.5.9 1.1 1.7 1.2 3 .5 3-1.6 3.7-1.1 1.2 1-1.3 1.1-2 2.4-1.7 3.1.5.7 1 .8 1.8 0 .7-.7 1.4-.7 2.4 0 1 .9 1.3.7 1.3-.8 0-2.4-2.6-6.1-3.5-5.1-1.3 1.2-4.5-1.2-4.5-3.3 0-1.1-.7-2.2-1.5-2.5-.9-.4-1.5-1.9-1.5-3.9 0-2.5-.5-3.4-2.2-3.8-1.8-.5-1.9-.8-.8-2.1.7-.9 2.3-1.6 3.5-1.6 1.3 0 2.5-.5 2.7-1.2.3-.7 1.1-.9 2.4-.3 1 .4 2.2.7 2.7.7.4-.1.7.2.7.8 0 2.2 1.9.8 2.9-2.1.9-2.6 1.3-2.9 3.1-1.9 1.1.6 2 1.6 2.1 2.3 0 .7.5-.2 1.1-1.8.6-1.7 2-4.2 3-5.7 1.5-2.2 2.3-2.6 3.7-1.8 1 .5 2.1 2.1 2.4 3.6zM602 730c0 .5-.4 1-1 1-.5 0-1-.5-1-1 0-.6.5-1 1-1 .6 0 1 .4 1 1zm11 11.1c0 .6-.4.7-1 .4-.5-.3-1-1.1-1-1.6 0-.6.5-.7 1-.4.6.3 1 1.1 1 1.6zm4-.7c0 .3-.4.8-1 1.1-.5.3-1 .1-1-.4 0-.6.5-1.1 1-1.1.6 0 1 .2 1 .4zm-195.8 15.1c0 .5-.5 1.1-1.1 1.3-.6.2-1.1-.4-1.1-1.3s.5-1.5 1.1-1.3c.6.2 1.1.8 1.1 1.3zm241.9.5c2.7 0 3.4 2 1.4 3.8-1 1-1.5 1.2-1.1.5.9-1.6-1.1-2.7-2-1.1-.8 1.2-2.2-1.3-2.3-4.2-.1-1.1.2-1.1 1.1-.2.7.7 2 1.2 2.9 1.2zm5.3.5c-.4.8-.8 1.5-1 1.5-.2 0-.4-.7-.4-1.5s.4-1.5 1-1.5c.5 0 .7.7.4 1.5zm18.1 13.4c-.3.6-1.1 1.1-1.6 1.1s-.4-.6.3-1.4c1.4-1.6 2.4-1.3 1.3.3zm-46.5 2.2c0 1.1-2.7 1.2-3.4.1-.2-.4.4-.9 1.5-.9 1-.1 1.9.2 1.9.8zm-2.5 3.9c.3.5.2 1-.4 1-.5 0-1.3-.5-1.6-1-.3-.6-.2-1 .4-1 .5 0 1.3.4 1.6 1zm3.5 3c0 .5-.4 1-1 1-.5 0-1-.5-1-1 0-.6.5-1 1-1 .6 0 1 .4 1 1zm23 5.5c-1 1.2-.9 1.6.5 2.1 1.3.5 1.4.9.3 1.5-1.9 1.2-2.5 1.1-3.2-.6-.3-.8.2-2.1 1-3 2-1.9 3-2 1.4 0zm-131.6 6.1c.3.8.2 1.2-.4.9-.6-.3-1-1-1-1.6 0-1.4.7-1.1 1.4.7zm185.9.8c.3.8.3 1.7 0 2-.9.9-3.4-1.5-2.7-2.5.8-1.3 2.1-1.1 2.7.5zm-40.9 15.8c-.5.8-.1.9 1 .5.9-.4 1.4-.3 1.1.2-.3.5-.1 1.2.5 1.6 1.8 1.1 1.1 3.5-1 3.5-1.2 0-2-.7-2-1.8 0-.9-.3-2.8-.7-4.1-.4-1.7-.3-2.2.6-1.7.6.4.8 1.2.5 1.8zm-150.7 9.5c1.7 2.5.8 3-1.9 1-1.1-.9-1.4-2.1-1-4.2.5-2.3.7-2.6 1-1 .2 1 1.1 2.9 1.9 4.2zM658 828c0 .5-.5 1-1.1 1-.5 0-.7-.5-.4-1 .3-.6.8-1 1.1-1 .2 0 .4.4.4 1zm-134.5 8c.3.5.1 1-.4 1-.6 0-1.1-.5-1.1-1 0-.6.2-1 .4-1 .3 0 .8.4 1.1 1zm270 3c-.3.5-1.1 1-1.6 1-.6 0-.7-.5-.4-1 .3-.6 1.1-1 1.6-1 .6 0 .7.4.4 1zM769 857c0 .5-.7 1-1.6 1-.8 0-1.2-.5-.9-1 .3-.6 1-1 1.6-1 .5 0 .9.4.9 1zm-18.7 6.7c-.7.2-1.9.2-2.5 0-.7-.3-.2-.5 1.2-.5s1.9.2 1.3.5zm-115 12.2c-.5.3-1.3 1.5-1.6 2.5-.4 1-1 1.6-1.4 1.2-.3-.3.2-2.2 1.3-4.2 1.4-2.5 2-3 2.2-1.8.2.9 0 1.9-.5 2.3zm5.7-2.9c0 .5-.2 1-.4 1-.3 0-.8-.5-1.1-1-.3-.6-.1-1 .4-1 .6 0 1.1.4 1.1 1zm397.5 92.9c.3.5.1 1.2-.5 1.6-.5.3-1-.1-1-.9 0-1.8.6-2.1 1.5-.7zm7.6 8.4c.4 1.6.4 3.8 0 5-.7 2-.8 2-1.5.1-.3-1-1.3-3-2.1-4.3-.7-1.4-1.1-2.9-.8-3.3 1-1.8 3.7-.2 4.4 2.5zm-546.9 4.2c.3-.3 1.5.6 2.8 2 2.7 2.8 4 3.2 4 1 0-1.1 1.2-1.5 5-1.5 4.4 0 5 .2 5 2.1 0 2 .4 2.1 4.1 1.6 2.3-.3 4.9-.2 5.8.2.9.4 2.5 1.3 3.7 1.8 1.3.7 2.6.8 3.8.1 1.8-1 5.4-.3 4.2.9-.3.4.4 1.7 1.6 3 2.3 2.4 3.8 3 3.8 1.3 0-.6-.7-1-1.5-1s-1.5-.5-1.5-1c0-1.7 15.6-1.2 19.8.7 2.7 1.2 3.2 1.7 2 2-1 .3-1.8.9-1.8 1.4 0 1.3 4.4 1.1 5.7-.2 2.5-2.5 18.4-1.5 21.9 1.3.7.5 1.7.3 2.5-.5 2.3-2.3 18.9-4.8 18.9-2.8 0 .5-.6 1.1-1.2 1.4-.8.2-.9.8-.4 1.3s1.1.4 1.3-.4c.3-.6 1.1-1.2 1.9-1.2.8 0 1.4-.5 1.4-1.2 0-.9.3-.9 1.2 0 .7.7 2.2 1.2 3.5 1.2 1.3 0 2.3.6 2.3 1.4 0 2.1-1.4 2.7-6 2.8-5.3.1-5.8 1.3-2.1 4.6 2.5 2.2 4.1 2.7 8.1 2.7 3.2 0 5 .4 5 1.2 0 .7.7 1.6 1.6 2.1 1.4.8 1.4 1-.1 2.2-3.9 3.3-5.9 3.7-7.6 1.6-1.6-1.9-1.7-1.9-3.4-.2-1.5 1.5-1.6 1.9-.4 2.7 1.1.7.8 1.4-1.6 3.4-1.6 1.3-3.6 2.4-4.2 2.5-.7 0-1.3.7-1.3 1.7 0 1.5-.1 1.5-1.9-.1-1.6-1.5-1.9-1.5-3.1-.1-.8 1-.9 1.5-.1 1.5.6 0 1.1.4 1.1 1 0 .5-.9 1-2 1-2.4 0-5.8 3.1-5.2 4.8.2.7-.3 1.2-1.2 1.2-2.1 0-3.1 2.1-1.5 3.1 1.2.8 1.2 1.1-.1 1.9-1.3.9-1.3 1.1 0 2 1.3.9 1.3 1.1 0 2-1.9 1.2-3.7 1.2-7.8.1-3.5-1-4.4.3-1.9 2.8 1 1.1.8 1.3-1.1.8-1.2-.3-7.4.1-13.8.9s-12.3 1.3-13.2 1.2c-1.3-.2-1.7.5-1.6 3.3l.1 3.7-4.6-.2c-6.1-.4-11.3-2.7-13-5.9-.8-1.5-1.9-2.7-2.4-2.7s-1.7-1-2.8-2.3c-1-1.3-1.8-1.7-1.9-.9 0 2.1-2 .3-2-1.8 0-1-.5-2-1.1-2.2-.7-.2-2-2.4-2.9-4.8-1.6-4-2.1-4.5-4.9-4.4-1.7.1-3.1-.2-3.1-.7 0-.5-1-.9-2.2-1-1.3 0-1.7-.3-1-.6 1.7-.7 1.5-2.3-.4-2.3-1.1 0-1.4-.6-.9-2.1.6-1.8.4-2-1.4-1.4-1.4.4-3.4-.1-5.6-1.5-3.3-2-4.7-5-2.4-5 .6 0 .9-1.6.7-3.8-.3-3.6-.4-3.7-5.5-4.6-4.1-.7-5.3-1.3-5.3-2.7 0-1-.4-2.1-1-2.4-1.7-1-1.1-4.4 1-5.7 2.4-1.5 2.6-4.6.5-5.4-.8-.4-1.5-1.5-1.5-2.5s-.5-1.9-1.2-1.9c-.6 0-.8-.3-.5-.7.4-.3.2-1.2-.4-2-.9-1-.4-1.3 2.4-1.3 2 0 3.9-.5 4.2-1 .4-.7 1.2-.7 2.4 0 1 .5 2 .7 2.3.5zm-11 13.7c-.9.9-1.2.7-1.2-1.2s.3-2.1 1.2-1.2c.9.9.9 1.5 0 2.4zm132.8 9.2c0 .3-.4.8-1 1.1-.5.3-1 .1-1-.4 0-.6.5-1.1 1-1.1.6 0 1 .2 1 .4zm447.4 6.1c-.7 1.8-.8 1.8-1.4-.1-.9-2.3-.1-3.9 1.1-2.7.6.6.6 1.8.3 2.8zm-337.9-.4c-.4.5.1 2.6 1 4.5.9 2 1.4 3.8 1.1 4.1-.3.4-.6.1-.6-.5 0-1.7-2.7-1.5-3.3.2-.7 1.7-5.7 2.8-5.7 1.2 0-1.4-4-4-4.8-3.1-.4.4.1 1.1 1.1 1.6.9.6 1.5 1.4 1.2 1.9-.8 1.3 2.5 2.1 6 1.4 2.6-.5 3.4-.1 4.8 2 1.2 1.8 1.4 3.1.8 4.8-.6 1.3-1 1.7-1 1-.1-.6-.8-1.2-1.7-1.2-1 0-1.4.6-1 1.5.7 2-.9 1.9-3-.2-1.6-1.6-1.6-1.6-.9.7.4 1.4 1 3.1 1.2 3.8.3.8 0 1-1 .7-.8-.4-3.6.4-6.1 1.6-3.5 1.6-5 1.9-5.9 1-1.8-1.8-3.6-1.3-3 .8.3 1 0 2.2-.6 2.5-.6.4-1.1.2-1.1-.3 0-.6-.6-1.1-1.4-1.1-.9 0-1.2-.7-.9-2 .4-1.6 0-2-2.3-2.1-1.6 0-2.3-.3-1.6-.6.6-.2 1.2-.9 1.2-1.5s-.7-.5-1.6.3c-1.1.9-1.4 2.2-.9 4.7.6 3.3.5 3.4-1 1.8-1.6-1.6-1.9-1.5-4.2.8-1.4 1.4-2.3 3.2-2 4 .3.7.1 1.8-.5 2.4-1.3 1.3.6 4.2 2.8 4.2.8 0 1.1.6.8 1.5-.4.9 0 1.5 1 1.5.9 0 1.6-.7 1.6-1.5s.9-1.5 1.9-1.5c1 0 1.9.6 1.8 1.2-.1 3.9.5 5.8 1.8 5.8 1.9 0 2 4.3.2 5.8-.7.6-2.3.9-3.5.5-2.6-.6-2.8.4-.5 2.9 1.4 1.6 1.5 2.1.2 4.4-1.2 2.3-1.8 2.5-5.1 2-4-.7-9.4 1.7-8.2 3.5.3.5.9.7 1.4.4.5-.3 1.1-.1 1.5.5.3.6 0 1.3-.9 1.6-.8.3-1.2 1.2-.9 2 .3.8 0 1.4-.5 1.4-.6 0-1.4-.9-1.7-2-.3-1.1-1-2-1.4-2-1 0-3.1 4.5-3.1 6.5 0 .9-1 1.5-2.3 1.5-1.3 0-2.8.5-3.4 1.1-.7.7-1.2.2-1.6-1.9-.5-2.5-1-2.9-3.1-2.5-1.4.3-2.7 1.3-2.9 2.2-.3.9-.5-.1-.6-2.1l-.1-3.6 3.6 1c2.8.7 3.9.7 4.6-.4.7-1.1 1.1-1 2.1.3 1.1 1.4 1.4 1.4 2.6.2 1.1-1.2 1-1.6-.5-2.8-1.3-.9-2.3-1-3.1-.3-1.6 1.3-1.6.6-.1-2.7.6-1.4 1.7-2.6 2.5-2.7.7 0 1.9-.1 2.6-.2 1.5-.1 4.8-2.8 4.2-3.4-.3-.3-1.1.1-1.9.7-1.3 1.1-1.5.6-1-3.6.5-5.2-.9-8.9-2.5-6.4-.6 1-1.3 1.1-2.9.2-1.4-.7-2.3-.8-2.7-.1-.3.6.1 1.3.9 1.6 3.3 1.3 1.1 6.4-2.7 6.4-1.5 0-1.8.5-1.5 2.5.4 2 .3 2.3-.8 1.4-1.1-.9-1.5-.7-2 .6-.5 1.2-.9 1.3-1.4.4-.5-.7-1.6-.9-2.6-.5-1.6.6-1.6.8-.4 1.6 2.4 1.5.6 1.1-2.8-.6-1.8-.8-3.2-2-3.2-2.6 0-.6.6-.5 1.5.2s1.9 1 2.3.6c.4-.4-.1-1.3-1.1-2-.9-.7-1.7-1.8-1.7-2.5 0-1.7 3.8-5.2 4.5-4.1 1 1.6 2.8 1.1 2.1-.5-.4-1.2 0-1.4 2.1-.9 2.3.6 2.5.4 2.1-1.3-.4-1.6-.1-1.9 1.2-1.6 2.1.6 3.7-3.1 2.2-5-.5-.7-1.3-2.7-1.7-4.5-.5-2.3-1.2-3.2-2.6-3.2-1.6 0-1.8-.3-1-1.9.6-1 .7-2.1.4-2.5-.7-.6 1.2-1 3.6-.7.7.2 1-.2.7-.8-.8-1.3 2.6-3.1 5.9-3.1 1.5 0 3.3-.7 4.2-1.6.9-.8 2.2-1.3 3-.9 1.1.3 1.3.1.9-1s.2-1.5 2-1.5c2 0 2.5-.4 2-1.6-.3-.8-.2-1.2.4-.9.6.3 1 .1 1-.4 0-1.5 2.3-1.4 3.8.1 2.2 2.2 7 1.6 8.3-1 .7-1.2 2.2-2.2 3.5-2.2 1.2 0 3.2-.9 4.5-2 2.1-1.7 2.2-1.9.6-2-1.5 0-1.8-.7-1.5-3.3.3-2.9.7-3.3 4.3-3.8 2.2-.3 5-.9 6.1-1.3 1.7-.5 2.2-.3 2 1-.1 2.1 1.4 2.7 3.4 1.4 1-.7 1.2-1.2.4-1.8-.6-.4-1.4-1.7-1.8-3-.6-1.9-.4-2.2 1.9-2.2 1.6 0 2.4.4 2 1.1zm-326.5 6c0 .5-.7.9-1.5.9-1.5 0-2-1.2-.9-2.3.8-.8 2.4.1 2.4 1.4zm661.6 4.4c.7 2.9.1 4.1-1.5 3-1.4-.8-1.4-5.5-.1-5.5.5 0 1.2 1.1 1.6 2.5zm-653.9-.9c-.3.3-1.2.4-1.9.1-.8-.3-.5-.6.6-.6 1.1-.1 1.7.2 1.3.5zm470.3 4.9c-.7.8-1.7 1.2-2.3.8-.6-.4-.3-1.1.8-1.9 2.3-1.7 3.2-1 1.5 1.1zm-282 6.5c0 .5-.4 1-1 1-.5 0-1-.5-1-1 0-.6.5-1 1-1 .6 0 1 .4 1 1zm113.7 12.7c.2.6-.8 1.3-2.2 1.5-2.7.6-3.2-.1-1.3-2 1.4-1.4 3-1.1 3.5.5zm-2.7 5.9c0 .9 1 2.4 2.3 3.5 2.4 2 1.3 2.4-2.6 1-2.3-.9-2.6-1.8-1.8-6.4.2-1.4 2.1.3 2.1 1.9zm.7 6.9c.8.9 1.3 1.9 1 2.2-.6.5-3.7-2.1-3.7-3.1s1.1-.6 2.7.9zm325.5 2c.3 1.4.1 2.5-.3 2.5-.5 0-.9-1.1-.9-2.5s.2-2.5.4-2.5.6 1.1.8 2.5zm-544.5 3.7c-.3.8-.6.5-.6-.6-.1-1.1.2-1.7.5-1.3.3.3.4 1.2.1 1.9zm595.3 12.2c-1.1 3.5-3.6 5.3-2.6 1.8.3-.9.8-3 1.2-4.5.4-1.9 1-2.5 1.6-1.9.7.7.6 2.3-.2 4.6zm-591.7-1.9c.1 1.7-5.2 3-6.6 1.6-1-1-.8-1.5.6-2.6 1.9-1.4 5.8-.7 6 1zm3.4-.3c-.3.8-.6.5-.6-.6-.1-1.1.2-1.7.5-1.3.3.3.4 1.2.1 1.9zm6.3 2.4c-.7 2.9-.5 3.4.6 3 .8-.3 1.4.1 1.4 1 0 1.2-.6 1.5-2.5 1-1.4-.4-2.5-.2-2.5.4 0 1.9-1.5 1-2.8-1.7-1-2.3-1-3 .3-4.2 1.3-1.4 1.5-1.3 1.5.3 0 2.1 2.4 1.6 2.6-.5.2-2.4.4-2.9 1.3-2.9.5 0 .5 1.5.1 3.6zm11.9 1.3c2.4 2.2 4 4.4 3.7 4.9-.3.5.8 2.2 2.4 3.7 2.9 2.8 3 2.8 3 .7 0-1.5-.6-2.2-2-2.2s-2-.6-1.9-2.3c.1-1.5.3-1.7.6-.6.5 2 4.4 3.2 5.7 1.9.6-.6 1.6-1 2.4-1 1.2 0 1.2.3.2 1.5-.6.8-.9 2.3-.5 3.5.6 2 2.5 2.5 7.8 2.1 1.5-.1 2.7.2 2.7.8 0 .5.5 2.2 1.2 3.8.6 1.5 1.1 3.1 1 3.5-.3 1.2 3.2-.4 4.5-2 1-1.2 1.5-1.3 2.8-.2 1.1.9 1.5.9 1.5 0 0-.8 1-.9 3-.5 1.8.4 3.6.2 4.4-.5 1.1-.8 2.6-.8 6 .1 4.2 1 6.3 2.9 3.4 2.9-2 .1 2.4 3 4.4 3 1 0 1.8.7 1.8 1.5s.2 1.5.4 1.5 1.1.3 1.9.6c.8.3 2.2-.2 3.1-1.1.9-1 2.4-1.4 3.3-1.1 1.2.5 1.4.9.5 1.8-1.8 1.8-1.4 3.8.6 3.8 1 0 .4.7-1.5 1.6-1.8.9-3.3 2-3.3 2.4 0 .4-1 1-2.2 1.3-2.1.6-2.1.7-.4 2.6 1.3 1.4 1.4 2.1.5 2.6-.8.6-.7 1 .5 1.7.9.5 1.4 1.3 1.1 1.9-.8 1.1.8 1.2 2.1 0 .5-.4 2.4-1.1 4.2-1.5 4.1-.7 4 1.2-.1 3.2-1.5.7-2.7 1.8-2.7 2.5 0 2.1 1.7 4 2.9 3.3.6-.4 1.1-.2 1.1.5s1 .9 2.4.7c1.7-.4 2.3-.1 1.9.9-.3.7 0 1.3.7 1.3.6 0 .9.4.6.9-.7 1-2.5.9-4.2-.2-1.4-.8-7.4 2-7.4 3.4 0 .6-.5.7-1 .4-.7-.4-.7-1.2 0-2.5s.6-2.1-.5-3c-.9-.7-1.3-2.1-1-3.1.5-1.4.1-1.6-1.5-1.2-1.6.4-2 .1-2-2.1 0-1.6.5-2.6 1.5-2.6.8 0 1.5-.5 1.5-1 0-.6-.4-1-1-1-1.5 0-5 3.3-4.4 4.2.9 1.4-.7 3-1.9 2-1.8-1.4-4.6-1.1-4 .5.4.9-.6 1.3-3.5 1.3-2.2 0-4.2.4-4.4.9-.1.4-1.2 1.1-2.4 1.5-1.5.5-2.4 0-3.4-2l-1.4-2.6-.8 2.7c-.3 1.5-.4 3.3-.1 4.1.7 1.8 9.2 5.6 11 5 2.3-.9 1.4 1.1-1.2 2.8-1.4.9-2.5 2.3-2.5 3.1 0 1-.8 1.4-2.2 1.1-1.3-.2-2.9.1-3.6.7-.9.7-2 .6-3.7-.1-1.6-.8-2.5-.8-2.5-.1 0 .5-.6.9-1.2.8-.7-.1-3.1.1-5.3.5-8.2 1.4-9.8 1.6-9.2 1 .4-.4.2-1.3-.4-2-.8-.9-.5-1.5 1-2.4 2.8-1.4 2.7-3.3 0-2.5-1.3.4-1.9.3-1.5-.3.3-.5-.8-.9-2.7-1-3.9 0-7.7-1.1-7.7-2.3 0-1.3-5.7-1.1-8.2.2-2.5 1.3-4.1-.4-3.5-3.9.3-1.6-.1-2.2-1.4-2.2-1.1 0-1.9-.5-1.9-1.2 0-.6-.9-.2-2 1-2.6 2.7-3.2 2.7-4.8.2-.7-1.2-2-1.9-3-1.8-1 .2-1.6-.3-1.4-1 .2-.9-.4-1.2-1.6-.8-1.3.4-1.8.1-1.8-1.4 0-1.1.5-2 1.1-2 .5 0 .2-.5-.8-1.1-.9-.5-2.2-.7-2.8-.3-.7.4-.9 0-.5-1.4.5-1.5.1-2.4-1.4-3.2-1.1-.6-2-1.7-2-2.6 0-.8-.6-1.7-1.4-2-.8-.3-1.2-1.3-.8-2.6.4-1.8.2-1.9-1.6-.9-1.9 1-2 .9-.9-2 1-2.4.9-3.2-.3-3.9-1.1-.7-1.2-1.2-.4-2 1.2-1.2 6.4.6 6.4 2.2 0 .4.6.8 1.4.8.9 0 1.2-.7.9-2-.4-1.6-.2-1.9 1.1-1.4.9.3 1.6.2 1.6-.4 0-1.4-2.8-2.3-3.5-1.2-1.1 1.8-2.6 1-2-1 .4-1.2.2-2.7-.5-3.5-.7-.8-.7-1.6-.1-1.9 1.1-.7.3-4.6-1-4.6-.5 0-.9.7-.9 1.6 0 2.2-2.1 1.2-3.1-1.4-.6-1.6-.5-2.2.6-2.2 1.7 0 2-3.2.6-5.9-2-3.7 2.5-5.8 7.2-3.5 1.8.9 4.1 2.6 5.2 3.7 1.9 2.1 2 2.1 2.4.2.4-2.6 2.1-4.6 3.2-4 .4.3.5 1.3.2 2.2-.4 1.1-.3 1.4.5.9.8-.5 1.2.1 1.2 1.6 0 1.6-.3 1.9-.9 1-.7-1.1-.9-1.1-1.4.2-.4 1 .1 2.4 1.2 3.5 1.7 1.7 1.8 1.7 3-1.5 1.3-3.6 2.5-4.3 3.5-1.9.3.8 1 1.5 1.6 1.5.6 0 .8-.5.5-1-.3-.6.1-1 .9-1 1.9 0 1.9-.1.6-3.5-1.1-3 .5-6.5 3.1-6.5.9 0 3.5 1.8 5.8 3.9zM481 1071c0 .5-.5 1-1.1 1-.5 0-.7-.5-.4-1 .3-.6.8-1 1.1-1 .2 0 .4.4.4 1zm231.1 2.3c-.6.8-.8 1.7-.4 2 .3.4-.1.7-1 .7-1.9 0-2-.2-1.1-2.4.3-.9 1.3-1.6 2.1-1.6 1.2 0 1.3.3.4 1.3zm-47.1 3.6c0 .6-.4 1.3-1 1.6-.5.3-1-.1-1-.9 0-.9.5-1.6 1-1.6.6 0 1 .4 1 .9zm381 1.7c0 1.4-.4 2.3-.9 2-.5-.3-.7-1.5-.4-2.6.7-2.8 1.3-2.5 1.3.6zm-482.6 2c.9 2.2-.3 3.2-1.4 1.4-1.2-1.9-1.2-3-.1-3 .5 0 1.2.7 1.5 1.6zm-15.7 6.2c.1 2.3-.1 3.2-.6 2.4-.4-.8-1.1-1.3-1.5-1.3-2 .3-2.6-.1-2.5-1.7 0-1 .3-1.2.6-.5.9 2.3 2.3 1.4 2.3-1.4 0-3.9 1.3-1.9 1.7 2.5zm9.7-.9c.3.5 0 1.4-.7 1.9-1 .8-1.3.6-1.4-.9-.2-1.9 1.1-2.6 2.1-1zm120.1 2c.7 1.2-1.2 2.4-2.5 1.6-1.1-.7-.4-2.5 1-2.5.5 0 1.1.4 1.5.9zm7.9.6c-.8 1.9-3.6 3.5-6.1 3.5-1.1-.1-.7-.6 1.3-1.4 1.8-.8 3.5-1.9 3.8-2.5 1-1.6 1.6-1.3 1 .4zm-31.9 2.9c2.1-.8 1.9.9-.4 3-1.7 1.6-1.9 1.6-2.5-.6-.3-1.3-.6-3.2-.5-4.3 0-1.8.1-1.8.9.2.6 1.5 1.5 2.1 2.5 1.7zm-11.1 1.4c1 3.6 2.7 4.4 2.3 1-.3-3.3 2.9-3.5 4.6-.2 1.1 2.1 1.2 3.4.3 5.6-.8 2.3-.8 3.1.3 3.8 1.2.7 1.2 1.1.2 2.4-1.7 2-3.2 2.1-2.5.1 1-2.4-1.3-1.7-3.4 1-1.1 1.4-2.2 2.5-2.5 2.5-.2 0-.7-2.4-.9-5.3-.3-3.7-1.1-6-2.6-7.5-2.5-2.5-2.8-4.2-1-6 2-2 4.2-.9 5.2 2.6zm31.9.8c-.9 2.3-2.3 1.6-2.3-1.2 0-2.2.2-2.4 1.4-1.4.8.6 1.2 1.8.9 2.6zm-206.3-.7c0 .6-.4 1.3-1 1.6-.5.3-1-.1-1-.9 0-.9.5-1.6 1-1.6.6 0 1 .4 1 .9zm109.1 0c-1.2.8-5.1.4-5.1-.5 0-.2 1.5-.4 3.3-.4 2.2 0 2.8.3 1.8.9zm93.9 1.2c0 .5-.4.9-.8.9-.5 0-.9-.7-.9-1.5s.4-1.2.9-.9c.4.3.8.9.8 1.5zm-3.2 2.4c-.4 1.9-.1 2.5 1.3 2.5 2.5 0 2.4 1.2-.3 3.7-3.1 2.8-5.6 3.5-7.9 2.3-2.8-1.6-2.3-3 1.1-3 2.9 0 3-.2 2.7-3.5-.5-3.8-.1-4.5 2.1-4.5 1 0 1.3.8 1 2.5zm-195.5.4c.5 2.2-.1 3.3-1.4 2.5-1.2-.7-1.2-4.4 0-4.4.5 0 1.1.9 1.4 1.9zm164.7 2.5c0 .8.4 1.6 1 1.8.5.1-.2.8-1.5 1.5-1.9.8-2.3.8-1.8 0 .4-.7.6-2 .5-3-.2-.9.2-1.7.7-1.7.6 0 1.1.6 1.1 1.4zm26 .2c0 .8-.5 1.2-1 .9-.6-.4-.8-1.1-.5-1.6.9-1.4 1.5-1.1 1.5.7zm-62.5 3.4c1.7 1.8 1.7 2 .2 1.4-1-.3-1.7-.1-1.7.5 0 1.4 4.8 3.3 6.2 2.5.6-.4 1.4 0 1.9.7 1.3 2 1.1 2.9-.5 2.9-.8 0-1.6.4-1.8.8-.1.5-1.4.5-2.8.1l-2.5-.7 2.5-.1 2.5-.2-2.4-1.9c-1.3-1.1-2.9-2-3.7-2-.8 0-1.4-.3-1.4-.8 0-.4-.3-1.7-.6-3-.8-2.9 1.6-3 4.1-.2zm77.7 3.2c-.5.5-2.5 1.2-4.3 1.3-1.9.2-4.9.7-6.6 1.1-2.2.4-3.3.2-3.3-.5 0-.6.4-1.1.9-1.1s1.7-.7 2.5-1.6c.9-.8 1.6-1.1 1.6-.5 0 .6 1.8 1.1 4 1.1 2.9 0 4.3-.5 4.7-1.7.5-1.2.8-1.3 1.1-.4.2.7 0 1.7-.6 2.3zM630 1105c0 .5-.2 1-.4 1-.3 0-.8-.5-1.1-1-.3-.6-.1-1 .4-1 .6 0 1.1.4 1.1 1zm452.6 2.2c-2.1 1.2-4.2-.4-3.2-2.1.5-.8 1.3-.8 2.8 0 2 1.1 2 1.2.4 2.1zM476 1107c0 .5-.4 1-1 1-.5 0-1-.5-1-1 0-.6.5-1 1-1 .6 0 1 .4 1 1zm196.5 2c.3.5.1 1-.4 1-.6 0-1.1-.5-1.1-1 0-.6.2-1 .4-1 .3 0 .8.4 1.1 1zm-77.8 2.2c-.3.8-.6.5-.6-.6-.1-1.1.2-1.7.5-1.3.3.3.4 1.2.1 1.9zm67.4-.1l2.4 2-2.4-1.2c-2.1-1-2.3-.9-1.9.7 1 3.3 1 3.9.9 6-.1 1.4-1.6 2.9-4.6 4.5-2.5 1.3-4.5 3-4.5 3.6 0 .7-.4 1.3-1 1.3-1.3 0-1.3-2.3.1-5.3 1.3-3 5.2-5 6.7-3.5.6.6 1.1-.1 1.4-2.3.4-2.4.1-3.3-1.3-3.6-1.5-.4-1.6-.8-.6-2.4 1.5-2.4 1.9-2.4 4.8.2zm-61.7 3.4c1.6 1.2 1.7 1.5.4 1.5-.8 0-2.1-.7-2.8-1.5-1.6-1.9-.1-1.9 2.4 0zm-116 1.1c.3.8.2 1.2-.4.9-.6-.3-1-1-1-1.6 0-1.4.7-1.1 1.4.7zm147.1 3.4c-.3.5-1.2 1-1.8 1-.7 0-.6-.4.3-1 1.9-1.2 2.3-1.2 1.5 0zm441.3 1.7c.2 1.1-.4 2.3-1.2 2.6-1.2.5-1.6-.1-1.6-2.4 0-3.5 2.3-3.6 2.8-.2zm5.9 2.1c.1 1.8.6 3.9 1.2 4.6.9 1 .7 1.5-.8 1.9-2.4.6-3.1 0-3.1-2.5 0-1-.7-1.8-1.5-1.8s-1.5-.5-1.5-1c0-.6.5-1 1-1 .6 0 1-.9 1-2.1 0-3.7 3.5-1.9 3.7 1.9zm6.9-3.1c-1 1.1-3.6 1.2-3.6.2 0-.5 1-.9 2.2-.9 1.2 0 1.8.3 1.4.7zm-409 2.7c2.1 2.1 1.8 2.6-1.6 2.6-1.6 0-3 .4-3 1 0 .5-.4 1-1 1-1.6 0-1.1-3.2.8-4.6 2.2-1.7 3-1.7 4.8 0zm-60.6 1.2c0 2.6-3.1 4.5-4.7 2.8-1.8-1.8-1.6-2.3 1-3.4 3.2-1.3 3.7-1.2 3.7.6zm-7 3.4c0 .5-.5 1-1.1 1-.5 0-.7-.5-.4-1 .3-.6.8-1 1.1-1 .2 0 .4.4.4 1zm24 0c0 .5-.4 1-1 1-.5 0-1-.5-1-1 0-.6.5-1 1-1 .6 0 1 .4 1 1zm-8.3 1.2c.5-1.4 3.9-1.6 4.8-.2 1 1.6-2.8 5.9-5.2 6-1.7 0-2.5.9-3.2 3.2-.7 2.5-.9 2.8-1 1.1-.1-1.5-.9-2.5-2.6-2.9-4.2-1-3.1-3.4 1.3-2.7 3.4.6 3.6.5 2.3-1-.7-.9-1-2.4-.7-3.3.5-1.4.9-1.4 2.3-.3 1.3 1.1 1.7 1.1 2 .1zm490.6.9c.4 1.6.3 1.8-.9.8-1.6-1.3-1.9-2.9-.5-2.9.5 0 1.1.9 1.4 2.1zM424 1129c0 1.3-1.1 1.3-3 0-1.2-.8-1.1-1 .8-1 1.2 0 2.2.4 2.2 1zm208 3.5c0 .8-.4 1.5-1 1.5-.5 0-1-.7-1-1.5s.5-1.5 1-1.5c.6 0 1 .7 1 1.5zm-117 3.5c0 .5-.4 1-.9 1-.6 0-1.3-.5-1.6-1-.3-.6.1-1 .9-1 .9 0 1.6.4 1.6 1zm57 1.7c1.1 1.7 1.1 1.7.6 0-.4-1.3 0-1.7 1.9-1.7 1.6 0 2.5.6 2.5 1.6 0 .8-.4 1.3-.9.9-.5-.3-1.2-.1-1.6.5-.3.5-2.1 1-3.8 1-2.2 0-2.8-.3-1.8-.9.7-.5 1-1.4.7-2-1.2-1.8 1.2-1.2 2.4.6zm39 1.8c0 .8-.9 1-2.5.7-3.2-.6-3.2-1.7 0-1.8 1.4-.1 2.5.4 2.5 1.1zm-87.6.1c1.6.6 2.3 3.4.8 3.4-1 0-3.2-2.2-3.2-3.2s.3-1 2.4-.2zm103.1 2.4c0 .8-.9 1.6-2 1.7-1.1.2-1.4 0-.7-.3 1-.5 1-.9 0-2.1-1-1.3-.9-1.5.7-1.2 1.1.3 2 1.1 2 1.9zm-97.8 1.4c0 .8-.6 1.2-1.4.9-.7-.3-1.3-.9-1.3-1.4 0-.5.6-.9 1.3-.9.8 0 1.4.6 1.4 1.4zm33.3.2c0 1.4-.3 1.4-1.5.4-.8-.7-1.5-1.4-1.5-1.6 0-.2.7-.4 1.5-.4s1.5.7 1.5 1.6zm58-.1c0 .8-.2 1.5-.4 1.5s-.6-.7-1-1.5c-.3-.8-.1-1.5.4-1.5.6 0 1 .7 1 1.5zm-2 4.5c0 .5-.9 1-2.1 1-1.1 0-1.7-.5-1.4-1 .3-.6 1.3-1 2.1-1s1.4.4 1.4 1zm-90.4 9.6c1.3.3 2.4 1 2.4 1.5 0 2-.3 2.4-1.3 2-.7-.2-2.3-.3-3.7-.3-2 0-2.6-.5-2.8-2.5-.1-1.9.2-2.4 1.4-1.9.9.3 2.7.9 4 1.2zm72.4-.1c.5-.3 1-.1 1 .4 0 1-1.7 1.5-4.7 1.4-1.6-.1-1.6 1-.1 2.5.8.8.9 1.2.1 1.2-.6 0-1.3-.4-1.5-.9-.1-.4-1.4-1.2-2.8-1.6-2.3-.7-2.3-.7-.7.9.9 1 1.7 2.3 1.6 2.9 0 .9-.2.8-.6-.1-.2-.6-1.6-1.2-2.9-1.2-1.3 0-2.4-.4-2.4-.9s-1.1-.9-2.5-.9c-1.5 0-2.5.6-2.5 1.5 0 .7.7 1.3 1.6 1.1 1-.2 1.9.3 2.1.9.3.7-.1 1.3-.9 1.3-1 0-.9.3.2 1 1.1.8.5 1-2.3.8-4.4-.3-5.5-1.2-3-2.7 1.6-.9 1.6-1 .2-1.1-2.7 0-3.1-3.8-.5-4.6 4.5-1.5 17.1-3 18.3-2.1.7.5 1.7.6 2.3.2zm-24 3.9c0 .3-.4.8-1 1.1-.5.3-1 .1-1-.4 0-.6.5-1.1 1-1.1.6 0 1 .2 1 .4zm50.6 2.2c-.3.9-.6 1.8-.6 2 0 .2-.7.4-1.5.4-1.8 0-1.9-1.2-.3-2.8 1.7-1.7 3.1-1.5 2.4.4zm-87.6 3.1c0 .7-.4 1.3-.8 1.3-1.2 0-3.2-2.3-3.2-3.7 0-1.1.4-1.1 2-.1 1.1.7 2 1.8 2 2.5zm29-1.7c0 .5-.2 1-.4 1-.3 0-.8-.5-1.1-1-.3-.6-.1-1 .4-1 .6 0 1.1.4 1.1 1zm7.2 2.7c1.4-.5 4.8 1 4.8 2.1 0 .4-.9 1.3-1.9 1.9-1.6 1-2.5 1-4.8-.2-2.5-1.3-2.8-1.3-3.3 0-.4 1.1-1 .7-2.4-1.6l-1.9-3.2 3.2.6c2.4.5 3 .4 2.5-.6-.5-.8-.3-.8.9.1.9.8 2.2 1.2 2.9.9zm18.8-.3c0 .3-.4.8-1 1.1-.5.3-1 .1-1-.4 0-.6.5-1.1 1-1.1.6 0 1 .2 1 .4zm109.4 3.7c-.8 1.3-2.4.1-2.4-1.8 0-1.3.3-1.3 1.5-.3.8.7 1.2 1.6.9 2.1zm-65 1.5c2 .8 2 2 0 2.8-.8.3-1.2.2-.9-.4.3-.6-.1-1-.9-1-.9 0-1.6-.5-1.6-1 0-1.1 1.1-1.3 3.4-.4zm70.1 5.1c-.8 1.7-.8 1.7-1.2 0-.5-1.9-1.8-2.2-2.8-.7-.8 1.3-2.5 1.3-2.5.1 0-1.3 5.3-3 6.4-2 .5.4.5 1.6.1 2.6z"/><path d="M532 226c0 .5.5 1 1 1 .6 0 1-.5 1-1 0-.6-.4-1-1-1-.5 0-1 .4-1 1zM524.8 229.7c.7.3 1.6.2 1.9-.1.4-.3-.2-.6-1.3-.5-1.1 0-1.4.3-.6.6zM519.5 232c.3.5.8 1 1.1 1 .2 0 .4-.5.4-1 0-.6-.5-1-1.1-1-.5 0-.7.4-.4 1zM496 251c0 .5.9 1 2 1s2-.5 2-1c0-.6-.9-1-2-1s-2 .4-2 1zM788 286.7c0 1.3.5 2.3 1 2.3 1.3 0 1.3-1.1 0-3-.8-1.2-1-1.1-1 .7zM497.5 295c.3.5 1 1 1.6 1 .5 0 .9-.5.9-1 0-.6-.7-1-1.6-1-.8 0-1.2.4-.9 1zM748.8 306.2c.7.7.8 1.7.2 2.9-.7 1.2-.6 2 .1 2.5 1.4.8 3.1-1.6 2.4-3.4-.3-.8-.5-1.8-.5-2.3 0-.5-.8-.9-1.7-.9-1.3 0-1.4.3-.5 1.2zM501 331c0 .5.5 1 1 1 .6 0 1-.5 1-1 0-.6-.4-1-1-1-.5 0-1 .4-1 1zM505 331c0 .5.5 1 1.1 1 .5 0 .7-.5.4-1-.3-.6-.8-1-1.1-1-.2 0-.4.4-.4 1zM513 334c0 .6.7 1 1.5 1s1.5-.2 1.5-.4-.7-.6-1.5-1c-.8-.3-1.5-.1-1.5.4zM509.5 339c-.3.5-.1 1 .4 1 .6 0 1.1-.5 1.1-1 0-.6-.2-1-.4-1-.3 0-.8.4-1.1 1zM790.5 351c-.3.5-.1 1 .4 1 .6 0 1.1-.5 1.1-1 0-.6-.2-1-.4-1-.3 0-.8.4-1.1 1zM776.1 360.1c.8.5 1 .9.4.9-.5.1.3.8 1.8 1.6 1.6.9 3.2 1.3 3.5.9.4-.4-.1-1.1-1.1-1.6-.9-.6-1.6-1.3-1.3-1.7.2-.4-.7-.8-2.1-.9-1.9-.1-2.2.1-1.2.8zM767 365.9c0 1.5 2.8 3.3 4 2.6.8-.5.8-1.1-.1-2.1-1.3-1.5-3.9-1.9-3.9-.5zM777 366.5c-1 1.2-1 1.5.4 1.5.9 0 1.6-.7 1.6-1.5s-.2-1.5-.4-1.5-.9.7-1.6 1.5zM667 370.5c-1.1 1.3-1.1 2 0 4.1 1.8 3.3 3.5 2.5 3.5-1.6 0-3.7-1.5-4.9-3.5-2.5zM524.6 386.5c-.3.8-.2 1.5.3 1.5s1.4-.7 2.1-1.5c1-1.2 1-1.5-.3-1.5-.8 0-1.7.7-2.1 1.5zM776 392c0 .6.7 1 1.5 1s1.5-.2 1.5-.4-.7-.6-1.5-1c-.8-.3-1.5-.1-1.5.4zM788.1 397.6c0 1.1.3 1.4.6.6.3-.7.2-1.6-.1-1.9-.3-.4-.6.2-.5 1.3zM755.8 426.7c.7.3 1.6.2 1.9-.1.4-.3-.2-.6-1.3-.5-1.1 0-1.4.3-.6.6zM714.5 429c.3.5 1 1 1.6 1 .5 0 .9-.5.9-1 0-.6-.7-1-1.6-1-.8 0-1.2.4-.9 1zM610 472.1c0 .5.5.7 1 .4.6-.3 1-.8 1-1.1 0-.2-.4-.4-1-.4-.5 0-1 .5-1 1.1zM627.1 478.6c0 1.1.3 1.4.6.6.3-.7.2-1.6-.1-1.9-.3-.4-.6.2-.5 1.3zM619 482.1c0 .5.5.7 1 .4.6-.3 1-.8 1-1.1 0-.2-.4-.4-1-.4-.5 0-1 .5-1 1.1zM624.5 482c-.3.5-.1 1 .4 1 .6 0 1.1-.5 1.1-1 0-.6-.2-1-.4-1-.3 0-.8.4-1.1 1zM620 497c0 .5.5 1 1.1 1 .5 0 .7-.5.4-1-.3-.6-.8-1-1.1-1-.2 0-.4.4-.4 1zM162.3 403.2c-2.4 4.9-2.4 5.8 0 5.7 1.2 0 1.6-.3 1-.6-1.6-.6-1.7-4-.1-4.5.6-.2.9-1 .7-1.7-.3-.8-.9-.4-1.6 1.1zM155 424c0 .5.5 1 1 1 .6 0 1-.5 1-1 0-.6-.4-1-1-1-.5 0-1 .4-1 1zM482.7 497.6c-1.1 1.1.3 2.4 2.5 2.4 1.7 0 1.8-.2.8-1.5-1.3-1.6-2.3-1.9-3.3-.9zM458 501c0 .5.5 1 1 1 .6 0 1-.5 1-1 0-.6-.4-1-1-1-.5 0-1 .4-1 1zM383.7 509.7c-.4.3-.7 1.1-.7 1.7 0 .6.5.5 1.2-.2.6-.6.9-1.4.7-1.7-.3-.3-.9-.2-1.2.2zM408.2 513.2c.6 1.8 2.8 2.1 2.8.4 0-.9-.7-1.6-1.6-1.6-.9 0-1.4.5-1.2 1.2zM434 520c0 .5.5 1 1.1 1 .5 0 .7-.5.4-1-.3-.6-.8-1-1.1-1-.2 0-.4.4-.4 1zM425.3 521.7c-1.3 1.3-2.3 2.7-2.3 3.3 0 1.2 10.2 1.1 12.2-.1 1.5-1 .3-1.2-4.4-.9-2.1.1-2.7-.4-3-2.2l-.3-2.3-2.2 2.2zM476.6 525.9c-.3.5.4 1.1 1.6 1.4 2.9.8 3.2.4.8-1.1-1-.6-2.1-.8-2.4-.3zM420 527c0 .5.5 1 1 1 .6 0 1-.5 1-1 0-.6-.4-1-1-1-.5 0-1 .4-1 1zM501.5 528c-.3.5-.2 1 .4 1 .5 0 1.3-.5 1.6-1 .3-.6.2-1-.4-1-.5 0-1.3.4-1.6 1zM467 538.4c0 1.9.4 3.7.8 4 .5.3.6-.8.4-2.5-.4-2.6-.2-2.9 2.4-2.9 3.2 0 3-.5-.8-1.4-2.6-.6-2.8-.4-2.8 2.8zM501.5 544c-.7 1.2.2 1.2 3 0 1.9-.8 1.9-.9-.2-.9-1.2-.1-2.5.3-2.8.9zM409 589.6c0 .8.5 1.2 1 .9.6-.3 1-1 1-1.6 0-.5-.4-.9-1-.9-.5 0-1 .7-1 1.6zM411.6 594.6c-.8 2-.8 2.4.2 2.4.4 0 .8-.9.9-2 .2-2.4-.3-2.6-1.1-.4zM400 624.9c0 .6.5 1.3 1 1.6.6.3 1-.1 1-.9 0-.9-.4-1.6-1-1.6-.5 0-1 .4-1 .9zM441.7 668c.3 1.1.7 2 .9 2 .2 0 .4-.9.4-2s-.4-2-.9-2-.7.9-.4 2zM687 530c0 .5.7 1 1.6 1 .8 0 1.2-.5.9-1-.3-.6-1-1-1.6-1-.5 0-.9.4-.9 1zM820 550.4c0 .2.9.6 2 .9 1.1.3 1.8.1 1.4-.4-.5-.9-3.4-1.3-3.4-.5zM782 555.1c0 .5.5.7 1 .4.6-.3 1-.8 1-1.1 0-.2-.4-.4-1-.4-.5 0-1 .5-1 1.1zM751.2 556.9c-1.1.7-1 1 .3 1.5 2.3.9 2.5.8 2.5-.9 0-1.7-.9-1.9-2.8-.6zM798.5 561c.3.5.8 1 1.1 1 .2 0 .4-.5.4-1 0-.6-.5-1-1.1-1-.5 0-.7.4-.4 1zM737 565.9c0 .5.9 1.1 2.1 1.4 1.2.3 1.8 1 1.4 1.6-.7 1.2.7 1.5 1.8.5 1.1-1.2-1.3-4.4-3.3-4.4-1.1 0-2 .4-2 .9zM734 567.1c0 .5.5.7 1 .4.6-.3 1-.8 1-1.1 0-.2-.4-.4-1-.4-.5 0-1 .5-1 1.1zM759 567.1c0 .5.5.7 1 .4.6-.3 1-.8 1-1.1 0-.2-.4-.4-1-.4-.5 0-1 .5-1 1.1zM742 574.6c0 .8.5 1.2 1 .9.6-.3 1-1 1-1.6 0-.5-.4-.9-1-.9-.5 0-1 .7-1 1.6zM745.3 576.5c0 .8.4 1.5.8 1.5s.9-.7 1.3-1.5c.3-.9 0-1.5-.8-1.5-.7 0-1.3.7-1.3 1.5zM772.5 592c-.3.6.1.7.9.4 1.8-.7 2.1-1.4.7-1.4-.6 0-1.3.4-1.6 1zM788 603c0 .5.5 1 1 1 .6 0 1-.5 1-1 0-.6-.4-1-1-1-.5 0-1 .4-1 1zM788.5 606c.3.5.8 1 1.1 1 .2 0 .4-.5.4-1 0-.6-.5-1-1.1-1-.5 0-.7.4-.4 1zM813 627.1c0 .5.5.7 1 .4.6-.3 1-.8 1-1.1 0-.2-.4-.4-1-.4-.5 0-1 .5-1 1.1zM818.6 628.5c.4.8.8 1.5 1 1.5.2 0 .4-.7.4-1.5s-.4-1.5-1-1.5c-.5 0-.7.7-.4 1.5zM815 630c0 .5.5 1 1 1 .6 0 1-.5 1-1 0-.6-.4-1-1-1-.5 0-1 .4-1 1zM822 641c0 .5.5 1 1.1 1 .5 0 .7-.5.4-1-.3-.6-.8-1-1.1-1-.2 0-.4.4-.4 1zM826 645c-1.2.8-1.1 1 .8 1 1.2 0 2.2-.5 2.2-1 0-1.3-1.1-1.3-3 0zM815 647c0 1.1.5 2 1 2 .6 0 1-.9 1-2s-.4-2-1-2c-.5 0-1 .9-1 2zM813 661.7c0 1.3.5 2.3 1 2.3 1.3 0 1.3-1.1 0-3-.8-1.2-1-1.1-1 .7zM811 664.8c0 1 2.1 3.2 3.2 3.2 1.6 0 .8-1.9-1.2-3-1.1-.6-2-.7-2-.2zM808.5 678c-.3.5.1 1 .9 1s1.8-.5 2.1-1c.3-.6-.1-1-.9-1s-1.8.4-2.1 1zM805.5 686c.3.5 1 1 1.6 1 .5 0 .9-.5.9-1 0-.6-.7-1-1.6-1-.8 0-1.2.4-.9 1zM696.6 776.9c-.4.7-.5 1.5-.2 1.8.9.9 1.9-.4 1.4-1.8-.4-1.1-.6-1.1-1.2 0zM721.1 782.4c-3.5 2.6-2.8 4.2 1.1 2.7 1.2-.6 1.9-1 1.4-1-.5-.1-.3-.8.4-1.6 2.1-2.6.5-2.6-2.9-.1zM701 787c0 .5.5 1 1 1 .6 0 1-.5 1-1 0-.6-.4-1-1-1-.5 0-1 .4-1 1zM581 667c0 .5.7 1 1.5 1s1.5-.5 1.5-1c0-.6-.7-1-1.5-1s-1.5.4-1.5 1zM585 670c0 .5.5 1 1 1 .6 0 1-.5 1-1 0-.6-.4-1-1-1-.5 0-1 .4-1 1zM829 728c0 .5.7.7 1.5.4.8-.4 1.5-.8 1.5-1 0-.2-.7-.4-1.5-.4s-1.5.4-1.5 1zM829 761c1.9 1.3 3 1.3 3 0 0-.6-1-1-2.2-1-1.9 0-2 .2-.8 1zM600.5 735c-.3.5.1 1 .9 1s1.8-.5 2.1-1c.3-.6-.1-1-.9-1s-1.8.4-2.1 1zM560 746.9c0 .6.9 1.5 2 2.1 1.1.6 2 .7 2 .3 0-.4.5-.2 1.2.5s1.8 1.2 2.5 1.2c.9 0 .7-.6-.6-1.9-2.1-2.1-7.1-3.6-7.1-2.2zM571.4 751.9c.4.6 0 1.4-.8 1.7-1.8.7-1.1 2.4 1 2.4 1.7 0 1.9-3.6.2-4.6-.7-.4-.8-.3-.4.5zM549.5 756c.3.5.8 1 1.1 1 .2 0 .4-.5.4-1 0-.6-.5-1-1.1-1-.5 0-.7.4-.4 1zM569.7 758.7c-.4.3-.7 1.3-.7 2.2.1 1.3.3 1.3 1.1-.2 1.1-1.9.8-3.3-.4-2zM557.4 761.5c.3.9 0 1.5-1 1.5-1.6 0-3.5 3.9-2.6 5.4.3.5 1.1 0 1.9-1 .8-1 1.6-1.8 1.8-1.7.3.1 1.2 0 2.1-.4 1.7-.6 5 2.5 3.8 3.6-.3.3-.9 0-1.3-.8-.7-1-.9-1-1.4.2-.3.8-.3 1.7-.1 2 .7.7 4.4-.4 4.4-1.3 0-.5.7-1.5 1.5-2.4 1.2-1.1 1.3-2.1.4-4.2-.8-2.3-1.2-2.6-2-1.4-.8 1.1-1.2 1.2-1.6.2-.7-1.9-2.3-1.4-1.6.5.6 1.7.5 1.7-1.4 0-2.4-2.1-3.7-2.2-2.9-.2zM598 766.5c-1.4.8-4 1.4-5.9 1.5-2.3 0-4.1.8-5.6 2.4-1.7 1.9-2.5 2.2-3.4 1.3-.9-.9-1.4-.9-2 .1-.6 1-1.1 1-2.1-.3s-1.5-1.3-2.1-.3c-.6 1-1.3.7-2.9-.9-1.1-1.2-2-2.7-2-3.3 0-2.3-2.2-.8-3.5 2.4-.8 1.8-2.1 3.6-3 4-.9.3-1.3 1-1 1.6.4.7 1.2.7 2.5 0 1.5-.8 2-.5 2.8 1.8.8 2.3 1.6 2.9 4.1 2.9 1.8 0 3.1-.6 3.1-1.3 0-.7.6-1.5 1.3-1.8 1-.5 1-.7 0-1.2-.7-.3-1.3-1-1.3-1.6 0-.6.6-.5 1.5.2s1.3 2.1 1 3.1c-.5 1.5-.1 1.9 1.9 1.9 1.4 0 2.8.4 3.1 1 .3.5 0 1-.8 1-1.2 0-1.3.4-.4 2.4.9 1.9 1.5 2.2 2.6 1.3.7-.6 2.6-1 4.2-.9 3.1.4 3.7-.6 1.7-2.6-.9-.9-.9-1.2-.1-1.2.7 0 1.5.4 1.8 1 .8 1.3 4.5 1.3 4.5.1 0-.5-.3-1.1-.7-1.4-.5-.2-.1-.2.7.1 4.2 1.3 6.2 1.3 9 .1 2.7-1.2 3-1.8 2.5-4.7-.4-2.7-.2-3.2 1.6-3.2 1.1 0 1.7-.5 1.4-1-.3-.6-1.7-1-3-1s-2.6-.6-2.8-1.3c-.4-.9-.8-.8-1.6.3-.9 1.3-1.1 1.3-1.1-.2 0-1.1-.5-1.5-1.4-1.2-.8.3-1.6-.1-1.8-1-.3-1.3-.6-1.3-2.8-.1zm8.5 11.5c-.3.5-1 1-1.6 1-.5 0-.9-.5-.9-1 0-.6.7-1 1.6-1 .8 0 1.2.4.9 1zM540.6 767.8c-.3.5.1.9.9.9s1.2-.4.9-.9c-.3-.4-.7-.8-.9-.8-.2 0-.6.4-.9.8zM616.4 768.6c-1.3 1-1.5 1.7-.7 2 2.4 1 2.6.9 2.9-1.4.5-2.6.3-2.7-2.2-.6zM537.7 769.7c-.4.3-.7 1.3-.7 2.2.1 1.3.3 1.3 1.1-.2 1.1-1.9.8-3.3-.4-2zM540.6 784.6c-.9 2.4-.7 3.1 1 3.8 1.7.7 7.4-1.3 7.4-2.6 0-.6-1-1-6.1-2.4-.9-.3-1.9.3-2.3 1.2zM629 797c0 .5.5 1 1.1 1 .5 0 .7-.5.4-1-.3-.6-.8-1-1.1-1-.2 0-.4.4-.4 1zM632.6 798.5c-.3.8-.1 1.5.4 1.5 1.3 0 2.2-1.8 1.1-2.4-.5-.3-1.1.1-1.5.9zM537.1 802.9c-1.1 1.9-.6 3.1 1.3 3.1.6 0 1.2-1.1 1.2-2.5.2-2.9-1.1-3.3-2.5-.6zM632.5 810c.3.5.8 1 1.1 1 .2 0 .4-.5.4-1 0-.6-.5-1-1.1-1-.5 0-.7.4-.4 1zM653.3 810.7c.9.2 2.3.2 3 0 .6-.3-.1-.5-1.8-.5-1.6 0-2.2.2-1.2.5zM628.8 864.7c.7.3 1.6.2 1.9-.1.4-.3-.2-.6-1.3-.5-1.1 0-1.4.3-.6.6zM550 885.6c0 .3.5 1.5 1.1 2.6.9 1.6.8 2.3-.2 2.9-.8.5-.9.9-.4.9.6 0 1.6-.4 2.4-.9 1.2-.8 1.3-1.4.3-3.5-1-2.3-3.2-3.6-3.2-2zM596 993c0 .5.6 1 1.4 1 .8 0 1.8-.5 2.1-1 .3-.6-.3-1-1.4-1-1.2 0-2.1.4-2.1 1zM493.5 996c.3.5.8 1 1.1 1 .2 0 .4-.5.4-1 0-.6-.5-1-1.1-1-.5 0-.7.4-.4 1zM560.7 1011.7c-.4.3-.7 1.1-.7 1.7 0 .6.5.5 1.2-.2.6-.6.9-1.4.7-1.7-.3-.3-.9-.2-1.2.2zM506 1015.9c0 .5.7 1.1 1.5 1.5.9.3 1.5 0 1.5-.9 0-.8-.7-1.5-1.5-1.5s-1.5.4-1.5.9zM528.5 1023c-.3.5.1 1 .9 1 .9 0 1.6-.5 1.6-1 0-.6-.4-1-.9-1-.6 0-1.3.4-1.6 1zM686 1042.9c-.6 1.6-2 3.7-3.1 4.7-1 .9-1.9 2.3-1.9 3.1 0 1.5 2.6 1.8 3.5.3.3-.6 1.5-1 2.6-1 1 0 1.9-.7 1.9-1.5s.4-1.5.9-1.5 1.1-1.1 1.3-2.5c.6-2.8-.6-3.4-1.6-.8-.5 1.2-1 1.3-1.8.5s-.8-1.5.2-2.7c.7-.8.8-1.5.2-1.5-.5 0-1.5 1.3-2.2 2.9zM692.7 1050c.3 1.1.9 2 1.4 2 1.1 0 1.1-.3.3-2.4-.9-2.3-2.3-2-1.7.4zM686 1055.4c0 .9.5 1.6 1 1.6.6 0 1-.4 1-.9 0-.6-.4-1.3-1-1.6-.5-.3-1 .1-1 .9zM697.5 1058c-2 1.3-2.5 2-1.3 2 1.5 0 4.8-2.5 4.8-3.6 0-.6-.3-.5-3.5 1.6zM702.7 1057.7c-.4.3-.7 1.1-.7 1.7 0 .6.5.5 1.2-.2.6-.6.9-1.4.7-1.7-.3-.3-.9-.2-1.2.2zM686.6 1062.7c-.6 1.4-.5 1.5.5.6.7-.7 1-1.5.7-1.8-.3-.3-.9.2-1.2 1.2zM661 1064c0 .5.5 1 1 1 .6 0 1-.5 1-1 0-.6-.4-1-1-1-.5 0-1 .4-1 1zM513.6 1078.6c-.5 1.4-.4 1.5.9.4 1.7-1.4 1.9-2 .6-2-.5 0-1.2.7-1.5 1.6zM483.1 1078.7c0 .6-.4 2-.7 3-.5 1.4-.4 1.5.5.7.7-.7 1.1-2 .8-3-.3-1.1-.5-1.4-.6-.7zM537.3 1088.4c1.4 1.4 2.1 1.6 3 .7.8-.8.8-1.1 0-1.1-.6 0-2-.3-3-.7-1.7-.7-1.7-.6 0 1.1zM544 1096c0 .5.5 1 1.1 1 .5 0 .7-.5.4-1-.3-.6-.8-1-1.1-1-.2 0-.4.4-.4 1zM541.8 1099.6c-.3.3-.4 1.4-.1 2.4.4 1.6 1.3 1.9 4.4 1.8 3.7-.1 3.8-.2 1.9-1.8-1.1-.9-1.7-2-1.3-2.4.3-.3-.5-.6-1.9-.6-1.3 0-2.7.3-3 .6zM498.6 1103.9c-.6 1 2.4 2.5 3.2 1.6.3-.3 0-.5-.7-.5s-.9-.5-.6-1c.3-.6.2-1-.4-1-.5 0-1.2.4-1.5.9zM494 1111.8c0 .5.9 1.2 2.1 1.5 1.3.3 1.9.1 1.6-.6-.5-1.5-3.7-2.2-3.7-.9zM574 1114c0 .5.5 1 1.1 1 .5 0 .7-.5.4-1-.3-.6-.8-1-1.1-1-.2 0-.4.4-.4 1zM503 1115.5c.7.9 1.5 1.3 1.7 1.1.7-.7-.7-2.6-1.9-2.6-.6 0-.6.6.2 1.5zM556 1119.6c0 .8.5 1.2 1 .9.6-.3 1-1 1-1.6 0-.5-.4-.9-1-.9-.5 0-1 .7-1 1.6zM517.2 1122.1c.2.7 1 1.5 1.7 1.7.8.3 1.2-.1.9-.9-.2-.7-1-1.5-1.7-1.7-.8-.3-1.2.1-.9.9zM548.7 1121.7c-.3.5-.1 1.7.4 2.8.7 1.7.8 1.7.8-.8.1-2.7-.4-3.4-1.2-2zM543 1125.5c.7.9 1.5 1.3 1.7 1.1.7-.7-.7-2.6-1.9-2.6-.6 0-.6.6.2 1.5zM540.5 1139c.3.5.8 1 1.1 1 .2 0 .4-.5.4-1 0-.6-.5-1-1.1-1-.5 0-.7.4-.4 1zM572.8 1169.7c.7.3 1.6.2 1.9-.1.4-.3-.2-.6-1.3-.5-1.1 0-1.4.3-.6.6zM302 170.6c0 .8.5 1.2 1 .9.6-.4.8-1.1.5-1.6-.9-1.4-1.5-1.1-1.5.7zM116.7 521.7c-1.8 2.1-1.4 5.2.7 5.4.6 0 .2.4-.9.9-1.8.8-1.8.9-.2.9 2.2.1 2.9-1.7 2.5-5.9-.3-3.2-.3-3.2-2.1-1.3zM116 531.3c0 .8-.7 1.7-1.5 2.1-1.8.7-2 2.6-.2 2.6 1.5 0 3.8-4.8 2.6-5.6-.5-.3-.9.1-.9.9zM113.8 541.7c.7.3 1.6.2 1.9-.1.4-.3-.2-.6-1.3-.5-1.1 0-1.4.3-.6.6zM96.4 644.1c-.6 1 1.2 2.9 2.9 2.9.9 0 .9-.4.1-2.4-.7-1.9-2-2.1-3-.5zM96 648.1c0 .5.5.7 1 .4.6-.3 1-.8 1-1.1 0-.2-.4-.4-1-.4-.5 0-1 .5-1 1.1zM96 655.1c0 .5.5.7 1 .4.6-.3 1-.8 1-1.1 0-.2-.4-.4-1-.4-.5 0-1 .5-1 1.1zM1041 905c0 1.9.3 2.1 1.2 1.2.9-.9.9-1.5 0-2.4-.9-.9-1.2-.7-1.2 1.2zM1041.2 912c0 1.4.2 1.9.5 1.2.2-.6.2-1.8 0-2.5-.3-.6-.5-.1-.5 1.3zM1058.5 981c-.3.5-.1 1 .4 1 .6 0 1.1-.5 1.1-1 0-.6-.2-1-.4-1-.3 0-.8.4-1.1 1zM1096 1045c0 .6.7 1 1.5 1s1.5-.2 1.5-.4-.7-.6-1.5-1c-.8-.3-1.5-.1-1.5.4zM1099.3 1050.7c.1 2.7.7 4.3 1.5 4.3.6 0 1.2.7 1.2 1.5s.4 1.5.9 1.5c1.3 0 2.2-2.8 1.1-3.5-.5-.3-.7-1.2-.3-2 .3-1-.1-1.5-1.1-1.5-.9 0-2.1-1-2.6-2.3-.7-1.8-.9-1.4-.7 2zM1108 1061.2c0 1.9.2 2 1 .8 1.3-1.9 1.3-3 0-3-.5 0-1 1-1 2.2zM1148 1095.1c0 .5.9.9 2 .9s2-.2 2-.4-.9-.6-2-.9c-1.1-.3-2-.1-2 .4zM1153.5 1096c-.3.5.1 1 .9 1 .9 0 1.6-.5 1.6-1 0-.6-.4-1-.9-1-.6 0-1.3.4-1.6 1zM1158 1097.8c0 .9 2.6 1.5 10.7 2.6 1.7.2 4.2.7 5.4 1.1 1.5.5 2 .3 1.7-.6-.7-2.2-17.8-5.1-17.8-3.1zM1177 1101c0 .4 1.8 1.2 4.1 1.8 3 .7 3.9.7 3.6-.1-.4-1.3-7.7-2.8-7.7-1.7zM446.1 1136.6c0 1.1.3 1.4.6.6.3-.7.2-1.6-.1-1.9-.3-.4-.6.2-.5 1.3zM462.1 1137.1c.7 1.4 1.4 1.8 2.1 1.1 1.3-1.3.2-3.2-1.8-3.2-1.2 0-1.3.4-.3 2.1zM465.9 1138c-.5 1.8-.4 6 .2 6 1.2 0 1.9-4.4.9-5.4-.6-.6-1.1-.8-1.1-.6zM428.7 1142.7c-1.2 1.1-.8 2.3.8 2.3.8 0 1.5-.7 1.5-1.5 0-1.6-1.2-2-2.3-.8zM656 1144c-.8.5-1 1-.5 1 .6 0 1.7-.5 2.5-1s1.1-1 .5-1c-.5 0-1.7.5-2.5 1zM482.6 1151.5c-.3.9 0 1.5.9 1.5 1.6 0 2-1.6.6-2.4-.5-.3-1.1.1-1.5.9zM631 1159.1c0 .5.5.7 1 .4.6-.3 1-.8 1-1.1 0-.2-.4-.4-1-.4-.5 0-1 .5-1 1.1zM604 1161.1c0 .5.5.7 1 .4.6-.3 1-.8 1-1.1 0-.2-.4-.4-1-.4-.5 0-1 .5-1 1.1zM609 1165.9c0 .5.7 1.1 1.5 1.5.9.3 1.5 0 1.5-.9 0-.8-.7-1.5-1.5-1.5s-1.5.4-1.5.9zM523 1170c0 1.1.2 2 .4 2s.6-.9.9-2c.3-1.1.1-2-.4-2s-.9.9-.9 2zM551.1 1170c.3 2.1 0 2.5-1.9 2.4-1.2 0-2.1.4-1.9 1 .2.6 1.5 1 2.7.8 1.3-.1 2.7.3 3 .9.4.6.9 0 1.2-1.5.4-1.7-.1-3.1-1.4-4.3-2-1.7-2-1.7-1.7.7zM527 1170c0 .5.5 1 1 1 .6 0 1-.5 1-1 0-.6-.4-1-1-1-.5 0-1 .4-1 1zM558.1 1174.6c0 1.1.3 1.4.6.6.3-.7.2-1.6-.1-1.9-.3-.4-.6.2-.5 1.3zM530 1175.3c0 .7.9 1.8 2 2.5 1.2.7 2 .8 2 .2 0-.5-.4-1-1-1-.5 0-1-.7-1-1.5s-.4-1.5-1-1.5c-.5 0-1 .6-1 1.3zM538 1178c-.8 1.6-.7 2.4.5 3.6.8.8 1.5 1.1 1.5.5 0-.6.7-1.1 1.5-1.1 2.1 0 1.9-2.3-.5-3.7-1.6-1.1-2.1-1-3 .7zM555.6 1177.3c.3 1 .9 1.5 1.2 1.2.3-.3 0-1.1-.7-1.8-1-.9-1.1-.8-.5.6zM488.8 1179.5c-.3.3-.3 1.7 0 3 .5 2.9 2.7 3.4 2.9.6.2-2-1.9-4.5-2.9-3.6zM577.7 1179.7c-1 .9-.9 2.3.2 2.3.5 0 1.1-.7 1.5-1.5.5-1.5-.5-2-1.7-.8zM514 1180.5c0 .9 4 4.5 5 4.5.6 0 1-.2 1-.4s.3-1.1.6-1.9c.4-1.1-.1-1.3-2-1-1.6.3-2.6.1-2.6-.6 0-.6-.4-1.1-1-1.1-.5 0-1 .2-1 .5zM526 1181.5c0 .8.6 1.5 1.3 1.8.6.2.1.2-1.3 0-1.4-.1-3.1.1-3.8.6-.9.5 1.2.8 5.5.8 3.7 0 5.8-.2 4.6-.4-1.3-.2-2.3-1-2.3-1.8 0-.7-.9-1.5-2-1.8-1.3-.3-2 0-2 .8zM544.3 1181.2c-2.4 3.1-2.6 4.1-.8 3.1 1-.6 2.7-.8 3.9-.5 2.1.5 2.1.5.2-1.6-2.2-2.6-2.1-2.5-3.3-1zM565 1181c0 .5.5 1 1 1 .6 0 1-.5 1-1 0-.6-.4-1-1-1-.5 0-1 .4-1 1zM557.8 1181.7c.7.3 1.6.2 1.9-.1.4-.3-.2-.6-1.3-.5-1.1 0-1.4.3-.6.6zM569.8 1182.7c.7.3 1.6.2 1.9-.1.4-.3-.2-.6-1.3-.5-1.1 0-1.4.3-.6.6zM1183 1183.5c-1 1.2-1 1.5.4 1.5.9 0 1.6-.7 1.6-1.5s-.2-1.5-.4-1.5-.9.7-1.6 1.5zM511.5 1184c-.3.5.1 1 1 1s1.3-.5 1-1c-.3-.6-.8-1-1-1-.2 0-.7.4-1 1zM554.6 1183.8c-.2.4 1 .9 2.7.9 2.6.2 2.8 0 1.2-.7-2.6-1.1-3.3-1.2-3.9-.2z"/></svg>