<?xml version="1.0" standalone="no"?>
<!DOCTYPE svg PUBLIC "-//W3C//DTD SVG 20010904//EN"
 "http://www.w3.org/TR/2001/REC-SVG-20010904/DTD/svg10.dtd">
<svg version="1.0" xmlns="http://www.w3.org/2000/svg"
 width="3000.000000pt" height="3000.000000pt" viewBox="0 0 3000.000000 3000.000000"
 preserveAspectRatio="xMidYMid meet">
<metadata>
Created by potrace 1.11, written by Peter Selinger 2001-2013
</metadata>
<g transform="translate(0.000000,3000.000000) scale(0.100000,-0.100000)"
fill="#000000" stroke="none">
<path d="M0 15000 l0 -15000 15000 0 15000 0 0 15000 0 15000 -15000 0 -15000
0 0 -15000z m9630 6126 c479 -50 846 -128 1275 -271 558 -185 1053 -450 1462
-780 70 -57 151 -125 180 -152 l51 -48 -312 -592 c-171 -325 -332 -622 -358
-660 -58 -84 -146 -176 -207 -215 -100 -63 -253 -89 -386 -65 -113 21 -172 46
-341 143 -494 285 -769 418 -1099 531 -297 101 -591 141 -960 130 -223 -7
-313 -16 -493 -53 -310 -62 -551 -179 -744 -363 -268 -255 -398 -571 -398
-969 0 -230 47 -408 146 -558 52 -78 175 -208 280 -294 250 -207 662 -404
1209 -581 1262 -406 1556 -514 2041 -749 380 -184 657 -368 923 -614 424 -391
718 -914 830 -1476 76 -382 88 -864 31 -1306 -150 -1172 -782 -2172 -1741
-2753 -574 -347 -1187 -543 -1939 -618 -269 -27 -837 -24 -1106 5 -1103 119
-2199 535 -3011 1140 -177 133 -483 401 -483 424 0 23 747 1214 794 1266 151
165 377 252 578 222 82 -12 189 -46 263 -83 22 -11 139 -84 260 -162 571 -369
821 -504 1200 -648 314 -119 710 -177 1120 -164 387 13 683 74 942 197 431
204 679 534 769 1025 15 79 19 151 19 345 0 223 -2 253 -23 335 -55 218 -126
346 -276 503 -315 328 -709 520 -1594 776 -832 241 -1283 398 -1737 605 -409
187 -694 380 -975 661 -214 213 -374 434 -517 716 -192 377 -277 671 -330
1147 -24 217 -24 723 0 901 38 277 92 503 181 748 301 830 907 1493 1755 1917
533 267 1049 404 1716 455 133 10 858 -3 1005 -18z m12510 0 c479 -50 846
-128 1275 -271 558 -185 1053 -450 1462 -780 70 -57 151 -125 180 -152 l51
-48 -312 -592 c-171 -325 -332 -622 -358 -660 -58 -84 -146 -176 -207 -215
-100 -63 -253 -89 -386 -65 -113 21 -172 46 -341 143 -494 285 -769 418 -1099
531 -297 101 -591 141 -960 130 -223 -7 -313 -16 -493 -53 -310 -62 -551 -179
-744 -363 -268 -255 -398 -571 -398 -969 0 -230 47 -408 146 -558 52 -78 175
-208 280 -294 250 -207 662 -404 1209 -581 1262 -406 1556 -514 2041 -749 380
-184 657 -368 923 -614 424 -391 718 -914 830 -1476 76 -382 88 -864 31 -1306
-150 -1172 -782 -2172 -1741 -2753 -574 -347 -1187 -543 -1939 -618 -269 -27
-837 -24 -1106 5 -1103 119 -2199 535 -3011 1140 -177 133 -483 401 -483 424
0 23 747 1214 794 1266 151 165 377 252 578 222 82 -12 189 -46 263 -83 22
-11 139 -84 260 -162 571 -369 821 -504 1200 -648 314 -119 710 -177 1120
-164 387 13 683 74 942 197 431 204 679 534 769 1025 15 79 19 151 19 345 0
223 -2 253 -23 335 -55 218 -126 346 -276 503 -315 328 -709 520 -1594 776
-832 241 -1283 398 -1737 605 -409 187 -694 380 -975 661 -214 213 -374 434
-517 716 -192 377 -277 671 -330 1147 -24 217 -24 723 0 901 38 277 92 503
181 748 301 830 907 1493 1755 1917 533 267 1049 404 1716 455 133 10 858 -3
1005 -18z"/>
</g>
</svg>
