<?xml version="1.0" standalone="no"?>
<!DOCTYPE svg PUBLIC "-//W3C//DTD SVG 20010904//EN"
 "http://www.w3.org/TR/2001/REC-SVG-20010904/DTD/svg10.dtd">
<svg version="1.0" xmlns="http://www.w3.org/2000/svg"
 width="600.000000pt" height="600.000000pt" viewBox="0 0 600.000000 600.000000"
 preserveAspectRatio="xMidYMid meet">
<metadata>
Created by potrace 1.11, written by Peter Selinger 2001-2013
</metadata>
<g transform="translate(0.000000,600.000000) scale(0.100000,-0.100000)"
fill="#000000" stroke="none">
<path d="M0 5740 c0 -246 1 -260 19 -270 11 -5 28 -10 38 -10 10 0 30 -7 46
-15 20 -10 50 -13 115 -9 150 8 194 6 422 -22 220 -27 313 -26 356 3 23 15 44
12 124 -14 25 -8 92 -16 149 -19 70 -2 111 -8 127 -19 13 -8 28 -15 35 -15 16
0 81 -31 102 -48 24 -21 21 -53 -7 -94 l-24 -35 24 0 c14 0 32 11 46 30 13 17
42 54 66 84 24 29 63 95 86 146 46 98 93 151 144 163 15 3 43 10 62 15 66 17
68 5 6 -38 -69 -49 -187 -200 -268 -343 -50 -88 -59 -98 -33 -36 19 45 8 46
-32 4 -41 -43 -59 -86 -38 -94 12 -5 8 -14 -19 -45 -56 -61 -106 -166 -106
-223 0 -22 11 -40 46 -72 35 -33 44 -48 39 -63 -4 -14 1 -24 20 -37 14 -9 25
-20 25 -24 0 -12 -59 -30 -99 -30 -65 0 -97 -35 -111 -123 -10 -64 3 -93 59
-130 23 -15 41 -34 41 -42 0 -8 9 -24 19 -34 26 -26 14 -34 -68 -49 -70 -12
-112 -41 -110 -76 0 -12 3 -15 6 -8 7 19 33 14 33 -7 0 -10 -7 -24 -16 -32
-13 -10 -17 -10 -24 1 -14 23 -24 -58 -11 -84 7 -12 32 -34 57 -49 28 -17 44
-34 44 -46 0 -11 9 -26 21 -35 20 -14 20 -15 2 -24 -10 -5 -40 -12 -67 -16
l-49 -6 19 21 c19 22 19 22 -6 14 -53 -16 -77 -42 -84 -91 -12 -94 -9 -113 25
-132 69 -38 82 -53 76 -91 -3 -24 0 -41 10 -49 24 -23 9 -37 -48 -43 -79 -9
-99 -22 -99 -67 0 -20 -4 -53 -10 -72 -14 -47 -7 -63 41 -89 48 -27 53 -38 39
-76 -9 -24 -8 -30 10 -42 31 -22 24 -31 -32 -38 -70 -9 -120 -24 -113 -36 4
-5 0 -9 -7 -9 -11 0 -11 -2 0 -9 10 -6 11 -19 6 -47 -9 -53 -17 -63 -25 -34
l-7 25 -1 -24 c-2 -44 21 -91 44 -91 11 0 30 -7 43 -15 l22 -16 -23 -35 c-15
-24 -28 -33 -40 -30 -11 3 -17 2 -14 -1 3 -3 -6 -16 -21 -28 -42 -35 -55 -66
-43 -98 6 -16 15 -25 21 -22 6 4 10 -5 10 -19 0 -17 -6 -26 -15 -26 -9 0 -18
-7 -21 -15 -4 -8 -10 -12 -15 -9 -13 8 -10 -18 4 -37 7 -8 27 -22 45 -30 18
-8 32 -21 32 -31 0 -30 -12 -48 -31 -48 -10 0 -19 -5 -19 -11 0 -5 -4 -7 -10
-4 -5 3 -10 2 -10 -4 0 -5 6 -12 13 -15 6 -3 0 -3 -15 0 -19 4 -28 2 -28 -6 0
-7 -7 -10 -15 -6 -8 3 -15 1 -15 -4 0 -21 -2 -26 -17 -42 -20 -22 -40 -23 -45
-2 -2 13 -9 11 -40 -10 -29 -19 -38 -22 -38 -11 0 9 -10 15 -25 15 -17 0 -25
6 -25 17 0 13 -3 12 -19 -6 -17 -19 -24 -20 -80 -13 -49 7 -61 6 -61 -5 0 -10
-9 -12 -35 -7 -27 5 -36 3 -41 -10 -3 -9 -10 -14 -15 -11 -4 3 -28 6 -53 7
-33 0 -43 4 -39 14 3 8 1 14 -5 14 -6 0 -12 -6 -14 -12 -3 -9 -10 -7 -23 6
-12 12 -21 14 -23 7 -5 -14 -42 -15 -42 -1 0 6 -7 10 -15 10 -8 0 -15 7 -15
15 0 8 -4 15 -10 15 -5 0 -10 -7 -10 -15 0 -10 -10 -15 -32 -15 -27 -1 -30 -2
-16 -11 22 -12 23 -32 3 -49 -12 -10 -16 -9 -22 6 -9 25 -42 56 -53 49 -5 -3
-11 -1 -15 5 -3 5 -1 10 6 10 7 0 -5 17 -27 38 -54 53 -77 81 -105 131 -22 40
-24 42 -30 19 -4 -12 -7 -584 -8 -1270 l-1 -1248 994 0 994 0 7 40 c9 55 35
55 32 0 l-3 -40 502 0 501 0 22 103 c12 56 26 118 29 137 13 58 29 62 262 55
249 -7 266 -9 314 -29 56 -23 70 -20 107 26 88 107 112 114 117 35 3 -51 -47
-244 -70 -272 -4 -5 -8 -19 -8 -32 l0 -23 1100 0 1100 0 -2 37 c-3 36 -5 38
-38 38 -27 0 -37 -5 -45 -23 -11 -24 -31 -31 -21 -7 3 9 0 15 -9 15 -8 0 -15
-8 -15 -17 0 -15 -2 -16 -10 -3 -9 13 -10 13 -10 0 0 -13 -2 -13 -9 -1 -12 18
-43 23 -52 9 -4 -6 -19 -12 -32 -14 -20 -2 -24 1 -20 14 5 12 0 10 -17 -6 -13
-12 -31 -22 -39 -22 -13 0 -13 2 -2 9 22 14 -9 20 -43 8 -20 -7 -30 -6 -35 2
-4 6 -15 9 -24 5 -10 -3 -17 -1 -17 6 0 6 -5 8 -11 4 -6 -3 -15 0 -20 7 -6 10
-9 7 -9 -11 0 -19 -2 -22 -9 -10 -6 8 -7 18 -4 23 3 5 0 7 -8 5 -8 -3 -13 -11
-11 -18 2 -8 -3 -10 -15 -5 -10 4 -27 8 -37 11 -25 5 -59 41 -51 55 4 6 -2 8
-18 4 -19 -5 -30 0 -52 27 -15 18 -24 26 -19 18 5 -11 1 -10 -13 3 -15 13 -22
15 -25 6 -2 -7 -12 3 -21 22 -10 20 -17 27 -17 17 0 -10 -5 -18 -11 -18 -5 0
-7 4 -4 10 3 5 -6 12 -20 16 -20 5 -24 11 -19 26 4 14 2 18 -5 14 -6 -4 -11 0
-11 8 0 9 -4 16 -10 16 -5 0 -10 -7 -10 -16 0 -8 -4 -12 -10 -9 -5 3 -10 16
-10 28 0 17 -3 19 -9 8 -7 -11 -10 -9 -16 8 -3 12 -11 18 -17 15 -6 -4 -9 -3
-6 2 9 16 -27 68 -51 74 -12 3 -22 9 -21 15 1 5 -7 12 -17 16 -10 4 -13 8 -8
8 6 1 4 5 -4 10 -12 8 -12 12 -2 25 8 9 9 16 3 16 -5 0 -12 9 -15 21 -3 13
-10 18 -17 14 -7 -4 -10 -16 -7 -26 3 -11 2 -17 -3 -14 -4 3 -8 22 -8 42 0 22
-6 41 -16 48 -9 7 -12 15 -8 20 4 4 -3 4 -15 1 -19 -6 -23 -3 -23 13 0 30 -11
51 -26 51 -8 0 -14 5 -14 11 0 5 -5 7 -10 4 -6 -3 -10 1 -10 10 0 9 5 13 10
10 6 -3 10 -1 10 5 0 6 -7 13 -15 16 -10 4 -13 13 -10 25 4 11 2 19 -4 19 -6
0 -11 -4 -11 -10 0 -5 -5 -10 -11 -10 -8 0 -7 6 2 17 11 13 11 17 2 20 -9 3
-10 10 -3 23 7 13 6 19 -5 24 -8 3 -15 15 -15 26 0 14 -4 19 -12 14 -10 -5
-10 -4 -1 6 18 20 -19 77 -60 93 -13 5 -15 12 -8 29 7 19 4 26 -18 41 l-26 19
25 -6 25 -6 -25 13 c-14 6 -36 20 -49 29 -13 9 -28 15 -33 12 -5 -3 -19 2 -30
13 -12 10 -19 13 -15 7 7 -12 -62 -154 -75 -154 -11 0 -10 34 1 46 5 5 18 40
31 79 19 62 20 76 10 128 -9 46 -19 65 -48 92 -31 30 -38 33 -51 21 -9 -7 -22
-11 -30 -8 -9 3 -11 0 -6 -8 6 -10 3 -12 -10 -6 -10 4 -28 0 -41 -9 -19 -12
-22 -21 -17 -45 3 -16 1 -36 -6 -43 -6 -8 -9 -35 -7 -60 2 -28 -1 -48 -8 -50
-8 -3 -8 -11 1 -29 9 -19 9 -28 0 -37 -9 -9 -9 -16 0 -30 9 -14 9 -21 0 -31
-9 -9 -8 -11 7 -8 13 2 25 -6 35 -24 14 -25 14 -30 -8 -72 -12 -25 -19 -51
-15 -57 4 -8 3 -9 -4 -5 -7 4 -14 -3 -18 -19 -3 -13 -10 -22 -15 -19 -5 3 -9
-7 -9 -21 0 -17 -5 -25 -12 -23 -7 3 -17 -4 -23 -15 -5 -11 -27 -34 -48 -50
-33 -27 -46 -31 -115 -34 -42 -3 -97 -7 -122 -9 -44 -5 -48 -4 -96 43 -69 65
-73 94 -23 185 14 26 11 29 -18 22 -17 -5 -30 -2 -37 8 -6 8 -18 17 -28 20
-13 5 -15 16 -12 54 3 26 9 53 14 59 6 7 7 14 4 18 -3 3 3 14 13 25 30 32 49
57 56 75 3 9 11 17 17 17 5 0 10 6 10 13 0 6 12 20 26 31 22 15 28 16 35 5 5
-8 9 -23 9 -34 0 -43 28 21 54 125 19 74 26 125 24 176 -1 40 3 78 9 86 7 9 8
21 0 38 -8 21 -11 22 -14 7 -4 -14 -11 -16 -39 -11 -25 5 -40 2 -53 -10 -10
-9 -37 -16 -67 -17 -59 -1 -86 -8 -79 -19 3 -4 -2 -13 -10 -20 -8 -7 -15 -18
-15 -26 0 -7 -6 -17 -13 -21 -7 -4 -19 -35 -26 -68 -12 -62 -41 -135 -53 -135
-3 0 -20 -25 -38 -56 -21 -38 -41 -60 -61 -67 -16 -6 -29 -15 -29 -19 0 -4 -5
-8 -11 -8 -6 0 -8 8 -4 19 3 11 2 22 -3 25 -6 3 -9 -2 -8 -11 0 -10 -7 -19
-16 -21 -10 -2 -18 2 -18 8 0 7 7 10 14 7 10 -4 13 -1 9 8 -3 8 2 18 11 21 9
3 13 10 10 16 -3 5 -17 0 -30 -13 -28 -26 -31 -19 -8 16 9 14 14 25 11 25 -3
0 0 15 8 34 11 27 12 36 2 39 -9 4 -9 6 1 6 7 1 11 5 8 10 -4 5 -1 22 5 38 15
35 18 222 4 226 -6 2 -5 10 3 20 11 13 11 19 0 36 -7 12 -16 21 -20 21 -4 0
-5 7 -1 16 8 23 90 13 259 -30 89 -22 137 -30 148 -24 43 24 58 109 31 175
-20 47 -19 50 12 61 23 9 24 11 8 11 -12 1 -25 5 -30 10 -18 15 -112 41 -170
45 -71 6 -181 42 -189 62 -3 8 1 25 9 38 14 21 13 25 -12 50 l-27 28 39 -7
c57 -10 239 -52 313 -72 l64 -18 24 28 c29 34 32 95 7 174 -14 45 -24 58 -53
73 -20 10 -54 21 -75 25 -77 13 -277 84 -239 85 18 0 23 35 8 61 -7 13 -13 19
-14 13 0 -6 -12 -23 -27 -38 -30 -31 -43 -30 -163 4 -36 10 -101 26 -145 36
-44 10 -72 19 -61 22 16 3 18 12 14 63 -2 32 -1 59 3 59 14 0 74 -29 60 -30
-11 0 -11 -3 -1 -15 7 -8 9 -15 5 -15 -4 0 -2 -7 5 -15 20 -24 38 -18 32 10
-7 39 18 40 132 1 57 -20 147 -45 198 -56 51 -10 125 -29 163 -40 188 -56 177
-55 201 -27 34 39 38 107 11 174 l-23 57 -110 37 c-60 20 -134 48 -165 63 -31
14 -61 26 -68 26 -19 0 -61 31 -61 45 0 17 31 28 44 15 7 -7 3 -10 -12 -10
-12 0 -22 -5 -22 -11 0 -6 7 -8 16 -5 8 3 12 2 9 -4 -10 -16 11 -11 36 8 15
13 19 21 11 26 -7 4 -12 4 -12 1 0 -4 -7 1 -16 9 -24 25 -61 20 -68 -8 -3 -13
-16 -26 -28 -29 -24 -7 -297 58 -312 74 -6 6 -6 9 0 9 6 0 16 25 23 55 7 30
15 55 19 55 11 0 37 -19 38 -27 3 -25 19 -43 40 -43 13 0 24 5 24 11 0 5 -4 7
-10 4 -6 -3 -10 1 -10 11 0 21 35 16 143 -21 66 -23 77 -30 72 -46 -4 -11 -2
-19 4 -19 6 0 11 7 11 16 0 10 6 13 19 9 10 -3 54 -12 97 -20 104 -20 178 -40
228 -64 102 -49 138 -35 156 58 9 49 8 58 -19 110 -23 46 -35 58 -67 69 -216
75 -285 107 -311 146 -24 37 -43 113 -25 102 6 -3 52 -15 104 -26 114 -24 173
-42 226 -69 52 -26 118 -28 130 -3 6 9 13 40 17 68 5 41 2 61 -14 97 -19 41
-29 50 -96 82 -41 19 -99 45 -128 56 -28 11 -66 29 -83 40 -17 10 -34 16 -37
12 -4 -3 -7 1 -7 11 0 9 -3 15 -7 13 -10 -6 -174 26 -238 46 -27 9 -77 23
-110 33 -33 9 -54 19 -47 21 6 3 12 15 12 28 0 33 11 85 19 85 17 -1 44 -57
44 -91 0 -22 2 -39 4 -39 9 0 33 29 33 39 0 6 6 11 13 11 9 0 9 2 -1 9 -11 6
-10 10 5 16 17 7 17 8 -2 16 -44 20 52 0 125 -25 106 -37 121 -42 257 -76 67
-17 143 -42 168 -56 62 -33 117 -32 135 1 20 37 17 114 -5 160 -18 36 -33 46
-160 110 -79 40 -141 77 -142 85 -9 77 -14 88 -44 100 -46 19 -27 24 33 7 29
-8 71 -18 93 -22 21 -4 72 -22 113 -42 98 -46 132 -51 157 -23 28 31 26 121
-2 176 -19 35 -37 49 -122 93 -113 60 -127 73 -136 121 -3 19 -7 35 -8 36 -1
1 -20 14 -42 29 -22 16 -33 26 -25 23 9 -3 51 -14 95 -23 44 -10 119 -35 167
-56 116 -53 147 -47 149 26 5 116 -25 162 -146 226 -120 63 -134 79 -132 149
1 32 5 56 10 53 4 -2 7 11 8 29 0 18 2 43 5 56 2 14 0 21 -6 17 -6 -4 -10 5
-8 24 1 16 5 28 9 25 13 -7 18 38 6 57 -9 14 -7 22 7 38 18 19 18 22 2 46 -13
20 -15 38 -10 89 6 59 5 65 -16 76 -18 10 -21 17 -15 47 6 32 2 38 -38 78 -34
32 -42 46 -35 59 7 12 5 16 -7 16 -8 0 -15 5 -15 10 0 11 -42 13 -89 4 -22 -5
-37 -16 -47 -36 -9 -17 -13 -32 -10 -35 13 -13 -31 -31 -65 -27 -37 5 -105
-22 -130 -52 -19 -23 -29 -16 -22 18 4 20 3 29 -4 25 -6 -4 -21 3 -35 16 -30
28 -78 51 -100 48 -12 -1 -16 3 -12 12 7 19 -11 25 -66 22 -67 -3 -122 -25
-117 -47 3 -11 1 -15 -6 -11 -7 4 -8 0 -4 -11 4 -10 3 -15 -3 -11 -6 3 -10 -5
-10 -18 0 -14 -7 -27 -15 -30 -8 -4 -19 -32 -27 -66 -12 -59 -23 -75 -34 -48
-6 16 31 116 70 193 14 29 26 56 26 60 0 19 73 90 103 101 l32 11 -35 3 c-19
1 -42 1 -50 1 -44 -5 -50 -7 -50 -13 0 -9 -40 -34 -69 -44 -16 -5 -21 -4 -17
4 4 6 3 11 -3 11 -5 0 -13 -5 -16 -11 -4 -6 -14 -8 -22 -5 -9 4 -21 -1 -29
-11 -12 -17 -13 -17 -20 0 -7 20 5 37 28 41 8 1 27 12 42 24 16 12 32 22 37
22 4 0 11 10 14 23 4 12 17 30 29 40 21 18 20 18 -11 3 -18 -9 -43 -16 -56
-16 -13 0 -61 -13 -108 -28 -46 -15 -93 -26 -104 -24 -31 6 -40 19 -25 37 8 9
8 15 2 15 -6 0 -14 -5 -17 -10 -8 -13 -72 -40 -94 -40 -9 0 -33 -9 -54 -19
-43 -22 -45 -18 -13 40 l23 45 -56 -7 c-31 -4 -67 -4 -81 -2 -19 3 -37 -6 -75
-39 -49 -42 -47 -32 4 24 13 15 23 30 20 32 -2 2 -26 -1 -53 -8 -35 -9 -65
-28 -107 -66 -32 -30 -62 -62 -65 -73 -3 -10 -8 -17 -10 -14 -2 2 7 32 21 67
14 35 25 67 25 71 0 12 -89 19 -116 9 -32 -13 -107 -74 -188 -155 -33 -33 -56
-51 -52 -40 8 18 20 63 31 109 11 49 109 104 226 127 35 7 75 21 89 30 14 9
50 19 80 23 50 5 53 4 36 -9 -24 -18 -8 -20 44 -6 19 6 57 12 84 15 61 6 72
16 20 17 -33 1 -29 3 31 16 69 14 131 13 313 -5 75 -8 92 -3 92 30 0 10 11 44
24 76 13 31 27 67 30 80 l7 22 -1540 0 -1541 0 0 -260z m2826 -168 c-18 -16
-18 -16 -6 6 6 13 14 21 18 18 3 -4 -2 -14 -12 -24z m-308 -32 c13 0 13 -3 4
-12 -10 -10 -15 -10 -22 2 -5 8 -9 20 -9 25 0 6 3 4 6 -2 2 -7 12 -13 21 -13z
m-326 -22 c-7 -7 -12 -8 -12 -2 0 14 12 26 19 19 2 -3 -1 -11 -7 -17z m-17
-58 c3 -5 1 -10 -4 -10 -6 0 -11 5 -11 10 0 6 2 10 4 10 3 0 8 -4 11 -10z
m1550 -256 c9 -15 18 -32 19 -38 1 -6 4 -15 8 -21 3 -5 6 -57 7 -115 0 -58 2
-112 4 -120 16 -69 29 -96 49 -105 16 -7 23 -18 23 -37 -1 -14 2 -25 6 -22 8
5 34 -25 27 -31 -3 -3 -55 11 -116 31 -105 34 -110 37 -107 62 1 14 -2 37 -8
50 -8 17 -8 25 1 31 9 5 14 56 17 166 4 158 8 174 41 175 7 0 19 -12 29 -26z
m-1985 -64 c0 -5 -5 -10 -11 -10 -5 0 -7 5 -4 10 3 6 8 10 11 10 2 0 4 -4 4
-10z m50 0 c0 -5 -8 -10 -17 -10 -15 0 -16 2 -3 10 19 12 20 12 20 0z m1220
-4 c0 -20 -26 -40 -35 -26 -10 16 2 40 20 40 8 0 15 -6 15 -14z m320 -16 c-8
-5 -33 -9 -55 -9 -39 1 -39 2 -10 9 17 4 41 8 55 9 20 0 22 -1 10 -9z m-174
-78 c-11 -10 -14 3 -8 33 l7 30 3 -28 c2 -16 1 -31 -2 -35z m94 -22 c0 -5 -2
-10 -4 -10 -3 0 -8 5 -11 10 -3 6 -1 10 4 10 6 0 11 -4 11 -10z m32 -12 c-7
-7 -12 -8 -12 -2 0 6 3 14 7 17 3 4 9 5 12 2 2 -3 -1 -11 -7 -17z m-17 -66
c-8 -9 -25 20 -18 31 3 5 10 2 15 -7 6 -10 7 -20 3 -24z m-1638 -58 c-3 -3
-12 -4 -19 -1 -8 3 -5 6 6 6 11 1 17 -2 13 -5z m1936 -45 c15 -18 26 -33 24
-35 -8 -8 -97 29 -97 40 0 37 39 34 73 -5z m67 -39 c0 -5 -4 -10 -9 -10 -6 0
-13 5 -16 10 -3 6 1 10 9 10 9 0 16 -4 16 -10z m-1070 -154 c0 -3 -4 -8 -10
-11 -5 -3 -10 -1 -10 4 0 6 5 11 10 11 6 0 10 -2 10 -4z m417 -11 c3 -9 3 -19
-1 -22 -8 -9 -37 18 -30 28 8 14 24 11 31 -6z m234 -42 c1 -10 1 -24 0 -30 -1
-7 3 -13 9 -13 5 0 10 -4 10 -10 0 -19 -15 -10 -32 20 -9 17 -13 30 -7 30 6 0
7 5 4 10 -3 6 -1 10 4 10 6 0 12 -8 12 -17z m-1308 -10 c-7 -2 -19 -2 -25 0
-7 3 -2 5 12 5 14 0 19 -2 13 -5z m1597 -52 c0 -5 3 -16 6 -25 5 -12 0 -16
-19 -16 -25 0 -42 23 -31 41 7 12 44 12 44 0z m-1890 -10 c0 -12 -18 -18 -76
-26 -40 -6 -47 -5 -36 6 6 7 33 16 60 20 26 3 48 7 50 8 1 0 2 -3 2 -8z m43 2
c-7 -2 -19 -2 -25 0 -7 3 -2 5 12 5 14 0 19 -2 13 -5z m1978 -8 c24 -9 50 -22
59 -29 8 -8 27 -17 42 -21 33 -8 39 -22 28 -68 -5 -25 -4 -37 4 -40 6 -2 8 -8
3 -12 -4 -5 -60 8 -125 29 -64 21 -135 44 -156 50 -51 16 -55 28 -11 42 19 6
32 7 29 2 -6 -9 23 -37 39 -38 4 0 12 11 17 25 5 14 14 25 20 25 6 0 6 9 0 25
-11 29 -7 30 51 10z m-1100 -266 c-7 -35 -23 -43 -27 -14 -5 28 3 45 19 45 11
0 13 -8 8 -31z m-673 -21 c-3 -35 -29 -48 -58 -28 -13 9 -13 11 0 21 12 9 13
12 1 16 -19 8 6 23 37 23 20 0 23 -4 20 -32z m1040 4 c3 -19 -1 -23 -15 -20
-10 2 -19 14 -21 26 -3 19 1 23 15 20 10 -2 19 -14 21 -26z m-8 -63 c0 -5 -7
-9 -15 -9 -9 0 -12 6 -9 15 6 15 24 11 24 -6z m311 -12 c-1 -4 -1 -11 -1 -17
0 -5 -10 -14 -21 -21 -13 -7 -19 -7 -15 -1 3 6 2 13 -3 16 -5 3 -7 15 -4 25 4
15 10 18 25 12 11 -4 19 -10 19 -14z m249 -8 c10 -7 11 -12 3 -15 -8 -4 -7
-13 5 -35 21 -36 40 -38 40 -3 0 48 15 50 106 13 84 -34 84 -34 79 -66 -3 -17
-2 -45 2 -60 6 -27 7 -27 21 -9 8 11 14 15 14 9 0 -6 3 -19 6 -27 5 -14 2 -15
-22 -5 -16 6 -88 28 -161 49 -121 35 -184 59 -157 60 6 0 11 16 12 36 1 34 16
64 31 64 3 0 13 -5 21 -11z m-1841 -3 c-6 -6 -175 -46 -193 -46 -41 0 0 30 59
43 25 6 140 8 134 3z m1231 -298 c-1 -7 -7 -24 -14 -37 -13 -24 -13 -24 -18
12 -3 31 -1 37 14 37 10 0 18 -6 18 -12z m206 -20 c4 -6 3 -8 -3 -5 -6 4 -14
0 -17 -9 -4 -9 -15 -14 -28 -12 -24 3 -28 20 -7 27 7 2 9 -1 4 -10 -4 -8 1 -6
11 4 21 20 30 21 40 5z m79 -23 c14 -14 25 -28 25 -30 0 -11 -24 -55 -31 -55
-10 0 -19 27 -19 59 0 15 -5 32 -12 39 -9 9 -9 12 0 12 6 0 23 -11 37 -25z
m-668 -7 c-3 -8 -6 -5 -6 6 -1 11 2 17 5 13 3 -3 4 -12 1 -19z m-1187 -23 c5
3 8 -3 7 -14 0 -10 -9 -24 -19 -30 -15 -10 -18 -8 -18 13 0 13 3 33 7 43 7 17
8 17 11 0 2 -9 7 -15 12 -12z m260 -14 c0 -5 -19 -12 -42 -16 -24 -3 -65 -11
-91 -17 -54 -12 -70 -6 -35 13 19 10 52 16 156 28 6 0 12 -3 12 -8z m875 -301
l20 -9 -20 0 c-11 0 -27 4 -35 9 -13 9 -13 10 0 9 8 0 24 -4 35 -9z m359 -37
c-8 -57 -24 -81 -24 -36 0 18 -4 43 -10 57 -9 24 -7 26 16 26 24 0 25 -2 18
-47z m169 7 c-3 -11 -7 -20 -9 -20 -2 0 -4 9 -4 20 0 11 4 20 9 20 5 0 7 -9 4
-20z m113 -5 c-3 -9 3 -24 14 -35 11 -11 15 -22 9 -25 -5 -4 -7 -11 -4 -16 4
-5 1 -9 -4 -9 -6 0 -11 10 -11 23 0 17 -2 19 -9 8 -8 -12 -11 -8 -16 15 -4 16
-8 35 -11 42 -2 7 5 12 17 12 15 0 19 -5 15 -15z m-1576 -54 c0 -4 -20 -11
-45 -15 -130 -18 -140 -19 -129 -7 17 18 174 38 174 22z m1876 -6 c12 -9 15
-17 9 -22 -6 -5 -10 -17 -10 -28 0 -11 -3 -30 -7 -42 -5 -15 -2 -23 8 -27 25
-9 36 -7 28 6 -5 8 -2 9 9 5 20 -8 22 4 5 22 -11 10 -10 11 5 6 10 -4 17 -2
17 4 0 6 -5 11 -10 11 -7 0 -7 6 -1 19 6 10 7 21 4 25 -15 14 31 4 97 -23 40
-16 67 -32 61 -35 -8 -5 -8 -13 -1 -26 6 -10 6 -21 1 -24 -4 -3 -6 -17 -3 -31
6 -31 1 -31 -118 0 -52 14 -112 30 -132 36 l-37 10 20 33 c11 19 19 38 18 42
-4 22 2 54 9 54 5 0 17 -7 28 -15z m-1656 -290 c0 -7 -7 -18 -15 -25 -8 -7
-12 -16 -9 -21 3 -5 -5 -9 -18 -9 -18 0 -20 2 -8 10 8 5 11 10 6 10 -5 0 -3 7
4 15 10 12 9 15 -6 15 -18 1 -18 1 -1 15 21 15 47 10 47 -10z m810 1 c0 -9
-30 -14 -35 -6 -4 6 3 10 14 10 12 0 21 -2 21 -4z m-150 -16 c8 -5 11 -10 5
-10 -5 0 -17 5 -25 10 -8 5 -10 10 -5 10 6 0 17 -5 25 -10z m323 -10 c3 -11 2
-20 -3 -20 -4 0 -10 9 -13 20 -3 11 -2 20 3 20 4 0 10 -9 13 -20z m199 -30
c-5 -36 -7 -35 -16 3 -4 19 -3 27 7 27 9 0 12 -9 9 -30z m-1477 -40 c-34 -14
-150 -28 -159 -19 -13 12 56 26 134 27 33 0 40 -2 25 -8z m1595 -31 c0 -5 -4
-9 -10 -9 -5 0 -10 7 -10 16 0 8 5 12 10 9 6 -3 10 -10 10 -16z m-1204 -24
c-15 -15 -16 -15 -16 3 0 10 3 22 7 26 4 3 11 2 16 -3 6 -6 4 -16 -7 -26z
m1244 -10 c0 -16 -9 -19 -35 -9 -13 5 -14 8 -3 15 20 13 38 11 38 -6z m100
-31 c0 -8 -5 -12 -10 -9 -6 4 -8 11 -5 16 9 14 15 11 15 -7z m-1350 -8 c0 -3
-4 -8 -10 -11 -5 -3 -10 -1 -10 4 0 6 5 11 10 11 6 0 10 -2 10 -4z m7 -61 c10
-8 7 -10 -13 -11 -19 -2 -24 2 -20 13 3 8 6 20 7 26 0 7 3 5 6 -3 4 -8 12 -19
20 -25z m-35 -57 c-8 -8 -9 -4 -5 13 4 13 8 18 11 10 2 -7 -1 -18 -6 -23z
m-538 -17 c23 -26 9 -33 -73 -37 l-66 -4 29 23 c25 18 49 28 87 36 3 0 14 -8
23 -18z m400 -37 c24 -9 -3 -44 -35 -44 -37 0 -43 12 -17 32 26 20 30 21 52
12z m1013 -72 c-2 -21 -9 -47 -16 -58 -11 -17 -12 -15 -8 16 3 19 1 45 -4 58
-7 18 -5 22 12 22 18 0 20 -5 16 -38z m-1017 1 c0 -8 -5 -13 -12 -11 -18 6
-21 25 -3 25 8 0 15 -7 15 -14z m1220 13 c0 -3 -4 -8 -10 -11 -5 -3 -10 -1
-10 4 0 6 5 11 10 11 6 0 10 -2 10 -4z m97 -22 c-3 -3 -12 -4 -19 -1 -8 3 -5
6 6 6 11 1 17 -2 13 -5z m30 -20 c-3 -4 -2 -15 3 -25 7 -12 6 -20 -1 -24 -6
-4 -8 -14 -5 -22 4 -9 1 -13 -6 -10 -7 2 -12 11 -10 21 2 9 -3 16 -9 16 -7 0
-9 3 -6 7 4 3 1 13 -6 21 -10 13 -9 15 6 9 9 -3 17 -2 17 3 0 6 5 10 12 10 6
0 8 -3 5 -6z m-1637 -13 c-18 -10 -167 -24 -157 -15 11 11 70 22 122 23 32 0
45 -3 35 -8z m438 -89 c2 -7 -1 -12 -7 -12 -6 0 -11 5 -11 10 0 6 -7 10 -15
10 -8 0 -15 4 -15 10 0 13 43 -4 48 -18z m-30 -33 c7 -12 11 -24 8 -27 -3 -3
-6 0 -6 6 0 7 -4 12 -9 12 -5 0 -11 -19 -15 -41 -9 -59 -19 -41 -11 20 8 56
14 61 33 30z m-566 -141 c-4 -4 -34 -9 -67 -13 -36 -3 -66 -12 -75 -22 -13
-14 -13 -15 3 -10 15 6 17 0 17 -44 0 -44 -3 -51 -26 -59 -30 -12 -44 -6 -44
20 0 10 -4 22 -10 25 -5 3 -10 19 -10 35 0 23 9 35 47 61 26 17 65 34 85 37
26 3 38 10 38 21 0 11 8 7 24 -14 14 -16 21 -33 18 -37z m388 -38 c19 -12 20
-31 2 -52 -17 -20 -47 -24 -57 -8 -3 6 -15 10 -26 10 -12 0 -17 4 -13 11 3 6
14 9 24 6 13 -3 20 2 24 19 7 25 21 30 46 14z m664 -5 c4 -10 -1 -15 -14 -15
-11 0 -20 7 -20 15 0 8 6 15 14 15 8 0 16 -7 20 -15z m146 -5 c0 -5 -7 -10
-15 -10 -8 0 -15 5 -15 10 0 6 7 10 15 10 8 0 15 -4 15 -10z m218 -32 c-4 -31
-25 -33 -30 -3 -4 20 -1 25 14 25 14 0 19 -6 16 -22z m-1383 -48 l20 -9 -20 0
c-11 -1 -30 -4 -42 -7 -13 -4 -23 -2 -23 4 0 6 8 13 18 15 24 7 25 7 47 -3z
m95 6 c0 -8 -61 -12 -66 -4 -3 4 11 8 30 8 20 0 36 -2 36 -4z m371 -73 c-9
-16 -10 -15 -11 8 0 14 3 29 8 33 12 12 14 -22 3 -41z m1574 14 c33 -5 66 -15
74 -20 7 -6 20 -12 28 -13 8 -1 22 -6 31 -10 22 -10 21 -9 65 -18 37 -8 53
-29 20 -25 -40 4 -45 0 -39 -33 4 -24 4 -28 -3 -13 -8 18 -10 18 -16 3 -4 -10
-13 -15 -23 -11 -13 4 -12 2 3 -11 19 -16 19 -17 -15 -11 -66 12 -265 57 -269
61 -2 2 5 4 17 4 19 0 22 6 22 38 0 59 10 84 29 76 9 -4 43 -11 76 -17z
m-1542 -40 c-3 -5 -10 -4 -15 1 -6 6 -7 16 -3 22 6 9 9 9 16 -1 4 -7 5 -17 2
-22z m-39 -58 c-6 -41 -4 -48 8 -44 8 3 15 0 15 -7 0 -7 2 -19 4 -27 3 -9 -7
-15 -28 -18 -29 -4 -33 -1 -33 20 0 43 22 137 32 131 4 -3 6 -28 2 -55z m-624
22 c0 -12 -20 -25 -27 -18 -7 7 6 27 18 27 5 0 9 -4 9 -9z m50 -87 c0 -14 7
-27 15 -30 25 -10 7 -22 -40 -30 -41 -6 -45 -9 -51 -41 -6 -30 9 -153 23 -189
3 -7 -5 -12 -19 -12 -13 0 -33 -3 -45 -7 -34 -11 -47 26 -46 129 1 101 17 134
72 150 18 5 41 22 52 38 23 32 39 29 39 -8z m390 -93 c0 -5 -6 -12 -12 -14 -7
-3 -4 -6 8 -6 27 -1 67 -39 60 -57 -3 -8 1 -14 11 -14 14 0 14 -2 -2 -20 -11
-12 -13 -20 -6 -20 6 0 17 -12 24 -27 6 -16 17 -32 23 -38 15 -14 34 -72 33
-104 0 -20 -3 -17 -14 17 -16 53 -39 80 -83 99 -29 12 -37 12 -67 -3 -41 -19
-76 -75 -81 -129 -10 -108 -16 -145 -22 -145 -4 0 -7 12 -6 27 0 16 -3 71 -8
123 -10 111 -4 164 17 156 8 -3 17 -1 20 5 4 5 0 12 -8 15 -12 4 -14 22 -8 85
1 3 18 11 40 17 21 7 44 19 51 27 14 17 30 20 30 6z m795 -11 c3 -5 1 -10 -4
-10 -6 0 -11 5 -11 10 0 6 2 10 4 10 3 0 8 -4 11 -10z m-935 -110 c0 -5 -4
-10 -10 -10 -5 0 -10 5 -10 10 0 6 5 10 10 10 6 0 10 -4 10 -10z m1872 -35
c32 -4 65 -15 76 -25 13 -13 28 -17 43 -13 21 6 23 5 10 -10 -15 -19 -41 -23
-41 -6 0 5 -5 7 -12 3 -7 -5 -8 -3 -3 7 7 12 6 12 -7 1 -9 -8 -14 -20 -12 -27
3 -8 1 -22 -4 -32 -12 -21 2 -53 23 -53 18 0 20 -16 3 -24 -7 -3 -3 -3 10 0
12 3 22 1 22 -5 0 -6 -3 -11 -7 -11 -12 0 -8 -57 6 -73 13 -17 6 -43 -15 -51
-8 -3 -14 -11 -14 -17 0 -7 3 -9 7 -6 7 8 33 -11 33 -25 0 -5 -4 -6 -10 -3 -5
3 -10 1 -10 -4 0 -6 4 -11 9 -11 5 0 16 -16 25 -35 11 -22 22 -33 29 -29 7 4
3 -3 -8 -15 -16 -19 -17 -24 -5 -31 12 -7 12 -10 -3 -16 -16 -6 -16 -7 -1 -19
12 -8 14 -14 6 -19 -20 -12 -14 -46 8 -46 18 0 19 -2 8 -20 -7 -11 -18 -20
-25 -20 -7 0 -13 -9 -13 -21 0 -12 -4 -17 -11 -14 -6 4 -8 13 -5 21 3 8 2 14
-2 14 -15 0 -43 -77 -35 -96 5 -16 4 -17 -8 -8 -8 7 -23 8 -34 4 -19 -7 -19
-7 2 -14 18 -6 21 -11 14 -24 -4 -9 -6 -23 -4 -30 3 -9 -2 -12 -13 -10 -13 2
-18 -2 -16 -14 2 -10 -2 -18 -8 -18 -5 0 -10 7 -10 15 0 8 -5 15 -11 15 -6 0
-8 -7 -5 -15 3 -9 0 -24 -6 -35 -11 -18 -14 -18 -30 -3 -24 22 -23 8 3 -29 12
-16 19 -31 16 -34 -3 -3 -15 10 -28 28 -12 18 -32 44 -45 58 -32 36 -74 119
-68 135 3 7 0 16 -7 21 -8 5 -10 3 -5 -7 4 -8 0 -5 -8 6 -9 11 -14 25 -11 33
2 7 -1 15 -9 18 -7 3 -13 10 -14 17 -1 7 -7 44 -14 82 -10 66 -9 77 21 190 17
66 33 127 34 135 2 9 6 20 10 26 3 6 9 26 12 45 3 19 17 54 31 78 13 24 24 51
24 61 0 18 10 19 112 5z m-2131 -224 c4 -58 8 -122 7 -141 0 -52 -25 112 -31
204 -7 120 14 65 24 -63z m952 83 c9 -9 -4 -35 -14 -28 -5 3 -9 12 -9 20 0 14
12 19 23 8z m69 -76 c-8 -8 -9 -4 -5 13 4 13 8 18 11 10 2 -7 -1 -18 -6 -23z
m429 -49 c-9 -23 -10 -23 -10 -2 -1 12 2 30 6 40 6 15 8 15 11 2 1 -8 -2 -26
-7 -40z m-4 -166 c-3 -10 -5 -2 -5 17 0 19 2 27 5 18 2 -10 2 -26 0 -35z m10
-75 c-3 -7 -5 -2 -5 12 0 14 2 19 5 13 2 -7 2 -19 0 -25z m13 -46 c0 -51 56
-221 97 -297 16 -28 16 -29 -1 -16 -33 27 -65 97 -85 181 -28 125 -32 150 -21
150 6 0 10 -8 10 -18z m-415 -82 c10 -41 26 -96 35 -122 10 -27 16 -48 13 -48
-8 0 -52 109 -62 152 -29 129 -17 145 14 18z m-388 48 c-3 -8 -6 -5 -6 6 -1
11 2 17 5 13 3 -3 4 -12 1 -19z m43 -117 c23 -60 21 -80 -3 -29 -17 35 -33 96
-24 88 3 -3 15 -29 27 -59z m1540 15 c0 -3 -4 -8 -10 -11 -5 -3 -10 -1 -10 4
0 6 5 11 10 11 6 0 10 -2 10 -4z m-1935 -206 c3 -5 1 -10 -4 -10 -6 0 -11 5
-11 10 0 6 2 10 4 10 3 0 8 -4 11 -10z m307 -95 c4 -5 3 -11 -2 -13 -10 -4
-79 68 -80 82 0 9 65 -46 82 -69z m606 10 c16 -17 35 -43 41 -56 16 -33 -63
58 -84 96 -13 23 -13 26 -1 11 8 -10 28 -33 44 -51z m391 23 c12 -19 11 -23
-5 -35 -34 -25 -50 -10 -31 31 15 32 18 32 36 4z m-713 -39 c21 -23 23 -29 9
-21 -25 13 -62 52 -48 52 5 0 22 -14 39 -31z m84 -329 c6 -11 9 -24 7 -28 -3
-4 -8 -36 -11 -72 -7 -67 -20 -96 -31 -67 -5 11 -1 166 4 185 3 9 22 -2 31
-18z m-24 -267 c-3 -8 -10 -11 -16 -8 -14 9 -12 59 3 74 10 10 13 6 15 -19 2
-18 1 -39 -2 -47z"/>
<path d="M980 2295 c-7 -9 -8 -15 -2 -15 5 0 12 7 16 15 3 8 4 15 2 15 -2 0
-9 -7 -16 -15z"/>
<path d="M3320 2035 c0 -16 6 -25 16 -25 8 0 12 5 9 10 -3 6 -1 10 5 10 7 0 5
6 -4 15 -20 21 -26 19 -26 -10z"/>
<path d="M3281 1454 c0 -11 3 -14 6 -6 3 7 2 16 -1 19 -3 4 -6 -2 -5 -13z"/>
<path d="M3325 1270 c-3 -5 -2 -10 4 -10 5 0 13 5 16 10 3 6 2 10 -4 10 -5 0
-13 -4 -16 -10z"/>
<path d="M3115 960 c-3 -5 -1 -10 4 -10 6 0 11 5 11 10 0 6 -2 10 -4 10 -3 0
-8 -4 -11 -10z"/>
<path d="M3225 959 c-4 -6 -5 -12 -2 -15 2 -3 7 2 10 11 7 17 1 20 -8 4z"/>
<path d="M3070 950 c0 -5 5 -10 11 -10 5 0 7 5 4 10 -3 6 -8 10 -11 10 -2 0
-4 -4 -4 -10z"/>
<path d="M3143 943 c-13 -5 -19 -33 -7 -33 7 0 34 27 34 34 0 7 -10 7 -27 -1z"/>
<path d="M3134 5743 c15 -4 16 -7 5 -14 -10 -6 -7 -9 13 -9 15 0 29 -4 32 -9
4 -5 30 -9 59 -9 29 0 68 -2 87 -6 73 -13 -13 15 -105 35 -79 16 -142 25 -91
12z"/>
<path d="M3430 5655 c0 -8 -4 -15 -10 -15 -5 0 0 -11 12 -25 26 -30 42 -32 35
-4 -4 14 1 23 16 29 l22 9 -22 0 c-12 1 -25 6 -28 11 -9 15 -25 12 -25 -5z"/>
<path d="M3519 5643 c-13 -17 -13 -17 6 -3 11 8 22 16 24 17 2 2 0 3 -6 3 -6
0 -17 -8 -24 -17z"/>
<path d="M3556 5635 c-4 -11 2 -15 20 -15 14 0 35 -5 46 -11 16 -9 19 -8 13 2
-6 9 -3 10 11 5 18 -8 53 -18 104 -31 45 -11 -37 23 -107 45 -78 24 -79 24
-87 5z"/>
<path d="M3361 5616 c-21 -12 -22 -14 -6 -20 20 -7 39 6 34 22 -3 7 -13 6 -28
-2z"/>
<path d="M3880 5521 c-33 -9 -13 -20 37 -19 22 0 50 -5 62 -12 13 -6 25 -10
27 -7 3 2 -14 12 -38 22 -59 24 -60 24 -88 16z"/>
<path d="M3835 5510 c-3 -5 -1 -10 4 -10 6 0 11 5 11 10 0 6 -2 10 -4 10 -3 0
-8 -4 -11 -10z"/>
<path d="M3482 5451 c-14 -8 -5 -22 29 -43 23 -14 28 -15 51 -1 28 18 54 53
38 53 -5 0 -10 -4 -10 -10 0 -12 -41 -13 -73 -1 -13 5 -29 6 -35 2z"/>
<path d="M4185 5393 c11 -10 22 -27 23 -38 2 -11 16 -40 31 -65 15 -25 33 -61
39 -80 12 -40 25 -118 20 -123 -7 -7 31 -36 55 -42 20 -5 27 -2 32 14 7 23 -3
90 -17 108 -5 7 -7 17 -3 23 3 5 1 10 -5 10 -6 0 -8 5 -5 10 3 6 2 10 -2 10
-5 0 -28 25 -52 55 -24 30 -47 53 -51 50 -4 -2 -7 2 -7 10 0 8 5 11 11 8 6 -4
3 2 -6 13 -9 10 -32 27 -50 37 -32 18 -32 18 -13 0z"/>
<path d="M4320 5024 c-10 -11 -10 -21 0 -44 9 -23 10 -40 0 -78 -6 -28 -10
-56 -9 -63 1 -8 -1 -26 -5 -42 -6 -18 -4 -33 5 -43 10 -13 9 -21 -6 -46 -18
-31 -18 -32 3 -49 24 -19 28 -39 11 -56 -20 -20 11 -54 46 -51 29 3 30 4 32
63 2 33 7 82 13 108 16 77 2 176 -37 269 -18 42 -36 53 -53 32z"/>
<path d="M4650 4927 c0 -17 33 -86 39 -83 4 3 7 -3 8 -12 1 -9 11 -42 22 -72
11 -31 22 -67 25 -80 7 -39 16 -58 31 -64 7 -2 18 -21 25 -40 12 -37 23 -45
36 -24 5 7 3 8 -7 3 -12 -8 -12 -6 0 8 7 9 17 14 22 11 14 -8 11 -16 -3 -8 -7
4 -4 -2 6 -14 24 -28 28 -28 16 2 -39 105 -220 411 -220 373z m94 -153 c3 -8
2 -12 -4 -9 -6 3 -10 10 -10 16 0 14 7 11 14 -7z m24 -55 c-3 -8 -7 -3 -11 10
-4 17 -3 21 5 13 5 -5 8 -16 6 -23z m38 -76 c-7 -7 -26 7 -26 19 0 6 6 6 15
-2 9 -7 13 -15 11 -17z m17 -38 c-3 -9 -8 -14 -10 -11 -3 3 -2 9 2 15 9 16 15
13 8 -4z"/>
<path d="M4345 4480 c-3 -5 -1 -10 4 -10 6 0 11 5 11 10 0 6 -2 10 -4 10 -3 0
-8 -4 -11 -10z"/>
<path d="M4351 4461 c-10 -6 -12 -19 -7 -45 8 -40 26 -41 21 -1 -1 16 3 25 12
25 8 0 13 5 11 12 -6 16 -20 20 -37 9z"/>
<path d="M4312 4308 c-15 -15 -15 -38 0 -38 6 0 8 3 5 7 -4 3 1 11 10 18 9 7
12 14 6 18 -5 3 -15 1 -21 -5z"/>
<path d="M4586 4304 c-3 -9 -6 -41 -6 -71 l0 -56 78 -76 c42 -42 92 -95 110
-118 39 -50 64 -60 97 -39 24 16 25 21 25 129 l0 113 -52 26 c-132 66 -224
108 -234 108 -7 0 -15 -7 -18 -16z"/>
<path d="M4273 4193 c-9 -3 -10 -10 -3 -24 20 -37 15 -160 -9 -224 -31 -80
-32 -92 -14 -99 9 -4 16 -5 17 -4 1 2 7 10 14 19 18 23 52 218 40 225 -6 4 -7
19 -4 35 3 16 1 29 -4 29 -6 0 -9 3 -9 8 6 35 -3 46 -28 35z"/>
<path d="M4530 3919 c-6 -22 -8 -60 -4 -85 6 -40 17 -55 123 -160 64 -64 125
-120 136 -124 25 -9 51 3 82 39 28 32 28 36 3 68 -11 14 -22 40 -26 59 -3 19
-10 34 -15 34 -5 0 -8 4 -6 9 4 16 -61 86 -99 106 -22 11 -67 37 -101 58 -35
20 -67 37 -72 37 -6 0 -15 -18 -21 -41z"/>
<path d="M4219 3644 c-5 -15 -7 -35 -4 -44 3 -10 1 -21 -5 -25 -5 -3 -10 -14
-10 -24 0 -10 -11 -35 -25 -55 -29 -42 -32 -64 -9 -73 9 -3 13 -12 8 -22 -9
-23 -13 -201 -4 -201 5 0 11 22 15 49 4 26 13 61 21 76 8 15 14 35 14 44 0 10
3 21 7 25 12 11 14 56 3 56 -13 0 -13 37 1 45 6 4 7 19 4 37 -4 18 -3 28 2 25
5 -3 14 11 19 32 17 64 -15 112 -37 55z"/>
<path d="M3680 3650 c0 -5 -10 -10 -22 -12 -17 -2 -24 -11 -26 -30 -3 -25 0
-27 30 -27 18 0 48 -4 66 -10 31 -9 32 -8 32 17 0 15 -4 32 -8 38 -9 14 -72
35 -72 24z"/>
<path d="M4480 3569 c-21 -38 -24 -122 -6 -157 9 -18 22 -32 29 -32 8 0 59
-45 116 -100 92 -91 105 -100 139 -100 45 0 52 5 80 51 42 70 46 184 4 121
-21 -31 -29 -27 -36 18 -3 21 -15 47 -25 57 -20 18 -272 163 -284 163 -4 0
-11 -9 -17 -21z"/>
<path d="M3650 3220 c0 -35 14 -39 30 -10 8 16 8 20 -2 18 -7 -2 -12 3 -10 10
1 6 -2 12 -8 12 -5 0 -10 -13 -10 -30z"/>
<path d="M4422 3198 c-17 -22 -25 -115 -12 -150 7 -22 33 -50 77 -83 36 -27
97 -80 134 -116 71 -69 82 -95 55 -132 -15 -20 -9 -22 -186 68 -84 43 -108 51
-118 41 -12 -12 -33 -110 -27 -131 2 -5 6 -22 9 -37 4 -19 18 -34 44 -47 20
-10 46 -28 56 -40 11 -12 24 -21 31 -21 6 0 21 -10 32 -22 36 -39 114 -92 121
-82 4 5 12 9 17 9 6 0 24 6 40 14 44 20 67 74 69 159 1 61 -2 73 -21 92 -34
31 -30 73 10 113 71 69 90 178 41 236 -22 26 -32 30 -67 29 -34 -2 -67 10
-159 55 -64 31 -121 57 -126 57 -5 0 -14 -6 -20 -12z"/>
<path d="M4132 3158 c-7 -7 -12 -30 -11 -52 0 -23 3 -34 6 -26 8 21 26 31 34
18 8 -12 29 -2 29 13 0 6 -4 8 -9 5 -5 -3 -15 8 -23 24 -11 23 -17 27 -26 18z"/>
<path d="M4126 3038 c3 -4 -2 -8 -11 -8 -11 0 -15 -7 -13 -22 4 -31 48 -36 66
-8 10 17 10 20 -3 20 -8 0 -12 6 -9 13 3 8 -3 13 -15 13 -11 0 -17 -4 -15 -8z"/>
<path d="M3290 2881 c0 -19 25 -35 41 -26 11 8 -12 45 -28 45 -7 0 -13 -9 -13
-19z"/>
<path d="M4108 2883 c7 -3 16 -2 19 1 4 3 -2 6 -13 5 -11 0 -14 -3 -6 -6z"/>
<path d="M4100 2850 c0 -5 7 -10 16 -10 8 0 12 5 9 10 -3 6 -10 10 -16 10 -5
0 -9 -4 -9 -10z"/>
<path d="M4045 2700 c-3 -5 -1 -10 4 -10 6 0 11 5 11 10 0 6 -2 10 -4 10 -3 0
-8 -4 -11 -10z"/>
<path d="M4068 2653 c-16 -4 -33 -32 -24 -41 9 -9 35 7 46 27 11 21 9 22 -22
14z"/>
<path d="M3242 2467 c-10 -12 -9 -16 4 -21 21 -8 23 -6 15 17 -6 17 -9 17 -19
4z"/>
<path d="M3470 2460 c-11 -7 -11 -10 -2 -10 9 0 11 -7 7 -19 -4 -12 0 -21 11
-25 22 -8 44 11 44 38 0 24 -33 33 -60 16z"/>
<path d="M4321 2451 c-16 -11 -31 -68 -31 -124 0 -58 9 -68 162 -173 100 -69
108 -73 137 -63 17 6 31 15 31 20 0 5 13 15 30 24 72 37 83 202 16 233 -16 7
-27 6 -40 -3 -16 -12 -15 -16 18 -49 38 -38 46 -75 21 -96 -12 -10 -16 -9 -21
4 -3 9 -10 14 -14 11 -15 -10 -49 33 -53 67 -5 46 -12 56 -50 72 -18 8 -68 30
-113 49 -45 19 -86 32 -93 28z"/>
<path d="M4054 2414 c-9 -21 -16 -43 -15 -47 0 -4 -8 -17 -19 -29 -10 -11 -17
-25 -14 -30 3 -5 0 -7 -7 -6 -6 2 -14 -3 -16 -9 -3 -9 6 -13 26 -13 27 0 31 4
37 35 3 19 10 35 15 35 5 0 9 9 9 21 0 11 4 28 9 38 5 9 6 23 1 31 -6 10 -13
3 -26 -26z"/>
<path d="M3450 2390 c8 -5 22 -10 30 -10 13 0 13 1 0 10 -8 5 -22 10 -30 10
-13 0 -13 -1 0 -10z"/>
<path d="M738 2323 c7 -3 16 -2 19 1 4 3 -2 6 -13 5 -11 0 -14 -3 -6 -6z"/>
<path d="M475 2310 c3 -5 8 -10 11 -10 2 0 4 5 4 10 0 6 -5 10 -11 10 -5 0 -7
-4 -4 -10z"/>
<path d="M4036 2194 c-3 -9 -6 -23 -6 -32 1 -15 3 -14 15 2 17 22 20 46 6 46
-5 0 -12 -7 -15 -16z"/>
<path d="M4250 2050 c-6 -10 -13 -46 -16 -79 -9 -77 4 -97 93 -150 38 -21 81
-51 96 -65 15 -14 33 -26 40 -27 76 -6 95 -4 89 10 -3 9 -1 12 6 7 7 -4 15 -1
18 8 3 9 12 16 19 16 30 0 55 51 55 111 0 35 -4 59 -11 59 -5 0 -15 13 -20 29
-12 34 -35 46 -55 30 -11 -9 -14 -8 -14 4 0 13 -6 14 -31 7 -30 -9 -44 -7 -84
11 -43 18 -140 49 -157 49 -9 0 -22 -9 -28 -20z m351 -111 c20 -14 29 -29 29
-47 0 -52 -29 -63 -44 -17 -3 11 -16 25 -28 30 -13 6 -24 20 -26 33 -4 29 29
30 69 1z"/>
<path d="M4556 2037 c3 -10 9 -15 12 -12 3 3 0 11 -7 18 -10 9 -11 8 -5 -6z"/>
<path d="M3975 1930 c-3 -5 -2 -10 4 -10 5 0 13 5 16 10 3 6 2 10 -4 10 -5 0
-13 -4 -16 -10z"/>
<path d="M3952 1886 c-5 -6 -7 -21 -6 -33 0 -12 -3 -20 -7 -17 -5 3 -9 -21 -9
-54 0 -33 -3 -80 -6 -106 -8 -52 3 -59 38 -24 20 20 21 23 5 26 -9 2 -17 7
-17 11 0 16 22 71 29 71 15 0 41 61 41 97 0 37 -2 40 -30 40 -17 0 -34 -5 -38
-11z"/>
<path d="M4212 1687 c-25 -11 -42 -62 -44 -130 -1 -56 13 -80 59 -104 87 -45
128 -68 133 -74 11 -14 48 -27 90 -33 55 -8 98 15 122 65 19 38 14 57 -8 35
-19 -19 -44 -10 -44 16 0 12 -7 26 -15 32 -8 6 -16 28 -19 48 l-4 37 46 -20
c26 -11 50 -26 55 -32 4 -7 6 1 4 18 -4 42 -33 92 -56 100 -11 3 -21 13 -23
21 -3 12 -8 11 -38 -4 -42 -22 -78 -20 -167 11 -52 18 -73 22 -91 14z"/>
<path d="M4670 980 c0 -5 5 -10 11 -10 5 0 7 5 4 10 -3 6 -8 10 -11 10 -2 0
-4 -4 -4 -10z"/>
<path d="M5355 140 c3 -5 8 -10 11 -10 2 0 4 5 4 10 0 6 -5 10 -11 10 -5 0 -7
-4 -4 -10z"/>
<path d="M3094 96 c-2 -6 -8 -30 -13 -53 l-9 -43 123 0 c72 0 126 4 130 10 4
6 -5 10 -19 10 -14 0 -26 5 -26 10 0 6 5 10 12 10 26 0 -26 39 -69 50 -35 10
-50 11 -64 2 -24 -15 -29 -15 -29 1 0 16 -30 18 -36 3z"/>
</g>
</svg>
